<svg width="48" height="48" viewBox="0 0 48 48" fill="none" xmlns="http://www.w3.org/2000/svg">
<circle cx="24" cy="24" r="24" fill="#FF0066"/>
<path d="M15.1514 15.6428C16.7132 15.6201 17.963 14.347 17.9478 12.7942C17.9327 11.2413 16.6583 9.99258 15.0963 10C13.5344 10.0075 12.2721 11.2684 12.272 12.8213C12.2746 13.576 12.5801 14.2984 13.1207 14.8282C13.6614 15.358 14.3924 15.6512 15.1514 15.6428Z" fill="white"/>
<path d="M9.18102 30.7482C9.01752 31.4428 8.93208 32.1534 8.92625 32.8668C8.92625 35.3507 10.2811 37 13.1605 37C15.5482 37 17.4857 35.5902 18.878 33.3125L18.0268 36.7094H22.7666L25.4782 25.9101C26.1557 23.1729 27.467 21.7533 29.4578 21.7533C31.0239 21.7533 31.9975 22.7213 31.9975 24.3216C32.0053 24.8346 31.934 25.3458 31.7862 25.8374L30.3899 30.8032C30.1902 31.487 30.0904 32.1959 30.0937 32.908C30.0937 35.2643 31.49 36.9922 34.4109 36.9922C36.9092 36.9922 38.9 35.3939 40 31.563L38.1376 30.8464C37.2055 33.4146 36.4017 33.878 35.7677 33.878C35.1337 33.878 34.7921 33.4578 34.7921 32.6155C34.8104 32.1735 34.8813 31.7352 35.0034 31.3097L36.3602 26.4697C36.6648 25.4747 36.8218 24.4408 36.8263 23.4007C36.8263 19.78 34.6242 17.8911 31.9561 17.8911C29.4578 17.8911 26.918 20.1315 25.6481 22.4896L26.5783 18.2563H19.3401L18.323 21.987H21.712L19.6265 30.2809C17.9873 33.9016 14.9775 33.9605 14.6003 33.8761C13.9801 33.7367 13.5851 33.503 13.5851 32.698C13.6032 32.0462 13.7027 31.3991 13.8814 30.7717L17.0571 18.2465H9.01512L8 21.9772H11.3436L9.18102 30.7482Z" fill="white"/>
</svg>
