<svg width="48" height="48" viewBox="0 0 48 48" fill="none" xmlns="http://www.w3.org/2000/svg">
<circle cx="24" cy="24" r="24" fill="#DC0C1C"/>
<path fill-rule="evenodd" clip-rule="evenodd" d="M36.0174 20.1305C35.9247 20.2345 35.8244 20.3756 35.7427 20.5404C35.7427 20.5404 36.2123 20.4207 36.4704 20.096C36.5271 20.0217 36.6232 19.8886 36.5586 19.8089C36.5398 19.784 36.4009 19.7026 36.0174 20.1305ZM32.8893 18.6163C32.8475 18.6742 32.8122 18.7452 32.7386 18.8847C32.6676 19.0221 32.5256 19.4298 32.4083 19.7109C32.2055 20.1981 31.9042 20.6338 31.5338 20.9454C31.2241 21.2051 31.065 21.3139 30.8161 21.404C30.8161 21.404 30.9101 21.4387 31.1239 21.4472C31.9479 21.4837 32.6427 21.115 33.0362 20.5626C33.4001 20.0503 33.6594 19.3597 33.2433 18.7332C32.8498 18.1441 31.1282 17.9082 30.1947 18.7129C29.6804 19.1571 29.8577 19.827 30.5859 19.5442C30.7135 19.4874 30.8331 19.389 30.8768 19.3007C31.2977 19.4558 31.7973 19.1291 31.7973 19.1291C31.7973 19.1291 31.4416 19.9274 30.5755 20.0443C29.6907 20.1593 29.4435 19.698 29.4539 19.3719C29.54 18.284 31.674 17.6502 32.9482 18.2043C33.9897 18.6595 34.212 19.4583 33.9982 20.0972C33.6825 21.0353 32.8833 21.4368 32.1217 21.6024C31.3036 21.7781 30.6362 21.617 30.4147 21.5617C30.3205 21.5373 30.2762 21.5099 30.2762 21.5099C30.2762 21.5099 30.5671 21.3079 30.8477 20.9697C31.0821 20.683 31.3268 20.3351 31.5005 20.0375C31.9019 19.3481 32.4332 18.8031 32.8893 18.6163ZM35.1111 18.6755C34.9391 18.7722 34.8601 18.9553 34.9391 19.0896C35.0175 19.2295 35.2277 19.2484 35.3893 19.1565C35.5491 19.0666 35.6404 18.8818 35.5595 18.745C35.4806 18.6074 35.2833 18.5814 35.1111 18.6755ZM34.9682 21.0828C34.7837 21.2724 34.5932 21.444 34.3703 21.5595C34.1883 21.6392 33.9618 21.7187 33.7851 21.579C33.7012 21.4993 33.695 21.3668 33.7243 21.2585C33.7584 21.1455 33.8167 21.039 33.8735 20.935L34.6352 19.539L34.6602 19.5262C34.7941 19.5262 35.199 19.5245 35.2161 19.5262L35.2223 19.5409L34.9603 20.0304C34.9603 20.0304 34.3934 21.0804 34.3684 21.1248C34.3119 21.2317 34.3624 21.3151 34.5256 21.2116C34.7228 21.0884 34.8318 20.957 34.9518 20.8001C35.1132 20.5903 35.2015 20.3106 35.4779 20.0175C35.7464 19.7317 35.9627 19.5986 36.1915 19.5202C36.4558 19.4301 36.7474 19.4917 36.8162 19.6868C36.8795 19.8521 36.7871 20.0839 36.6696 20.2187C36.3907 20.5381 36.0112 20.7144 35.6142 20.8018C35.5497 20.8985 35.4384 21.2871 35.7909 21.2805C35.99 21.2769 36.1538 21.1667 36.3298 21.0513C36.6386 20.8348 36.9215 20.5624 37.1224 20.251C37.217 20.0796 37.3222 19.9098 37.4064 19.736H37.0641L37.1835 19.5287H37.5275L37.9074 18.8592L38.4675 18.8611C38.4675 18.8634 38.1485 19.468 38.1133 19.5287C38.1947 19.5262 38.5449 19.5262 38.5449 19.5262L38.4421 19.736H38.0017L37.9409 19.8261C37.9409 19.8261 37.4751 20.693 37.312 20.9861C37.1756 21.2317 37.276 21.2701 37.3788 21.2275C37.5152 21.1709 37.6828 20.9886 37.7419 20.929C37.8423 20.8103 37.9451 20.693 38.0291 20.5684C38.109 20.5666 38.2155 20.5684 38.2514 20.5684C37.9848 21.0062 37.5762 21.5059 37.0598 21.6429C36.9215 21.6653 36.7517 21.6695 36.653 21.5613C36.5586 21.4629 36.5648 21.2975 36.611 21.18C36.6276 21.1393 36.6463 21.0963 36.655 21.0804L36.6386 21.0725C36.3194 21.3685 35.9315 21.6537 35.5012 21.6579C35.3251 21.6579 35.126 21.5813 35.0395 21.4117C34.9518 21.2421 34.9726 21.1266 34.9682 21.0828Z" fill="white"/>
<path fill-rule="evenodd" clip-rule="evenodd" d="M32.9857 26.8325C32.9857 29.4271 34.7393 30.9656 37.2339 30.9711C40.1057 30.9711 40.9027 28.6977 41 28.3786C41 28.3786 39.7827 29.7234 37.9865 29.7207C36.1599 29.7207 35.9401 27.7854 35.8945 27.3669C36.9801 27.3712 40.8016 27.3816 40.8016 24.9886C40.8053 23.2712 39.0033 22.4102 37.4061 22.4102C34.5895 22.4102 32.9884 24.2705 32.9857 26.8325ZM13.7079 29.8589C11.6469 29.8589 10.1794 28.4311 10.1794 24.8993C10.1821 21.3635 11.5337 19.5559 13.389 19.5559C15.6931 19.5594 16.7694 22.2063 16.9998 22.7653L16.9969 19.5891C16.2393 19.3861 15.0395 18.756 13.2753 18.7533C9.65255 18.7498 7.00251 21.4947 7 25.0685C6.99654 28.6178 9.41832 31 12.8514 31C15.2231 31.0027 16.5348 29.8255 17.1238 29.0956C17.8904 30.2569 19.2444 30.9444 20.9034 30.9471C24.0664 30.9471 25.6844 28.9458 25.6844 26.6162C25.6878 24.2959 24.1952 22.3624 21.09 22.3624C18.7597 22.3599 16.4408 23.6972 16.4373 26.6698C16.4373 27.2174 16.5215 27.7251 16.6789 28.1856L16.6777 28.1822C16.1307 28.8801 15.1422 29.8624 13.7079 29.8589ZM19.2357 26.5596C19.2322 25.9196 19.2667 23.007 20.9752 23.007C22.5483 23.007 22.6362 25.5023 22.6335 26.6523C22.6335 27.7986 22.5056 30.276 20.9026 30.276C19.248 30.276 19.2322 27.5969 19.2357 26.5596ZM26.1776 19.3476H28.8053V26.1998L32.1361 22.3078H33.7187L30.9095 25.5605C31.5594 26.6588 33.1219 29.2966 33.9671 30.6886H31.2876C30.6412 29.5614 29.8626 28.1883 29.3901 27.3536L28.8053 28.0309V30.6886H26.1776V19.3476ZM35.8166 26.5733C35.8057 23.8473 36.5852 23.0919 37.2428 23.0919C38.1866 23.0809 38.5576 24.1497 38.5549 24.9257C38.5549 26.4958 36.7142 26.5189 35.8166 26.5733Z" fill="white"/>
</svg>
