<svg width="48" height="48" viewBox="0 0 48 48" fill="none" xmlns="http://www.w3.org/2000/svg">
<circle cx="24" cy="24" r="24" fill="#C5C3C0"/>
<path fill-rule="evenodd" clip-rule="evenodd" d="M31.9244 9C36.929 9 41 13.0557 41 18.0407C41 23.0257 36.929 27.0819 31.9244 27.0819L31.7182 27.0787L23.5371 32.8934L23.5428 33.0532L23.5452 33.2142C23.5452 36.9566 20.4894 40 16.7328 40C13.52 40 10.82 37.7744 10.106 34.7884L10.0537 34.5511L0.913033 30.7877C0.318335 28.7004 0 26.4969 0 24.2193C0 23.5824 0.0248885 22.9514 0.0737478 22.327L12.899 27.6092L13.1367 27.4544C14.1811 26.8045 15.4138 26.4284 16.7328 26.4284L16.9233 26.4314L17.1126 26.4398L22.8489 18.1577L22.8483 18.0407C22.8483 13.0557 26.9193 9 31.9244 9ZM31.9239 12.0168C28.5895 12.0168 25.8764 14.7193 25.8764 18.0407C25.8764 21.3626 28.5895 24.064 31.9239 24.064C35.2588 24.0635 37.9714 21.3621 37.9714 18.0407C37.9714 14.7193 35.2588 12.0168 31.9239 12.0168ZM15.1604 28.3593C16.2784 27.9992 17.5235 28.015 18.6908 28.499C19.9513 29.0225 20.9317 30.0034 21.4512 31.2612C21.9719 32.5184 21.9686 33.903 21.4436 35.1569C20.3594 37.7505 17.3601 38.9801 14.7585 37.9006C13.6354 37.4343 12.7709 36.6106 12.2347 35.6195L12.1249 35.4046L15.0812 36.6212L15.2677 36.693C17.1408 37.359 19.2307 36.4528 20.003 34.6026C20.777 32.7529 19.9521 30.6378 18.159 29.7813L17.9765 29.6999L14.9228 28.4421L15.1604 28.3593Z" fill="#171A21"/>
<path d="M31.9343 13.5054C34.4434 13.5054 36.4776 15.5311 36.4776 18.0304C36.4776 20.5297 34.4434 22.5553 31.9343 22.5553C29.4253 22.5553 27.3911 20.5291 27.3911 18.0304C27.3911 15.5311 29.4253 13.5054 31.9343 13.5054Z" fill="#171A21"/>
</svg>
