<svg width="48" height="48" viewBox="0 0 48 48" fill="none" xmlns="http://www.w3.org/2000/svg">
<circle cx="24" cy="24" r="24" fill="#900D2C"/>
<path d="M31.0434 28.8929C31.1514 28.8531 31.2448 28.9268 31.252 29.0573C31.2581 29.1897 31.185 29.3125 31.0676 29.3671C30.9596 29.4061 30.8665 29.3336 30.8597 29.2012C30.8541 29.0695 30.9268 28.9474 31.0434 28.8926" fill="white"/>
<path d="M28.7528 28.1491L28.7733 28.5534C28.691 28.5274 28.6027 28.5302 28.5222 28.5614L28.1839 28.676C28.1839 28.7273 28.2056 29.1342 28.2109 29.1865C28.3211 29.1447 28.3707 29.1269 28.4477 29.0949C28.5147 29.0664 28.5741 29.0217 28.6206 28.9644L28.6451 29.4405C28.5879 29.4092 28.5211 29.4021 28.4589 29.4208C28.381 29.4431 28.3366 29.4575 28.2261 29.4986L28.2534 30.0172L28.6438 29.8752C28.7311 29.8335 28.8085 29.7729 28.8707 29.6974L28.8893 30.1273L27.7935 30.5325C27.8366 30.4145 27.8534 30.288 27.8428 30.1624C27.8428 30.1624 27.809 29.2255 27.7724 28.7784C27.77 28.6874 27.7428 28.599 27.6938 28.5231L28.7528 28.1491Z" fill="white"/>
<path d="M29.0502 29.6518C29.1654 29.7216 29.3037 29.7386 29.4317 29.6987C29.5038 29.6764 29.5554 29.6112 29.562 29.534C29.5571 29.4383 29.4999 29.3837 29.3261 29.3464C29.1334 29.3059 29.0158 29.2261 29.0059 29.0305C29.0118 28.7397 29.2222 28.4963 29.5024 28.4561C29.599 28.4365 29.6974 28.4287 29.7957 28.4328L29.8122 28.7481C29.7205 28.7103 29.6192 28.7047 29.5242 28.7321C29.431 28.7669 29.3823 28.8298 29.3978 28.9048C29.4118 28.9705 29.5086 29.0005 29.7054 29.0535C29.8405 29.0773 29.9378 29.1998 29.9335 29.3407C29.9365 29.6384 29.7351 29.8972 29.4518 29.9594C29.3277 29.9972 29.1992 30.0179 29.0698 30.021L29.0502 29.6518Z" fill="white"/>
<path d="M30.4574 27.8817C30.4574 27.9691 30.4543 27.9535 30.464 28.1293L30.545 28.0974C30.603 28.073 30.6575 28.0402 30.7066 28.0001L30.7178 28.3115L30.4776 28.3964L30.5111 29.0774C30.5192 29.2261 30.6092 29.2647 30.7147 29.237L30.725 29.4428C30.6501 29.5033 30.5671 29.5523 30.4785 29.5883C30.3934 29.6299 30.2921 29.6133 30.2237 29.5465C30.1639 29.457 30.1348 29.3495 30.1409 29.2411L30.1046 28.533L29.936 28.5879L30.1713 28.001L30.4574 27.8817Z" fill="white"/>
<path d="M32.1021 28.9587L31.5295 29.1677C31.5796 29.06 31.6044 28.9417 31.6018 28.8224L31.5509 27.8332C31.5534 27.7124 31.4849 27.602 31.3774 27.5533C31.3967 27.5469 31.8964 27.0932 31.8964 27.0932L31.9777 28.6887C31.971 28.7942 32.018 28.8956 32.1018 28.9568" fill="white"/>
<path fill-rule="evenodd" clip-rule="evenodd" d="M33.6992 27.3009C33.6148 27.2353 33.5645 27.1333 33.563 27.0246C33.5709 26.7001 33.7813 26.4178 34.084 26.3257C34.3677 26.221 34.5995 26.304 34.6138 26.5989C34.5967 26.7761 34.5155 26.9403 34.3863 27.059C34.4272 27.0702 34.4667 27.0858 34.5043 27.1056C34.6315 27.1715 34.7127 27.3045 34.715 27.4509C34.7059 27.8117 34.4791 28.1285 34.1467 28.2445C33.8314 28.361 33.5552 28.2509 33.5391 27.9423C33.5509 27.7207 33.6495 27.5135 33.8125 27.3679C33.7713 27.3521 33.7331 27.3291 33.6995 27.3L33.6992 27.3009ZM33.8966 27.8533C33.894 27.9118 33.9218 27.9673 33.9697 27.9992C34.0175 28.031 34.0782 28.0344 34.129 28.0081C34.2476 27.965 34.3272 27.8501 34.328 27.7209C34.3215 27.583 34.2324 27.5275 34.0605 27.4656C33.962 27.5712 33.9038 27.7097 33.8966 27.8558V27.8533ZM34.2186 26.5578C34.255 26.5858 34.2742 26.6316 34.269 26.678V26.6774C34.2654 26.7951 34.2222 26.9079 34.1467 26.9965C34.0471 26.9671 33.94 26.8963 33.9345 26.7878C33.9275 26.6789 33.992 26.5785 34.0921 26.5424C34.1339 26.524 34.1821 26.5299 34.2186 26.5578Z" fill="white"/>
<path fill-rule="evenodd" clip-rule="evenodd" d="M32.3523 27.7965C32.2681 27.7309 32.2175 27.6294 32.2149 27.5208C32.2234 27.1962 32.4339 26.9141 32.7366 26.8216C33.0199 26.716 33.2521 26.7999 33.267 27.0945C33.2502 27.2721 33.1685 27.4366 33.0382 27.5546C33.0794 27.5657 33.1192 27.5814 33.1571 27.6012C33.2839 27.6673 33.3645 27.8003 33.3663 27.9465C33.3584 28.3069 33.1322 28.6239 32.8002 28.7398C32.4839 28.8566 32.2062 28.7468 32.1919 28.4382C32.2038 28.2168 32.3021 28.0096 32.4647 27.8638C32.4238 27.848 32.3859 27.825 32.3527 27.7959L32.3523 27.7965ZM32.5491 28.3501C32.5465 28.4087 32.5743 28.4643 32.6222 28.4961C32.67 28.5279 32.7307 28.5311 32.7816 28.5046C32.9004 28.461 32.9801 28.3456 32.9808 28.2158C32.9727 28.0783 32.8846 28.0243 32.7127 27.9605C32.6144 28.0664 32.5564 28.205 32.5491 28.3511V28.3501ZM32.7437 27.037C32.8284 27.0064 32.9138 27.0485 32.9197 27.173L32.9194 27.1717C32.9161 27.2892 32.8734 27.402 32.7983 27.4908C32.6987 27.4611 32.5904 27.3919 32.5854 27.2831C32.5781 27.1737 32.643 27.0729 32.7437 27.037Z" fill="white"/>
<path d="M34.9192 27.448C35.0308 27.54 35.1815 27.5643 35.3152 27.5118C35.4869 27.4404 35.5926 27.2614 35.5749 27.0718C35.5659 26.8803 35.4579 26.8184 35.3239 26.8676C35.231 26.9103 35.1554 26.9847 35.1097 27.0782L34.9387 27.029L34.9136 26.0532L35.6156 25.7944C35.6928 25.7702 35.7649 25.7316 35.8285 25.6805L35.8372 26.0931L35.2062 26.3254L35.214 26.6972C35.292 26.619 35.3853 26.5589 35.4877 26.5207C35.8291 26.3946 35.9936 26.6286 36.0063 26.8902C36.0039 27.2955 35.7536 27.6553 35.3813 27.7885C35.2388 27.839 35.086 27.8507 34.9378 27.8223L34.9192 27.448Z" fill="white"/>
<path d="M10.3324 21.227L10.8517 31.4101C10.9225 32.2515 10.7758 33.0973 10.4265 33.8618C10.6962 33.7635 13.3472 32.7985 13.9816 32.5534C13.5936 32.1347 13.3842 31.574 13.4 30.9959L13.1669 26.4055C14.1772 26.2091 15.1388 25.8056 15.9943 25.2191C18.1491 23.6966 18.7269 21.9961 18.5777 20.1736C18.4004 18.0126 16.8508 16.1928 14.4127 16.3309C13.5661 16.3989 12.7373 16.6166 11.9627 16.9743C8.92745 18.296 6.10632 21.5933 6.00266 25.7615C5.94059 28.2085 6.96973 30.7419 8.56961 32.0291C8.86911 32.2854 9.21141 32.4836 9.57982 32.6141C7.36078 30.716 7.05787 27.7614 7.23229 26.0953C7.65779 22.0047 10.5612 19.5198 12.5239 18.8927C14.355 18.3078 16.0154 18.9119 16.1209 20.9988C16.2578 22.6242 15.4063 24.1682 13.9794 24.8818C13.7048 25.017 13.4132 25.1121 13.1129 25.1642L12.8237 19.493C11.8861 19.8888 11.0382 20.4797 10.3334 21.2286" fill="white"/>
<path fill-rule="evenodd" clip-rule="evenodd" d="M32.6304 25.9272C31.0125 26.4007 29.8589 25.1958 29.8279 23.4359C29.7999 21.8837 30.573 20.4388 32.1168 19.9327C33.2055 19.575 34.1539 20.1143 34.2607 21.2471C34.362 22.2866 33.7971 23.2739 32.8641 23.6877C32.4363 23.8606 31.9725 23.9177 31.5171 23.8536C31.7567 24.443 32.2589 24.7579 33.0087 24.5837C33.7896 24.4012 34.7113 23.2585 34.9658 22.2344L34.8569 20.1111C34.8667 19.7703 34.733 19.4417 34.49 19.2096L36.427 18.4821C36.427 18.4821 36.4403 18.7989 36.4624 19.262C36.5943 18.6647 37.0168 18.1798 37.5796 17.9795C37.9353 17.8651 38.3226 17.9303 38.6243 18.1553C38.9259 18.3803 39.1063 18.7387 39.1109 19.1219C39.1794 19.5481 39.031 19.9807 38.7176 20.2684C38.4043 20.5562 37.9696 20.6591 37.5654 20.5413C37.7833 20.3827 37.8862 20.1043 37.8257 19.837C37.7798 19.6793 37.661 19.5552 37.5084 19.5053C37.3559 19.4555 37.1892 19.4865 37.0632 19.5881C36.8171 19.7527 36.5471 20.2378 36.544 21.0965C36.5731 21.7188 36.6039 22.2945 36.6209 22.6121C36.6266 22.7181 36.6307 22.7953 36.6327 22.836C36.6171 23.2943 36.7347 23.747 36.9704 24.1363C36.7082 24.2324 35.0235 24.8623 34.8398 24.9312C35.0379 24.5389 35.1322 24.0999 35.1132 23.6583C34.7331 24.5011 33.7055 25.6128 32.6304 25.9272ZM32.7412 21.6859C32.7384 21.3464 32.5848 20.8345 32.0683 20.9405C31.6661 21.0215 31.1953 21.7338 31.3465 23.0839C31.5941 23.1026 31.8421 23.0527 32.0646 22.9394C32.5044 22.6886 32.7669 22.2023 32.7412 21.6859Z" fill="white"/>
<path fill-rule="evenodd" clip-rule="evenodd" d="M22.77 29.3614C23.8721 28.6134 24.4149 27.0696 24.3392 25.5755C24.2489 23.7981 23.1465 23.3475 22.3715 23.6168C21.8349 23.7589 21.3788 24.1217 21.1102 24.6201L21.0857 24.1325L19.1035 24.8773C19.3445 25.1103 19.4767 25.4384 19.4666 25.7784C19.472 25.8822 19.492 26.2979 19.5193 26.8625L19.5805 28.1303C19.3071 29.1144 18.3493 30.0823 17.5942 30.2574C16.845 30.4317 16.3432 30.1183 16.1029 29.5276C16.5584 29.5916 17.0222 29.5347 17.4502 29.3623C18.3841 28.9496 18.9495 27.9616 18.8468 26.9218C18.7416 25.7893 17.7935 25.2494 16.7053 25.6064C15.1613 26.1129 14.3882 27.5568 14.4168 29.1096C14.4478 30.8695 15.6005 32.0728 17.219 31.5987C18.2804 31.2888 19.3375 30.3634 19.6537 29.61C19.7338 31.2544 19.7592 31.7626 19.767 31.9181L19.767 31.9182L19.7701 31.9809C19.7926 32.5188 19.7122 33.0559 19.5333 33.5618L21.7989 32.7104C21.5755 32.3159 21.4577 31.8676 21.4575 31.411L21.3809 29.8898C21.872 29.802 22.3433 29.6224 22.7716 29.3601L22.77 29.3614ZM16.6575 26.6123C17.1734 26.5079 17.327 27.0191 17.3307 27.3583C17.3558 27.8749 17.093 28.3612 16.6532 28.6121C16.4307 28.7252 16.1829 28.7751 15.9353 28.7567C15.7833 27.4056 16.255 26.6943 16.6575 26.6123ZM22.689 26.1968C22.6552 25.5452 22.3634 25.0959 21.8482 25.1827V25.1843C21.5781 25.2578 21.3385 25.4195 21.1655 25.6451L21.3303 28.8633C21.5981 28.7883 21.8435 28.6457 22.0441 28.4484C22.5385 27.9177 22.7315 27.0351 22.689 26.1968Z" fill="white"/>
<path fill-rule="evenodd" clip-rule="evenodd" d="M29.5606 23.7043C29.6491 25.2436 29.0858 26.6688 27.9884 27.4171H27.9871C27.5715 27.6789 27.1118 27.8584 26.6318 27.9462L26.7103 29.4839C26.7108 29.9408 26.8286 30.3895 27.0517 30.7846C26.7891 30.88 24.801 31.6229 24.801 31.6229C24.9857 31.1258 25.0637 30.5935 25.0297 30.0625L24.7126 23.8325C24.7254 23.4936 24.5954 23.1654 24.356 22.932L26.3385 22.1866L26.3714 22.806C26.6307 22.2929 27.0645 21.896 27.5902 21.6907C28.4269 21.4067 29.4532 21.8298 29.5606 23.7043ZM27.926 24.3262C27.8931 23.6752 27.6451 23.1535 27.1296 23.2412L27.1287 23.2409C26.8508 23.3146 26.6017 23.4742 26.4149 23.6982L26.5781 26.9122C26.8378 26.8411 27.0774 26.7077 27.2773 26.5229C27.808 25.9798 27.9685 25.1651 27.926 24.3262Z" fill="white"/>
<path d="M26.669 16.5735L26.8307 19.7416C26.887 20.2995 26.8255 20.8633 26.6504 21.3945C26.8342 21.3253 28.5185 20.6957 28.781 20.5993C28.5434 20.2104 28.4245 19.7573 28.4396 19.2983C28.4316 19.1369 28.3965 18.3895 28.3577 17.5592C28.3108 16.629 28.606 16.2595 28.8738 16.0514C28.9988 15.9463 29.1669 15.9131 29.3209 15.9631C29.4748 16.0132 29.5938 16.1398 29.6373 16.2997C29.6973 16.567 29.5944 16.8451 29.3769 17.0039C30.1736 17.2254 30.9997 16.6472 30.9222 15.5849C30.9175 15.2018 30.7371 14.8435 30.4356 14.6185C30.134 14.3935 29.7468 14.3282 29.3912 14.4425C28.8282 14.6425 28.4057 15.1274 28.2739 15.7246C28.2515 15.2616 28.2373 14.9451 28.2373 14.9451L26.3013 15.6726C26.544 15.9045 26.678 16.2326 26.669 16.5731" fill="white"/>
<path fill-rule="evenodd" clip-rule="evenodd" d="M19.213 20.6797C19.1359 19.1485 19.0275 16.9953 19.0074 16.65V16.6488C18.9602 15.8239 18.7228 15.4215 18.3789 15.1879C18.6009 15.1125 19.1874 14.8929 19.8068 14.661C20.4961 14.4029 21.226 14.1296 21.5396 14.0228C23.7673 13.2643 25.7855 14.1939 25.9289 17.2254C26.0664 20.1175 24.5752 22.0283 22.6702 22.8241C21.9893 23.1088 19.3655 24.0569 18.9869 24.1903C19.2811 23.5859 19.3875 22.9031 19.2917 22.2344C19.2874 22.1585 19.2548 21.5107 19.213 20.6797ZM23.7937 17.8359C23.7533 16.6794 23.4029 15.4965 22.4498 15.2677C21.9629 15.2079 21.4718 15.3367 21.0722 15.6289C21.0976 16.1318 21.39 21.772 21.4027 22.0088C21.7669 21.8898 22.1114 21.7145 22.4244 21.489C23.4213 20.7362 23.8412 19.149 23.7937 17.8359Z" fill="white"/>
<path fill-rule="evenodd" clip-rule="evenodd" d="M38.3156 24.114C38.545 24.028 38.7376 23.8614 38.8593 23.6436H38.8596C38.9947 23.4252 39.046 23.1629 39.0036 22.9078C38.977 22.6802 38.8473 22.479 38.6538 22.3653C38.4604 22.2515 38.2268 22.2359 38.0207 22.3231C37.7969 22.4086 37.6081 22.57 37.4857 22.7807C37.3438 23.0016 37.289 23.2697 37.3323 23.5307C37.3579 23.7583 37.4861 23.9603 37.6784 24.076C37.8733 24.1904 38.1091 24.2044 38.3156 24.114ZM37.4816 23.4774C37.4498 23.2731 37.4901 23.064 37.5952 22.8876H37.5958C37.6935 22.7002 37.8546 22.556 38.0486 22.4824C38.2179 22.4126 38.409 22.427 38.5666 22.5212C38.7242 22.6155 38.8308 22.7791 38.8556 22.9649C38.8885 23.1723 38.8479 23.385 38.741 23.5642C38.6436 23.7486 38.4844 23.8903 38.2929 23.963C38.1229 24.0356 37.9297 24.0224 37.7706 23.9273C37.6101 23.8331 37.5028 23.6661 37.4816 23.4774ZM37.8863 23.853L37.7228 22.8608C37.7575 22.8476 37.8024 22.831 37.8575 22.8106L37.8575 22.8106L37.9801 22.7651C38.0601 22.7353 38.115 22.7159 38.1452 22.7052L38.1452 22.7052L38.1703 22.6962C38.2323 22.676 38.2979 22.6699 38.3624 22.6783C38.4524 22.697 38.519 22.7756 38.5247 22.8698C38.5398 22.9406 38.5271 23.0147 38.4894 23.0759C38.4507 23.1308 38.3991 23.1747 38.3394 23.2036C38.3867 23.1927 38.4359 23.1947 38.4822 23.2093C38.5538 23.2454 38.6003 23.3189 38.6036 23.4008L38.6175 23.4904C38.6189 23.5003 38.6211 23.51 38.624 23.5195C38.6264 23.5291 38.6295 23.5385 38.6334 23.5476L38.6439 23.5728L38.4133 23.6596C38.3968 23.6165 38.3844 23.572 38.3761 23.5265C38.3697 23.4859 38.3575 23.4466 38.3398 23.4097C38.3229 23.3797 38.2916 23.3614 38.2578 23.3618C38.2285 23.3624 38.1994 23.3675 38.1715 23.3772L38.1166 23.3941L38.0657 23.4132L38.1244 23.7665L37.8863 23.853ZM38.0483 22.9218C38.0942 22.9018 38.1434 22.891 38.1933 22.8899L38.1936 22.8892C38.2428 22.8861 38.2854 22.924 38.2895 22.9744C38.2993 23.0225 38.288 23.0725 38.2584 23.111C38.2242 23.1515 38.1797 23.1815 38.13 23.1978L38.0369 23.2329L37.9884 22.9441L38.0483 22.9218Z" fill="white"/>
<path d="M41.5013 17.9083C40.6137 15.5909 38.9424 13.7672 36.1831 12.6472C35.3804 12.3196 34.5394 12.102 33.6816 12C36.7758 13.0422 39.1128 14.924 40.1035 17.5065C42.3827 23.4573 36.6418 30.8692 27.2796 34.0606C22.5712 35.6641 17.8472 35.898 14.0215 34.9787C14.4249 35.2706 15.3895 35.4994 16.1182 35.645C19.8115 36.3789 24.2496 35.9704 28.6774 34.4614C38.0381 31.2697 43.7796 23.8597 41.5013 17.9083Z" fill="white"/>
</svg>
