<svg width="48" height="48" viewBox="0 0 48 48" fill="none" xmlns="http://www.w3.org/2000/svg">
<circle cx="24" cy="24" r="24" fill="#6001D2"/>
<path fill-rule="evenodd" clip-rule="evenodd" d="M39.9999 10L34.2008 24H27.7808L33.5297 10H39.9999Z" fill="white"/>
<path fill-rule="evenodd" clip-rule="evenodd" d="M13.9593 16.87L17.5049 25.87L21.0704 16.87H26.7793L17.9656 38H12.2166L14.5903 32.4L8 16.87H13.9593Z" fill="white"/>
<path fill-rule="evenodd" clip-rule="evenodd" d="M25.6677 29C25.6569 29.9315 26.0227 30.8281 26.6825 31.4868C27.3422 32.1456 28.2402 32.5108 29.1732 32.5C30.139 32.5108 31.0685 32.1332 31.7524 31.4522C32.4362 30.7713 32.817 29.8443 32.8089 28.88C32.8252 27.9459 32.4615 27.0451 31.8008 26.3836C31.1401 25.7221 30.239 25.3563 29.3034 25.37C28.3383 25.3673 27.412 25.7489 26.7296 26.4303C26.0472 27.1116 25.665 28.0364 25.6677 29Z" fill="white"/>
</svg>
