<svg width="48" height="48" viewBox="0 0 48 48" fill="none" xmlns="http://www.w3.org/2000/svg">
<circle cx="24" cy="24" r="24" fill="url(#paint0_linear_501_11230)"/>
<path fill-rule="evenodd" clip-rule="evenodd" d="M37.0345 22.4C36.4136 22.4 35.8199 22.5111 35.2721 22.7123C34.6348 18.9063 31.2205 16 27.1034 16C27.1034 16 23.3793 16 23.3793 18V30.7989C23.3793 31.4609 23.9353 32 24.6213 32H37.0345C39.7768 32 42 29.8509 42 27.2C42 24.5491 39.7768 22.4 37.0345 22.4ZM20.8966 27.6L21.1034 31.4C21.1034 31.7312 21.3815 32 21.7241 32C22.0668 32 22.3448 31.7312 22.3448 31.4L22.5517 27.6L22.3448 18.2C22.3448 17.8688 22.0668 17.6 21.7241 17.6C21.3815 17.6 21.1034 17.8688 21.1034 18.2L20.8966 27.6ZM18.4138 27.6L18.6207 31.4C18.6207 31.7312 18.8988 32 19.2414 32C19.584 32 19.8621 31.7312 19.8621 31.4L20.069 27.6L19.8621 20.6C19.8621 20.2688 19.584 20 19.2414 20C18.8988 20 18.6207 20.2688 18.6207 20.6L18.4138 27.6ZM16.1379 31.4L15.931 27.6L16.1379 19.8C16.1379 19.4688 16.416 19.2 16.7586 19.2C17.1012 19.2 17.3793 19.4688 17.3793 19.8L17.5862 27.6L17.3793 31.4C17.3793 31.7312 17.1012 32 16.7586 32C16.416 32 16.1379 31.7312 16.1379 31.4ZM13.4483 27.6L13.6552 31.4C13.6552 31.7312 13.9332 32 14.2759 32C14.6185 32 14.8966 31.7312 14.8966 31.4L15.1034 27.6L14.8966 21.4C14.8966 21.0688 14.6185 20.8 14.2759 20.8C13.9332 20.8 13.6552 21.0688 13.6552 21.4L13.4483 27.6ZM11.1724 31.4L10.9655 27.6L11.1724 24.6C11.1724 24.2688 11.4505 24 11.7931 24C12.1357 24 12.4138 24.2688 12.4138 24.6L12.6207 27.6L12.4138 31.4C12.4138 31.7312 12.1357 32 11.7931 32C11.4505 32 11.1724 31.7312 11.1724 31.4ZM8.48276 27.6L8.68966 31.4C8.68966 31.7312 8.96772 32 9.31034 32C9.65297 32 9.93103 31.7312 9.93103 31.4L10.1379 27.6L9.93103 23.8C9.93103 23.4688 9.65297 23.2 9.31034 23.2C8.96772 23.2 8.68966 23.4688 8.68966 23.8L8.48276 27.6ZM6.2069 29.8L6 27.6L6.2069 25.4C6.2069 25.0688 6.48497 24.8 6.82759 24.8C7.17021 24.8 7.44828 25.0688 7.44828 25.4L7.65517 27.6L7.44828 29.8C7.44828 30.1312 7.17021 30.4 6.82759 30.4C6.48497 30.4 6.2069 30.1312 6.2069 29.8Z" fill="white"/>
<defs>
<linearGradient id="paint0_linear_501_11230" x1="0" y1="0" x2="0" y2="48" gradientUnits="userSpaceOnUse">
<stop stop-color="#FF7700"/>
<stop offset="1" stop-color="#FF3300"/>
</linearGradient>
</defs>
</svg>
