<svg width="48" height="48" viewBox="0 0 48 48" fill="none" xmlns="http://www.w3.org/2000/svg">
<circle cx="24" cy="24" r="24" fill="#0870D8"/>
<path fill-rule="evenodd" clip-rule="evenodd" d="M24.0011 47C11.3206 47 1 36.7409 1 23.9984C1 11.3208 11.3206 1 24.0011 1C36.6773 1 47 11.3208 47 23.9984C47 36.7409 36.6773 47 24.0011 47ZM24.0011 2.08103C11.8951 2.08103 2.08206 11.8943 2.08206 23.9984C2.08206 36.1036 11.8951 45.9158 24.0011 45.9158C36.1049 45.9158 45.9158 36.1036 45.9158 23.9984C45.9158 11.9582 36.1059 2.08103 24.0011 2.08103ZM43.3718 30.5803L43.491 30.5558C43.5016 30.5356 44.5507 27.7203 44.5145 23.9995C44.4496 16.7377 40.8204 9.21835 32.8565 6.79775C31.1989 6.28703 29.7976 5.96889 28.2048 5.96889C26.0091 5.96889 25.0734 6.71203 24.3143 7.3149C23.7962 7.72632 23.3604 8.07242 22.6626 8.07242C21.7071 8.07242 21.0698 7.37124 21.0698 6.54239C21.0698 5.07619 22.7892 3.9292 25.5289 3.93026C28.22 3.93026 30.0733 4.61312 30.3871 4.72876C30.4152 4.73913 30.431 4.74494 30.4339 4.74529L30.5179 4.68145L30.4977 4.56653C30.386 4.47716 27.4058 3.45784 24.0011 3.48338C16.6735 3.53977 9.21923 7.24356 6.79761 15.1427C6.28797 16.7994 5.96984 18.2007 5.96984 19.7935C5.96984 21.9907 6.71313 22.9492 7.31603 23.7265C7.72735 24.2569 8.07332 24.703 8.07332 25.4008C8.07332 26.2935 7.3711 26.9297 6.54226 26.9297C5.07716 26.9297 3.93126 25.2741 3.93126 22.4705C3.93126 20.0009 4.56033 17.9934 4.68303 17.6018L4.69307 17.5697L4.62604 17.4867L4.51219 17.5059C4.49517 17.5346 3.48758 20.4 3.48439 23.9984C3.478 31.389 7.24342 38.8455 15.1445 41.265C16.8033 41.7747 18.2035 42.0928 19.7962 42.0928C21.9919 42.0928 22.9277 41.3279 23.6868 40.7073C24.2048 40.2838 24.6406 39.9276 25.3385 39.9276C26.2312 39.9276 26.9323 40.6288 26.9323 41.5172C26.9323 42.9217 25.2757 44.0676 22.4721 44.0676C19.9228 44.0676 17.8619 43.4207 17.5725 43.3058L17.4799 43.3707C17.4576 43.4271 17.4821 43.4835 17.5108 43.4984C18.2258 43.8186 20.6251 44.5124 24.0032 44.5124C31.3276 44.5124 38.8467 40.8171 41.2045 32.8552C41.7142 31.2602 42.0323 29.7983 42.0323 28.2682C42.0323 26.026 41.2843 25.0758 40.6806 24.3089C40.2722 23.7901 39.9299 23.3552 39.9299 22.661C39.9299 21.7065 40.5661 21.0681 41.4577 21.0681C42.9228 21.0681 44.0613 22.7876 44.0709 25.5912C44.0767 27.9742 43.4332 30.0762 43.3213 30.4417C43.311 30.4753 43.3052 30.4943 43.3048 30.4973L43.3718 30.5803ZM32.5374 25.0837C30.3722 25.0837 28.7145 26.6776 28.7145 28.5874C28.7145 30.1803 29.6689 31.4528 30.9446 31.4528C31.3915 31.4528 31.8362 31.1974 31.8362 30.625C31.8362 30.261 31.6233 30.0178 31.3923 29.754C31.0986 29.4186 30.7757 29.0497 30.8233 28.3566C30.8776 27.5394 31.6468 26.9936 32.4097 26.9936C33.9397 26.9936 34.6547 28.4757 34.6547 30.0036C34.5898 32.3615 32.8565 34.0022 30.818 34.0022C28.1399 34.0022 26.4227 31.4528 26.4227 28.7141C26.4227 24.6357 29.0975 23.0429 30.4988 22.662C30.4994 22.662 30.5072 22.6632 30.5214 22.6655L30.5216 22.6655C30.8299 22.7144 34.1581 23.2418 34.0493 21.7044C33.9993 20.9979 32.947 20.7255 32.1831 20.6947C31.3383 20.6617 30.4871 20.966 30.4871 20.966C30.0413 20.7415 29.7338 20.3031 29.5444 19.7945C32.1565 17.8197 34.0025 15.9088 34.0025 13.7425C34.0025 12.5955 33.2375 11.5751 31.7724 11.5751C29.1603 11.5751 27.1845 14.8884 27.1845 17.8825C27.1845 18.3922 27.1845 18.9018 27.3132 19.3498C25.6555 20.5595 24.4245 21.3107 22.1934 22.6493C22.1934 22.3694 22.2519 21.6512 22.4381 20.717C23.2031 19.8882 24.2522 18.6486 24.2522 17.6931C24.2522 17.2473 23.9989 16.8643 23.4872 16.8643C22.2136 16.8643 21.2571 18.7763 21.0038 20.1137C20.4293 20.8149 19.2834 21.7087 18.3269 21.7087C17.5619 21.7087 17.3086 21.0064 17.2427 20.7532C19.6643 19.9233 22.6594 16.61 22.6594 13.6159C22.6594 12.9785 22.4051 11.5772 20.4931 11.5772C17.6257 11.5772 15.2041 15.846 15.2041 19.1583C14.1848 19.1583 13.8028 18.0751 13.8028 17.2484C13.8028 16.7146 13.9348 16.1808 14.0287 15.8007C14.0807 15.5907 14.121 15.4276 14.121 15.3374C14.121 15.081 13.9933 14.7629 13.6113 14.7629C12.6548 14.7629 12.0813 16.0365 12.0813 17.5027C12.1462 19.5424 13.4836 20.816 15.2679 20.9437C15.5212 22.1545 16.6054 23.3004 17.9428 23.3004C18.7716 23.3004 19.7909 23.0461 20.4921 22.4098C20.4272 22.8557 20.3644 23.2376 20.3006 23.6196C20.1302 23.7087 19.9627 23.7962 19.7978 23.8822C17.2499 25.212 15.3461 26.2057 13.6103 27.7607C12.1494 29.0971 11.3206 30.8804 11.3206 32.2827C11.3206 34.1937 12.5325 35.9769 15.0168 35.9769C17.947 35.9769 20.1782 33.6191 21.2603 30.3707C21.772 28.8417 21.9753 26.6169 22.1029 24.5772C25.0331 22.9216 26.4227 21.9619 27.9505 20.8777C28.141 21.1958 28.3346 21.4522 28.5889 21.6427C27.2505 22.3439 24.066 24.3187 24.066 28.9694C24.066 32.2838 26.2971 35.9769 30.6914 35.9769C34.3238 35.9769 36.8082 32.9839 36.8082 30.1175C36.806 27.5043 35.3399 25.0837 32.5374 25.0837ZM13.4251 32.4168C13.4251 33.435 14.0614 34.0458 15.0168 34.0022C18.2896 33.8521 19.5802 29.4833 20.0899 25.6593C17.2225 27.0627 13.4251 29.677 13.4251 32.4168ZM17.1193 18.9667C17.1193 16.8632 19.194 12.8668 20.4633 13.2892C21.9604 13.7882 19.2217 17.8197 17.1193 18.9667ZM29.1614 18.0102C29.1614 15.3981 30.9297 12.8572 31.8958 13.3403C32.9959 13.8914 31.0733 16.3535 29.1614 18.0102Z" fill="white"/>
</svg>
