<svg width="48" height="48" viewBox="0 0 48 48" fill="none" xmlns="http://www.w3.org/2000/svg">
<circle cx="24" cy="24" r="24" fill="#FA320A"/>
<path fill-rule="evenodd" clip-rule="evenodd" d="M15.7872 8L18.0367 11.3173C19.2849 8.53833 22.3617 7.75266 24.0018 9.28036C24.0484 9.32435 24.0643 9.39203 24.0422 9.45228C24.02 9.51253 23.9641 9.55368 23.9002 9.5568C22.9855 9.77369 22.3953 10.6644 22.5504 11.5937L23.4793 11.4773C31.1569 10.5025 37.746 14.3145 39.6037 21.953C41.6501 30.4354 35.4964 37.5647 27.485 39.4853C19.4736 41.4058 10.5333 37.9285 8.48691 29.4461C7.0153 24.2188 8.95023 18.6261 13.3344 15.4348C13.6971 15.1179 14.1088 14.8624 14.5535 14.6783C13.0209 14.6741 11.4925 14.84 9.99631 15.1729C9.93511 15.1976 9.86511 15.182 9.82011 15.1336C9.77512 15.0853 9.76439 15.0142 9.79312 14.9547C11.0546 12.5587 13.7985 11.3522 16.4112 12.0448C14.9599 10.7644 13.7553 9.71685 13.7553 9.71685L15.7872 8ZM19.5461 17.4863H13.7408V31.5267H17.9642V26.9144H18.6753L21.3313 31.4685H26.1207L23.218 26.5071L23.3486 26.4198C24.0377 26.0277 24.6014 25.4475 24.9741 24.7466H27.6591V34.7276H31.7955V24.8048H35.4238V20.7454H25.2644C24.5387 18.6648 22.5504 17.4863 19.5461 17.4863ZM21.1136 22.2004C21.1136 21.3274 20.3589 20.7454 19.1688 20.7454H17.9497V23.7281H19.1688C20.4024 23.7281 21.1136 23.0734 21.1136 22.2004Z" fill="white"/>
</svg>
