<svg width="48" height="48" viewBox="0 0 48 48" fill="none" xmlns="http://www.w3.org/2000/svg">
<circle cx="24" cy="24" r="24" fill="#CC0000"/>
<path fill-rule="evenodd" clip-rule="evenodd" d="M40 18H38.2296V29.3445C38.2296 29.9126 37.7412 30.3745 37.1406 30.3745C36.7556 30.3745 36.3966 30.1812 36.2042 29.8702C36.1907 29.8485 35.7134 29.0696 35.0256 27.9472C34.5295 27.1375 33.9239 26.1492 33.3038 25.1373C31.891 22.8314 30.4298 20.4474 30.4048 20.4069C30.34 20.3019 30.2122 20.234 30.0796 20.234C29.8696 20.234 29.699 20.3958 29.699 20.5942V29.3445C29.699 29.9126 29.2104 30.3745 28.6098 30.3745C28.225 30.3745 27.866 30.1812 27.6736 29.8702C27.657 29.8436 26.9391 28.6728 25.9907 27.1263C25.611 26.5071 25.1944 25.8277 24.771 25.1373C23.3568 22.831 21.8944 20.4464 21.87 20.4069C21.8052 20.3019 21.6774 20.234 21.5448 20.234C21.3348 20.234 21.1642 20.3958 21.1642 20.5942V29.1656C21.1642 29.7556 20.6162 30.2733 19.9916 30.2733H15.372C12.2822 30.2733 9.7682 27.8959 9.7682 24.9737C9.7682 22.0516 12.2822 19.6743 15.372 19.6743H17.7436V18H15.374C11.3014 18 8 21.1225 8 24.9737C8 28.8253 11.3014 31.9474 15.374 31.9474H20.038C21.8048 31.9486 22.941 30.9695 22.9386 29.1637V25.1861C22.9386 25.1861 26.2614 30.595 26.3448 30.7295C26.8264 31.5082 27.7398 32 28.7118 32C30.2346 32 31.4692 30.8318 31.4692 29.3918V25.1861C31.4692 25.1861 34.7686 30.557 34.8754 30.7295C35.3572 31.5082 36.2704 32 37.2424 32C38.7654 32 40 30.8318 40 29.3918V18ZM15.4931 20.428C12.8215 20.428 10.6484 22.4453 10.6484 24.9247C10.6484 27.4041 12.8215 29.4214 15.4931 29.4214H20.0644C20.3189 29.4214 20.524 29.1888 20.524 28.9961V20.6711C20.524 20.1196 21.0075 19.6706 21.6016 19.6706C21.9828 19.6706 22.3379 19.8587 22.5283 20.1607C22.5513 20.1971 23.9353 22.4119 25.4005 24.7575C26.8 26.9971 28.2474 29.3137 28.2713 29.3521C28.3356 29.4539 28.4621 29.5197 28.5931 29.5197C28.8009 29.5197 28.97 29.3628 28.97 29.1697V20.6711C28.97 20.1196 29.4535 19.6706 30.0476 19.6706C30.4286 19.6706 30.7837 19.8587 30.9743 20.1607C30.9973 20.1971 32.3803 22.4123 33.8445 24.7575C35.2428 26.9968 36.6886 29.3126 36.7132 29.3521C36.7777 29.4539 36.904 29.5197 37.035 29.5197C37.2428 29.5197 37.412 29.3628 37.412 29.1697V18.1515H35.6598V24.7101C35.6598 24.7101 32.395 19.4937 32.2893 19.3261C31.8127 18.5698 30.9086 18.092 29.9467 18.092C28.4399 18.092 27.218 19.2267 27.218 20.6251V24.7101C27.218 24.7101 23.9531 19.4937 23.8472 19.3261C23.3706 18.5698 22.4667 18.092 21.5049 18.092C19.9979 18.092 18.7761 19.2267 18.7761 20.6251L18.7759 27.3374C18.7769 27.5817 18.579 27.7948 18.291 27.7952H15.5121C13.8042 27.7952 12.4198 26.5099 12.4198 24.9247C12.4198 23.3395 13.8042 22.0542 15.5121 22.0542H17.84V20.428H15.4931Z" fill="#FEFEFE"/>
</svg>
