<svg width="48" height="48" viewBox="0 0 48 48" fill="none" xmlns="http://www.w3.org/2000/svg">
<circle cx="24" cy="24" r="24" fill="#FFE01B"/>
<path fill-rule="evenodd" clip-rule="evenodd" d="M38 30.0611C37.9497 31.0971 37.7312 32.1179 37.3532 33.0835C35.4676 37.6247 30.9677 40.1529 25.607 39.9928C20.6096 39.8437 16.3474 37.1933 14.482 32.8729C13.3043 32.8398 12.1777 32.3839 11.3075 31.5882C10.4086 30.8203 9.83099 29.7416 9.68966 28.5664C9.59845 27.758 9.69824 26.9394 9.98097 26.1767L8.93334 25.2847C4.13976 21.2168 19.1328 4.46767 23.9282 8.67141C23.949 8.68956 25.1336 9.85749 25.4733 10.1924L25.477 10.1961L25.4783 10.1974L25.5635 10.2813C25.5699 10.2781 26.4502 9.90288 26.4546 9.90105C30.6606 8.15059 34.0735 8.99578 34.0778 11.7887C34.08 13.2412 33.1591 14.9342 31.684 16.471C32.2736 17.0722 32.691 17.8211 32.8926 18.6394C33.0552 19.2103 33.1431 19.8 33.1541 20.3936C33.1718 20.8024 33.1907 21.5867 33.2017 22.0408L33.2018 22.0416C33.2067 22.2446 33.21 22.3814 33.2109 22.389C33.2317 22.3953 33.3727 22.4344 33.5159 22.4742L33.516 22.4742C33.6303 22.506 33.7459 22.5381 33.8032 22.5542C34.6613 22.7428 35.4598 23.1403 36.1282 23.7116C36.481 24.0573 36.7121 24.5085 36.7866 24.9973C36.8775 25.6315 36.7196 26.2763 36.3459 26.7962C36.4432 27.0184 36.5275 27.246 36.5986 27.4779C36.7079 27.8302 36.7911 28.1297 36.8188 28.2298L36.8188 28.2298L36.827 28.2591C37.2833 28.2591 38 28.7871 38 30.0611L38 30.0611ZM15.7962 29.5057C15.8349 29.5527 15.8408 29.6187 15.811 29.6718C15.6665 29.9068 15.4017 30.0393 15.1274 30.014C14.6303 29.9603 14.2596 29.5301 14.2791 29.0295C14.275 28.7007 14.3349 28.3743 14.4555 28.0684C14.6123 27.6735 14.4712 27.2224 14.1175 26.9877C13.9123 26.8517 13.661 26.8045 13.4206 26.857C13.185 26.9066 12.9794 27.0494 12.8503 27.2529C12.76 27.408 12.6897 27.5739 12.6412 27.7468C12.6319 27.7773 12.6243 27.8012 12.6186 27.8166C12.5392 28.0312 12.4126 28.0938 12.3268 28.0823C12.2862 28.0767 12.2305 28.0495 12.1947 27.9513C12.1038 27.3758 12.2827 26.7905 12.6797 26.3647C13.0134 26.0056 13.4994 25.8296 13.9852 25.8917C14.5005 25.9627 14.9457 26.2881 15.1706 26.7581C15.3978 27.3344 15.3442 27.9839 15.0257 28.5151C15.0058 28.5596 14.9876 28.6005 14.9722 28.6375C14.8575 28.8452 14.8513 29.096 14.9555 29.3092C15.0436 29.4364 15.1897 29.5108 15.3442 29.5072C15.416 29.5062 15.4873 29.4961 15.5565 29.4772C15.6466 29.456 15.7396 29.4343 15.7962 29.5057L15.7962 29.5057ZM14.0942 24.648C15.0627 24.7013 16.49 25.4486 16.816 27.5692C17.1048 29.4472 16.6461 31.3591 14.8941 31.6594C14.7301 31.6871 14.5638 31.6988 14.3976 31.6944C12.6093 31.5647 11.1438 30.2217 10.8558 28.4485C10.6637 26.5282 11.64 25.0503 13.3686 24.6998C13.6074 24.6525 13.8511 24.6351 14.0942 24.648ZM19.7705 14.1079C21.2347 12.9018 22.7967 11.8199 24.4402 10.8735C24.4402 10.8735 23.1352 9.35278 22.7411 9.24071C20.3173 8.58219 15.0813 12.2114 11.7383 17.0061C10.3856 18.9462 8.44917 22.3818 9.375 24.1487C9.70391 24.5453 10.0749 24.9048 10.4815 25.2209C11.1005 24.3467 12.0344 23.7479 13.086 23.5511C14.4016 19.8455 16.7152 16.5771 19.7705 14.1079ZM26.1697 32.0773C25.6035 31.9191 25.1693 31.4629 25.0385 30.8888C28.1326 31.8505 30.0809 30.9414 30.0809 30.9414C30.1176 30.9246 30.1398 30.8864 30.1362 30.846C30.1339 30.8224 30.1223 30.8006 30.1039 30.7855C30.0856 30.7705 30.062 30.7634 30.0383 30.7658C28.3772 30.9654 26.6926 30.7932 25.106 30.2616C25.3158 29.5763 25.8053 29.6407 26.534 29.7366C26.7119 29.76 26.904 29.7853 27.1098 29.802C28.7403 29.899 30.3754 29.7213 31.9472 29.2763C33.2536 28.9012 34.4798 28.2883 35.5646 27.4681C35.8034 28.0223 35.9731 28.6038 36.0698 29.1996C36.2526 29.1727 36.4391 29.207 36.6004 29.2971C36.8286 29.4383 36.996 29.7317 36.8817 30.4904C36.6639 31.8628 36.0202 33.1315 35.042 34.1166C34.4129 34.8007 33.6639 35.3633 32.8322 35.7764C32.3692 36.0208 31.8865 36.2257 31.3892 36.3888C27.591 37.6356 23.7032 36.265 22.45 33.3216C22.3483 33.0967 22.2643 32.8643 22.1987 32.6264C21.6373 30.6125 22.1414 28.4509 23.5353 26.8949V26.8941C23.6355 26.8071 23.6987 26.685 23.7118 26.5527C23.6994 26.4335 23.6519 26.3207 23.5753 26.2286C23.477 26.0853 23.3306 25.9219 23.1618 25.7335L23.1617 25.7335L23.1617 25.7335C22.4793 24.9719 21.4303 23.8014 21.7066 21.8905C21.9015 20.2965 23.2315 19.0856 24.8336 19.0435C24.9257 19.0482 25.0179 19.0537 25.1099 19.0592L25.1858 19.0637C25.4732 19.0809 25.7431 19.1075 26.0007 19.133L26.0007 19.133L26.0007 19.133L26.0008 19.133L26.0008 19.133L26.0008 19.133C26.2827 19.1608 26.5497 19.1872 26.8087 19.198C27.7072 19.2781 28.5983 18.9792 29.2676 18.3731C29.5231 18.1073 29.8501 17.9215 30.2089 17.8383C30.3261 17.8075 30.4474 17.7955 30.5684 17.8029C30.7841 17.8112 30.9935 17.8785 31.1738 17.9974C31.8822 18.4711 31.9826 19.6183 32.0193 20.4576C32.0403 20.9366 32.098 22.0957 32.1176 22.4284C32.1627 23.1892 32.3617 23.2965 32.7642 23.4297C32.9443 23.4894 33.1141 23.5369 33.332 23.5978L33.5106 23.6479C34.1878 23.7843 34.821 24.0858 35.3543 24.5256C35.5355 24.7039 35.6536 24.9366 35.6906 25.1883C35.8011 25.9989 35.0643 27.0002 33.1142 27.91C31.0707 28.8101 28.8311 29.1703 26.6091 28.9562C26.4721 28.941 25.9847 28.8854 25.983 28.8852C24.5536 28.6917 23.7382 30.5483 24.5961 31.8202C25.149 32.6399 26.6549 33.1734 28.1617 33.1737C31.6163 33.1742 34.2716 31.6914 35.2593 30.411C35.2877 30.3747 35.3141 30.3369 35.3384 30.2977C35.387 30.2242 35.347 30.1835 35.2864 30.2252C34.4793 30.7801 30.8949 32.9834 27.0608 32.3205C26.7571 32.2667 26.4588 32.1853 26.1697 32.0773ZM19.3326 17.0662C20.6212 16.1597 22.0742 15.5143 23.6099 15.1662C25.3423 14.7639 27.143 14.7591 28.8775 15.1519C28.9382 15.1659 28.9769 15.0602 28.9226 15.0297C28.0225 14.5601 27.0289 14.2984 26.0148 14.2637C25.9948 14.2633 25.9768 14.2518 25.968 14.2339C25.9593 14.2159 25.9612 14.1946 25.9732 14.1786C26.1307 13.9714 26.3147 13.7859 26.5205 13.6267C26.5394 13.6119 26.5466 13.5865 26.5381 13.564C26.5297 13.5415 26.5077 13.527 26.4837 13.5283C25.2417 13.6514 24.0482 14.0749 23.0058 14.7624C22.9875 14.7748 22.9636 14.7748 22.9455 14.7623C22.9273 14.7498 22.9186 14.7275 22.9235 14.706C23.0074 14.3907 23.1311 14.0874 23.2915 13.8033C23.3024 13.7834 23.299 13.7587 23.2832 13.7424C23.2674 13.7261 23.2428 13.722 23.2226 13.7324C21.715 14.5662 20.3722 15.6691 19.2605 16.9867C19.2424 17.0074 19.2427 17.0384 19.2612 17.0587C19.2796 17.079 19.3103 17.0823 19.3326 17.0662ZM30.0934 25.0468C29.9323 25.2477 29.6464 25.2953 29.4292 25.1574C29.1591 25.0312 29.0186 24.7768 29.1154 24.5894C29.2764 24.3885 29.5623 24.3408 29.7797 24.4785C30.0497 24.6049 30.1901 24.8593 30.0934 25.0468ZM30.2575 22.1161C30.3223 22.4538 30.4621 22.7725 30.6665 23.0487C30.8777 23.0227 31.0913 23.0227 31.3025 23.0487C31.426 22.678 31.4368 22.279 31.3335 21.9022C31.1809 21.2069 30.9743 20.7861 30.5475 20.8515C30.1207 20.917 30.105 21.4208 30.2575 22.1161ZM30.5774 23.9233C30.7083 23.7343 30.9449 23.6498 31.1656 23.7132C31.4145 23.7556 31.5857 23.9873 31.5536 24.2383C31.5498 24.4683 31.4001 24.6704 31.1815 24.7406C30.9628 24.8109 30.7238 24.7338 30.5871 24.5489C30.4505 24.364 30.4466 24.1124 30.5774 23.9233Z" fill="black"/>
<path fill-rule="evenodd" clip-rule="evenodd" d="M23.9732 23.5737C23.9818 23.6123 24.0108 23.6415 24.0789 23.6511C24.5273 23.5241 24.9825 23.4225 25.4423 23.3467C25.8303 23.3343 26.2155 23.4174 26.5641 23.5888C26.58 23.5958 26.5956 23.6026 26.6109 23.6094C26.8735 23.7251 27.0363 23.7968 27.1023 23.727C27.1472 23.6809 27.1338 23.593 27.0644 23.4796C26.8776 23.2098 26.6171 22.9998 26.3142 22.8746C25.6548 22.6012 24.901 22.6919 24.325 23.1138C24.1309 23.2563 23.9468 23.4537 23.9732 23.5737ZM25.9804 23.9224C26.3442 23.8572 26.7162 23.9794 26.9709 24.2477C26.9992 24.2819 27.0035 24.33 26.9816 24.3687C26.941 24.4323 26.8547 24.4226 26.6744 24.4022C26.6698 24.4017 26.6651 24.4012 26.6604 24.4007C26.2507 24.3372 25.8316 24.3808 25.4437 24.5273C25.3551 24.5643 25.2622 24.5901 25.1672 24.6041C25.1442 24.6044 25.122 24.5959 25.105 24.5804C25.0856 24.5628 25.0751 24.5376 25.0761 24.5114C25.0985 24.3953 25.1644 24.2921 25.2604 24.2231C25.4662 24.055 25.7164 23.9505 25.9804 23.9224Z" fill="black"/>
<path d="M26.433 24.422C26.5528 23.9948 26.5596 23.5437 26.4529 23.113C26.2984 22.4167 26.0649 22.0188 25.6321 22.0843C25.1992 22.1499 25.188 22.711 25.3275 23.4103C25.3917 23.7307 25.5166 24.0359 25.6956 24.3091C26.04 24.7907 26.2735 24.6661 26.4323 24.422L26.433 24.422Z" fill="black"/>
</svg>
