<svg width="48" height="48" viewBox="0 0 48 48" fill="none" xmlns="http://www.w3.org/2000/svg">
<circle cx="24" cy="24" r="24" fill="#1434CB"/>
<path fill-rule="evenodd" clip-rule="evenodd" d="M29.1454 19C26.7313 19 24.5739 20.2494 24.5739 22.5579C24.5739 24.1071 25.8843 24.8124 26.9713 25.3974C27.7418 25.8121 28.4001 26.1664 28.4001 26.718C28.4001 27.278 27.7574 27.7793 26.6597 27.7793C25.1019 27.7793 23.9376 27.0789 23.9376 27.0789L23.4394 29.4083C23.4394 29.4083 24.7806 30 26.5614 30C29.2008 30 31.2777 28.6892 31.2777 26.3413C31.2777 24.6604 29.8906 23.9255 28.7833 23.3388C28.0477 22.9491 27.4356 22.6248 27.4356 22.1321C27.4356 21.6934 27.9632 21.2127 29.0578 21.2127C30.2927 21.2127 31.3003 21.7221 31.3003 21.7221L31.7879 19.4723C31.7879 19.4723 30.6916 19 29.1454 19ZM7.05846 19.1698L7 19.5094C7 19.5094 8.01563 19.695 8.93037 20.0652C10.1082 20.4898 10.1921 20.7369 10.3904 21.5046L12.552 29.8249H15.4495L19.9134 19.1698H17.0225L14.1542 26.4143L12.9837 20.2735C12.8764 19.5707 12.3327 19.1698 11.6672 19.1698H7.05846ZM18.8081 29.8249L21.0759 19.1698H23.8246L21.5648 29.8249H18.8081ZM36.4511 19.1698C35.7863 19.1698 35.4341 19.5252 35.1757 20.1462L31.1369 29.8249H34.0278L34.5871 28.2118H38.1091L38.4492 29.8249H41L38.7747 19.1698H36.4511ZM37.684 26.0468L36.8271 22.0485L35.3882 26.0468H37.684Z" fill="white"/>
</svg>
