<svg width="48" height="48" viewBox="0 0 48 48" fill="none" xmlns="http://www.w3.org/2000/svg">
<circle cx="24" cy="24" r="24" fill="#F5C518"/>
<path d="M8 30H11.3333V18H8V30Z" fill="black"/>
<path d="M18.4482 18L17.7022 23.6056L17.2386 20.5567C17.1042 19.5801 16.9753 18.7278 16.8519 18H12.6665V30H15.4943L15.5052 22.0759L16.6956 30H18.7087L19.8387 21.9012L19.847 30H22.6665V18H18.4482Z" fill="black"/>
<path fill-rule="evenodd" clip-rule="evenodd" d="M24 18V30H29.203C30.3811 30 31.3333 29.0519 31.3333 27.8823V20.1177C31.3333 18.9466 30.3796 18 29.203 18H24ZM27.1351 20.0538C27.503 20.0538 27.7559 20.0882 27.8882 20.1597C28.0233 20.2311 28.1066 20.3423 28.144 20.4958C28.1813 20.6493 28.2015 20.996 28.2015 21.5386V26.1914C28.2015 26.9907 28.144 27.4777 28.0319 27.6577C27.9198 27.8403 27.6209 27.9277 27.1351 27.9277V20.0538Z" fill="black"/>
<path fill-rule="evenodd" clip-rule="evenodd" d="M37.8328 21.0046H37.6198C36.9033 21.0046 36.2682 21.3401 35.8561 21.8537V18H32.6665V29.8459H35.6558L35.8478 29.1122C36.24 29.6491 36.8875 30 37.6198 30H37.8328C39.03 30 39.9998 29.0634 39.9998 27.908V23.0966C39.9998 21.9418 39.0296 21.0046 37.8328 21.0046ZM36.9369 24.0127V26.8561C36.9369 27.392 36.9092 27.7322 36.8539 27.8717C36.7986 28.0111 36.5353 28.0849 36.3543 28.0849C36.1733 28.0849 35.9146 28.0087 35.8543 27.8717V26.9472V24.0127V23.0584C35.907 22.9336 36.1784 22.8596 36.3543 22.8596C36.5302 22.8596 36.7811 22.9507 36.8439 23.0926C36.9067 23.2346 36.9369 23.5429 36.9369 24.0127Z" fill="black"/>
</svg>
