<svg width="48" height="48" viewBox="0 0 48 48" fill="none" xmlns="http://www.w3.org/2000/svg">
<circle cx="24" cy="24" r="24" fill="#0057FF"/>
<path fill-rule="evenodd" clip-rule="evenodd" d="M8 34.3888V14.0192C8 13.8267 8.06354 13.7198 8.19062 13.6984C8.55056 13.6773 9.10134 13.6613 9.84297 13.6503C10.5842 13.6397 11.3892 13.629 12.2579 13.6182C13.1263 13.6077 13.9207 13.6023 14.6411 13.6021C16.3779 13.6021 17.7601 13.7946 18.7878 14.1796C19.8151 14.5645 20.6042 15.051 21.1551 15.6391C21.6641 16.1573 22.0451 16.7892 22.2673 17.4836C22.4468 18.0546 22.5431 18.649 22.5532 19.2479C22.5645 19.888 22.4567 20.5245 22.2355 21.1245C22.0537 21.6165 21.7963 22.0765 21.4728 22.4878C21.2317 22.8002 20.942 23.071 20.615 23.2897C21.067 23.5316 21.4885 23.8278 21.8701 24.1719C22.3644 24.6192 22.7689 25.1583 23.0617 25.7598C23.4236 26.5305 23.5979 27.3773 23.57 28.2298C23.5899 29.4498 23.2163 30.6432 22.5055 31.6301C21.7956 32.6139 20.7788 33.3785 19.4552 33.9237C18.1309 34.469 16.5474 34.7417 14.7046 34.7416H12.5915C11.9243 34.7416 11.3099 34.7363 10.7486 34.7256C10.187 34.7145 9.69979 34.7039 9.28691 34.6935C8.87378 34.6825 8.51895 34.6771 8.22242 34.6775C8.07392 34.6564 7.99978 34.5602 8 34.3888ZM12.2897 17.4195V21.8783H14.4504C15.0224 21.8783 15.5838 21.889 16.1346 21.9104C16.5297 21.9133 16.9236 21.9563 17.3103 22.0387C17.5908 21.7968 17.8227 21.5028 17.9934 21.1726C18.1859 20.7736 18.2787 20.333 18.2635 19.8895C18.2856 19.3856 18.1402 18.8888 17.8504 18.478C17.5425 18.092 17.1277 17.8072 16.6589 17.66C16.0161 17.4604 15.3452 17.3683 14.6729 17.3874H13.7513C13.4758 17.3874 13.2269 17.3927 13.0047 17.4034C12.7822 17.4145 12.5439 17.4198 12.2897 17.4195ZM12.2897 30.9564V25.6635L15.0225 25.6636C15.41 25.6603 15.7974 25.6818 16.1823 25.7277C16.4763 25.7643 16.768 25.8179 17.056 25.8881C17.7973 26.0807 18.3058 26.3908 18.5813 26.8183C18.8629 27.2689 19.0066 27.7934 18.9944 28.326C19.0116 28.8742 18.8309 29.41 18.486 29.8337C18.0834 30.279 17.5575 30.592 16.9766 30.7319C16.2256 30.9352 15.4503 31.0323 14.6729 31.0206C14.1643 31.0209 13.73 31.0156 13.3701 31.0045C13.0098 30.994 12.6496 30.978 12.2897 30.9564Z" fill="white"/>
<path fill-rule="evenodd" clip-rule="evenodd" d="M30.6896 29.561C30.3689 29.0509 30.1628 28.4761 30.0859 27.8769L39.5521 27.8704C39.6961 27.8653 39.8161 27.7575 39.838 27.6138C39.8433 27.5704 39.8512 27.5124 39.8606 27.4435C39.8882 27.241 39.9285 26.9453 39.9523 26.658C39.984 26.2732 39.9999 25.8455 39.9999 25.3749C39.9975 24.5473 39.8689 23.725 39.6186 22.9369C39.3615 22.1191 38.9635 21.3536 38.4429 20.6754C37.8914 19.9632 37.1773 19.3964 36.3616 19.0234C35.3963 18.5951 34.3493 18.387 33.2952 18.4139C32.1559 18.3857 31.0254 18.6217 29.9905 19.1036C29.0704 19.5538 28.2574 20.1994 27.6073 20.9962C26.9483 21.8024 26.4469 22.7277 26.1298 23.7228C25.8006 24.743 25.6343 25.8096 25.6372 26.8825C25.637 27.8651 25.7761 28.8428 26.0504 29.7856C26.3273 30.7408 26.792 31.6299 27.4167 32.4C28.0856 33.2171 28.9343 33.8652 29.8952 34.2926C30.9117 34.763 32.1722 34.9983 33.6766 34.9983C34.6143 35.0131 35.5511 34.9325 36.4728 34.7577C37.1866 34.6138 37.8803 34.3822 38.5382 34.068C38.596 34.0313 38.6449 33.9819 38.6812 33.9236C38.7177 33.849 38.7341 33.7661 38.7289 33.6831V30.6357C38.7289 30.4432 38.6758 30.3901 38.57 30.4752C37.9735 30.733 37.3499 30.9213 36.7112 31.0366C36.0345 31.1569 35.3486 31.216 34.6616 31.2131C33.6234 31.2134 32.7813 31.0637 32.1354 30.7639C31.5476 30.5139 31.045 30.0958 30.6896 29.561ZM34.2485 24.7653H30.0859C30.153 24.3053 30.2982 23.8604 30.5149 23.4501C31.0153 22.4673 32.0437 21.8758 33.1364 21.9425C34.3042 21.8976 35.3578 22.646 35.7102 23.7709C35.7881 24.0092 35.8309 24.2578 35.8373 24.5087V24.7012C35.6858 24.7332 35.5314 24.7494 35.3765 24.7493C35.1329 24.76 34.7569 24.7653 34.2485 24.7653Z" fill="white"/>
<path d="M28.0842 13H37.5851C37.7333 13 37.8078 13.0859 37.8078 13.257V15.8593C37.8179 15.9301 37.7943 16.0015 37.7442 16.0521C37.6941 16.1027 37.6234 16.1265 37.5532 16.1163H28.0524C27.9037 16.1163 27.8296 16.031 27.8296 15.8593V13.2249C27.8296 13.0753 27.9141 13 28.0842 13Z" fill="white"/>
</svg>
