<svg width="48" height="48" viewBox="0 0 48 48" fill="none" xmlns="http://www.w3.org/2000/svg">
<circle cx="24" cy="24" r="24" fill="#014CB7"/>
<path d="M30.5263 17.6431C30.5263 16.3077 28.9594 15.2039 26.8853 15.0708V22.0434C29.5219 20.5651 30.5263 19.0425 30.5263 17.6431Z" fill="white"/>
<path d="M30.26 22.6495C29.5469 22.6495 28.899 22.9156 26.8901 24.32V31.8691C30.3604 28.0601 31.3498 25.4632 31.3498 24.118C31.3498 23.1866 30.9079 22.6495 30.26 22.6495Z" fill="white"/>
<path fill-rule="evenodd" clip-rule="evenodd" d="M36.6934 14.6816C36.6583 14.5485 36.6281 14.4992 36.5578 14.4795L34.107 13.8439L33.7655 12.474C33.7655 12.4099 33.7354 12.3607 33.6651 12.3409L31.154 11.6757L30.8476 10.3699C30.8452 10.2918 30.7896 10.2251 30.712 10.2073L24.1832 9.0148C24.077 8.99507 23.968 8.99507 23.8618 9.0148L17.2928 10.2171C17.2153 10.235 17.1597 10.3017 17.1572 10.3797L16.8509 11.6954L14.3398 12.3607C14.2706 12.3607 14.2549 12.4275 14.2401 12.4906L14.2394 12.4937L13.8979 13.8636L11.442 14.4795C11.3717 14.4795 11.3416 14.5485 11.3064 14.6816C11.0995 15.7487 10.9969 16.8328 11.0001 17.919C11.0356 27.1823 15.8183 35.8066 23.7262 40.867C23.8052 40.9308 23.8979 40.9763 23.9974 41C24.0969 40.9763 24.1896 40.9308 24.2686 40.867C32.1784 35.8077 36.9631 27.1833 36.9998 17.919C37.003 16.8328 36.9004 15.7487 36.6934 14.6816ZM23.0432 36.4419C23.0432 36.5109 22.9779 36.5405 22.9076 36.4764C21.0486 34.2923 19.6903 31.7411 18.925 28.9963L17.6343 29.7946C17.2928 30.0311 17.0216 29.9326 16.8157 29.563C15.0831 26.5571 13.9581 21.6147 13.8577 18.1408C13.8517 17.9803 13.9114 17.8242 14.0234 17.7071C14.4905 17.1641 14.9938 16.6522 15.5301 16.1746C15.6305 16.0712 15.7309 16.1401 15.7309 16.3077C15.7309 20.5799 16.4792 24.5565 17.6745 27.1485C17.775 27.3505 17.8754 27.3505 18.011 27.247L18.3877 27.0154C17.5725 23.0603 17.2354 19.0246 17.3832 14.992C17.3832 14.8294 17.4134 14.7604 17.5188 14.6914C18.04 14.3727 18.5858 14.0942 19.151 13.8587C19.3218 13.7897 19.3569 13.8242 19.3569 13.9572C19.2515 20.9052 19.829 25.7145 21.0896 29.5531C21.1247 29.6517 21.2252 29.6221 21.2252 29.5186C21.1599 28.1192 21.1599 26.8824 21.1599 25.3794L21.0896 13.3905C21.0896 13.2575 21.1247 13.1885 21.2603 13.1589C21.8206 13.0224 22.3893 12.922 22.9629 12.8583C22.9904 12.8551 23.0179 12.8645 23.0375 12.8837C23.057 12.9029 23.0666 12.9299 23.0633 12.9569L23.0432 36.4419ZM24.9516 36.4419C24.9516 36.5109 25.0169 36.5405 25.0872 36.4764C31.4855 30.6668 33.424 26.3551 33.419 23.7385C33.419 22.2849 32.8515 21.1811 31.3448 20.782C32.1105 19.9474 32.5344 18.8645 32.5351 17.7416C32.5351 15.0364 29.6122 13.1737 25.0521 12.8682C25.0246 12.865 24.9971 12.8743 24.9775 12.8936C24.9579 12.9128 24.9484 12.9398 24.9516 12.9668V36.4419Z" fill="white"/>
</svg>
