<svg width="48" height="48" viewBox="0 0 48 48" fill="none" xmlns="http://www.w3.org/2000/svg">
<circle cx="24" cy="24" r="24" fill="#14A800"/>
<path fill-rule="evenodd" clip-rule="evenodd" d="M25.6682 21.4474C26.3948 18.1614 29.3615 15.8695 32.7119 16.0058L32.694 16.0326C34.6547 16.0151 36.5385 16.7966 37.9149 18.1984C39.2912 19.6002 40.0422 21.5024 39.9963 23.47C40.0596 25.4452 39.3168 27.3607 37.94 28.7732C36.5631 30.1857 34.6715 30.9728 32.7029 30.9522H32.3998C31.0902 30.9043 29.8166 30.5091 28.7086 29.8066C28.2821 29.5399 27.8767 29.2407 27.496 28.9116L26.3458 36H23.029L24.7766 25.9939C23.285 23.7982 22.1811 21.361 21.5133 18.7892V23.5685C21.5133 27.9092 18.7583 30.9433 14.8263 30.9433C12.9545 30.9912 11.1534 30.2244 9.88681 28.84C8.60423 27.3612 7.93146 25.4473 8.00553 23.4879V16.4175H11.2688V23.4879C11.2688 26.0655 12.5616 27.9629 14.8352 27.9629C17.1088 27.9629 18.2679 26.0566 18.2679 23.4879V16.4175H23.9474C24.3276 18.1546 24.905 19.8422 25.6682 21.4474ZM28.0755 25.26C29.0805 26.8717 30.8028 27.893 32.694 27.9987L32.7119 27.945C34.9765 27.945 36.7597 26.155 36.7597 23.47C36.7597 20.7851 35.0122 18.9951 32.7119 18.9951C30.4115 18.9951 28.6729 20.4808 28.0755 25.26Z" fill="white"/>
</svg>
