<svg width="48" height="48" viewBox="0 0 48 48" fill="none" xmlns="http://www.w3.org/2000/svg">
<circle cx="24" cy="24" r="24" fill="#171717"/>
<path fill-rule="evenodd" clip-rule="evenodd" d="M16.0237 8.40556C15.9429 8.37372 15.1659 8.06577 15.0543 8.0214C15.0513 8.02019 15.0447 8.01755 15.0368 8.01442C15.024 8.00944 15.0291 8.01158 15.0229 8.00912C15.0094 8.00385 15.005 8.00204 15.0002 8.00015C15.0002 8.23903 15.0001 8.59274 15 8.971C15 9.45477 15 9.96843 15 10.2237C15 10.7158 15 11.9824 15 12.4504C15 13.3537 15 20.3161 15 20.803C15 21.277 15 39.4979 15 40C17.5531 39.7 18.8298 39.5833 21.427 39.4677C21.427 38.9805 21.427 34.1492 21.427 33.4447C21.427 29.377 21.427 26.5145 21.427 24.9365C21.427 24.2725 21.427 24.0264 21.427 23.3452C21.2303 22.8015 20.3981 20.4939 20.1851 19.9128C19.7872 18.8045 17.5222 12.5488 17.3412 12.0483C17.1788 11.5993 16.7267 10.351 16.583 9.95156C16.499 9.72048 16.2797 9.11565 16.1631 8.79308C16.072 8.54086 16.0802 8.56157 16.0237 8.40556Z" fill="#AF1F1F"/>
<path fill-rule="evenodd" clip-rule="evenodd" d="M31.9765 39.5943C32.0573 39.626 32.8343 39.9342 32.9459 39.9786C32.9489 39.9797 32.9555 39.9822 32.9634 39.9854C32.9763 39.9904 32.9712 39.9883 32.9774 39.9907C32.9908 39.9961 32.9952 39.9979 33 39.9996C33.0001 39.7609 33.0002 39.4072 33.0002 39.0289C33.0002 38.545 33.0002 38.0315 33.0002 37.7763C33.0002 37.2842 33.0002 36.0174 33.0002 35.5495C33.0002 34.6463 33.0002 27.6839 33.0002 27.197C33.0002 26.7229 33.0002 8.50213 33.0002 8C32.4953 8 27.3875 8 26.5732 8C26.5732 8.4874 26.5732 13.8507 26.5732 14.5553C26.5732 18.6228 26.5732 21.4855 26.5732 23.0634C26.5732 23.7274 26.5732 23.9735 26.5732 24.6547C26.7699 25.1984 27.6021 27.506 27.8151 28.0871C28.2131 29.1955 30.478 35.4513 30.6591 35.9516C30.8214 36.4006 31.2735 37.6489 31.4172 38.0482C31.5012 38.2795 31.7205 38.8844 31.8371 39.2068C31.9282 39.4591 31.92 39.4385 31.9765 39.5943Z" fill="#AF1F1F"/>
<path fill-rule="evenodd" clip-rule="evenodd" d="M21.4269 8H15L26.3805 39.4677C29.5787 39.5467 32.9999 40 32.9999 40L21.4269 8Z" fill="#E50914"/>
</svg>
