<svg width="48" height="48" viewBox="0 0 48 48" fill="none" xmlns="http://www.w3.org/2000/svg">
<circle cx="24" cy="24" r="24" fill="#F5EBDC"/>
<path fill-rule="evenodd" clip-rule="evenodd" d="M9.80851 17.0191H38.191C38.7494 17.0191 39 16.74 39 16.2375C39 13.2588 34.273 8 24 8C13.631 8 9 13.2588 9 16.2375C9 16.74 9.25056 17.0191 9.80851 17.0191ZM24 40C29.9401 40 34.2342 39.6089 36.7372 38.2409C38.2396 37.4218 39 36.305 38.9995 35.5044C38.9995 35.0484 38.7494 34.7877 38.191 34.7877H9.80851C9.25056 34.7877 9 35.0484 9 35.5044C9 36.305 9.76046 37.4218 11.2628 38.2409C13.7658 39.6089 18.0599 40 24 40Z" fill="#FF8732"/>
<path fill-rule="evenodd" clip-rule="evenodd" d="M29.517 21.9992C29.517 23.3577 28.5638 24.2887 27.0522 24.2887C25.6175 24.2887 24.1638 23.3112 24.1643 21.2086C24.1643 19.012 25.6181 18.0625 27.1106 18.0625C27.9578 18.0625 28.5256 18.2763 28.9301 18.565C29.1512 18.7328 29.2959 18.9745 29.2959 19.2912C29.2959 19.7192 28.9492 20.1287 28.4388 20.1287C28.2373 20.1287 28.1056 20.0632 27.9621 19.9918C27.7901 19.9062 27.601 19.8121 27.2547 19.8121C26.735 19.8121 26.0608 20.1842 26.0608 21.2081C26.0608 22.1296 26.5516 22.623 27.2738 22.623C27.5053 22.623 27.7073 22.5111 27.7073 22.3438C27.7073 22.2134 27.5915 22.1575 27.4087 22.1575C27.0522 22.1575 26.5805 21.9063 26.5805 21.3849C26.5805 20.7985 27.0232 20.5378 27.5915 20.5378H27.8995C28.9776 20.5378 29.517 21.1336 29.517 21.9992ZM14.9499 29.0545C14.9499 29.0914 14.9592 29.1754 15.046 29.3057C15.2774 29.6498 15.9129 30.3945 16.4522 30.9634C16.8758 31.4099 17.0975 31.7825 17.0975 32.285C17.0975 33.0946 16.3463 33.8488 15.451 33.8488C14.9215 33.8488 14.4209 33.5786 14.0163 33.1505C13.4191 32.5082 12.7744 31.4194 12.5528 30.9075C12.5469 30.8961 12.5411 30.883 12.5348 30.869C12.5 30.7911 12.4523 30.6842 12.3218 30.6842C12.2061 30.6842 12.1581 30.7676 12.1581 30.8795V32.201C12.1581 33.1136 11.5996 33.8488 10.5886 33.8488C9.56776 33.8488 9.01911 33.113 9.01911 32.201V26.4673C9.01911 25.5548 9.56828 24.8196 10.5886 24.8196C11.5996 24.8196 12.1581 25.5553 12.1581 26.4673V27.3983C12.1581 27.5192 12.2061 27.5936 12.3218 27.5936C12.389 27.5936 12.4371 27.5751 12.5238 27.4912C12.87 27.1651 13.4093 26.346 13.8619 25.6387C14.1987 25.1083 14.6993 24.8196 15.2288 24.8196C16.057 24.8196 16.8174 25.4529 16.8174 26.2626C16.8174 26.5787 16.7017 26.9603 16.4227 27.3793C16.057 27.9282 15.3926 28.5331 15.123 28.7753C15.0077 28.8777 14.9499 28.9521 14.9499 29.0545ZM10.1262 24.2328H11.4839C12.7646 24.2328 13.5442 23.4042 13.5442 22.3713C13.5442 21.5682 13.0647 21.185 12.9303 21.0776L12.9185 21.0682L12.9167 21.0668C12.8693 21.0298 12.8225 20.9934 12.8225 20.9564C12.8225 20.9201 12.8401 20.9009 12.8707 20.8675H12.8707L12.8708 20.8675C12.8793 20.8582 12.8889 20.8477 12.8994 20.8355C13.0823 20.6307 13.2652 20.3051 13.2652 19.8301C13.2652 18.7133 12.4851 18.1175 11.2721 18.1175H10.1262C9.36577 18.1175 9 18.546 9 19.1229V23.2274C9 23.8048 9.36577 24.2328 10.1262 24.2328ZM10.6945 19.7187C10.6945 19.5979 10.7715 19.5045 10.9353 19.5045H11.0603C11.4741 19.5045 11.5996 19.7836 11.5996 20.0259C11.5996 20.2492 11.4746 20.5658 11.0603 20.5658H10.9353C10.7715 20.5658 10.6945 20.4729 10.6945 20.3515V19.7187ZM10.6945 21.8968C10.6945 21.776 10.7715 21.6826 10.9353 21.6826H11.1083C11.5707 21.6826 11.705 21.9802 11.705 22.2505C11.705 22.4927 11.5702 22.8368 11.1083 22.8368H10.9353C10.7715 22.8368 10.6945 22.7439 10.6945 22.6226V21.8968ZM36.2175 23.2738C36.2175 23.8322 35.8807 24.2792 35.2644 24.2792C34.648 24.2792 34.3112 23.8327 34.3112 23.2748V19.1234C34.3112 18.546 34.6769 18.118 35.4374 18.118H36.5254C37.7482 18.118 38.7593 18.7882 38.7593 19.9704C38.7593 20.7521 38.4126 21.2456 38.114 21.4688C38.0272 21.5337 38.0081 21.5992 38.037 21.6736C38.1621 21.9992 38.364 22.2599 38.6916 22.66C38.8647 22.8738 38.9995 23.1065 38.9995 23.4232C38.9995 23.8982 38.566 24.2797 38.0655 24.2797C37.7576 24.2797 37.4496 24.1494 37.1221 23.7303C36.8622 23.4042 36.6313 22.7619 36.5445 22.2874C36.5254 22.1755 36.4872 22.1106 36.3715 22.1106C36.2754 22.1106 36.2175 22.1666 36.2175 22.2874V23.2738ZM36.3523 19.6628C36.1886 19.6628 36.1116 19.7562 36.1116 19.877V20.5098C36.1116 20.6312 36.1886 20.7241 36.3523 20.7241H36.4872C36.8917 20.7241 37.0167 20.417 37.0167 20.1842C37.0167 19.942 36.8917 19.6628 36.4872 19.6628H36.3523ZM19.4362 24.8192C18.358 24.8192 17.7706 25.6008 17.7706 26.5782V32.0887C17.7706 33.0661 18.358 33.8478 19.4362 33.8478C20.5144 33.8478 21.1018 33.0661 21.1018 32.0887V26.5782C21.1018 25.6013 20.5149 24.8192 19.4362 24.8192ZM36.0826 28.4027H36.5544C38.1817 28.4027 38.9902 29.2683 38.9897 30.5149C38.9897 32.4882 37.555 33.8378 35.2927 33.8378C33.1359 33.8378 30.9506 32.4138 30.9506 29.3702C30.9506 26.1866 33.1364 24.8186 35.3795 24.8186C36.6313 24.8186 37.5168 25.1258 38.1042 25.5448C38.441 25.7871 38.6528 26.1407 38.6528 26.5967C38.6528 27.211 38.1331 27.8159 37.3629 27.8159C37.0606 27.8159 36.8639 27.7195 36.6496 27.6144C36.3929 27.4886 36.1108 27.3504 35.5913 27.3504C34.8118 27.3504 33.8008 27.8903 33.8008 29.3702C33.8008 30.7012 34.5421 31.4179 35.6301 31.4179C35.9576 31.4179 36.2655 31.2601 36.2655 31.0179C36.2655 30.8226 36.0827 30.7482 35.8228 30.7482C35.2933 30.7482 34.5809 30.3851 34.5809 29.6219C34.5809 28.7843 35.2354 28.4027 36.0826 28.4027ZM32.9153 24.2327C33.4546 24.2327 33.8783 23.9256 33.8783 23.3672C33.8783 22.8178 33.4546 22.5106 32.9153 22.5106H32.0489C31.8852 22.5106 31.8082 22.4177 31.8082 22.2963V22.1195C31.8082 21.9987 31.8852 21.9053 32.0489 21.9053H32.7133C33.1757 21.9053 33.5414 21.6356 33.5414 21.1606C33.5414 20.6861 33.1757 20.4159 32.7133 20.4159H32.0489C31.8852 20.4159 31.8082 20.323 31.8082 20.2016V20.0528C31.8082 19.9319 31.8852 19.8385 32.0489 19.8385H32.9153C33.4546 19.8385 33.8783 19.5314 33.8783 18.973C33.8783 18.4236 33.4546 18.1164 32.9153 18.1164H31.0958C30.3353 18.1164 29.9695 18.5444 29.9695 19.1218V23.2263C29.9695 23.8032 30.3353 24.2317 31.0958 24.2317H32.9153V24.2327ZM18.7625 22.2409C18.7625 23.3762 17.9344 24.2792 16.3747 24.2792C14.8151 24.2792 13.9967 23.3766 13.9962 22.2409V19.1043C13.9962 18.5459 14.3331 18.0989 14.9494 18.0989C15.5657 18.0989 15.9124 18.5459 15.9124 19.1043V22.1385C15.9124 22.3618 16.0281 22.6225 16.3747 22.6225C16.7214 22.6225 16.8562 22.3618 16.8562 22.1385V19.1043C16.8562 18.5459 17.193 18.0989 17.8094 18.0989C18.4257 18.0989 18.7625 18.5459 18.7625 19.1043V22.2409ZM23.1336 24.2792C23.6342 24.2792 24.0677 23.8976 24.0677 23.4227C24.0677 23.106 23.9328 22.8733 23.7598 22.6595L23.7133 22.6007C23.4532 22.2715 23.2232 21.9805 23.1052 21.6731C23.0763 21.5987 23.0954 21.5332 23.1822 21.4683C23.4808 21.245 23.8274 20.7516 23.8274 19.97C23.8274 18.7878 22.8164 18.1175 21.5936 18.1175H20.5051C19.7446 18.1175 19.3789 18.5455 19.3789 19.1229V23.2743C19.3789 23.8327 19.7157 24.2797 20.332 24.2797C20.9483 24.2797 21.2852 23.8327 21.2852 23.2743V22.2879C21.2852 22.167 21.343 22.1111 21.4391 22.1111C21.5548 22.1111 21.5931 22.176 21.6122 22.2879C21.699 22.7624 21.9299 23.4047 22.1898 23.7308C22.5173 24.1489 22.8252 24.2792 23.1336 24.2792ZM21.5543 20.7236H21.4195C21.2557 20.7236 21.1787 20.6307 21.1787 20.5094V19.877C21.1787 19.7562 21.2557 19.6628 21.4195 19.6628H21.5543C21.9588 19.6628 22.0839 19.942 22.0839 20.1842C22.0839 20.4165 21.9588 20.7236 21.5543 20.7236ZM27.1385 26.4389C27.1385 25.5358 27.6773 24.8192 28.6692 24.8192C29.6611 24.8192 30.1999 25.5358 30.1999 26.4389V32.1916C30.1999 33.1131 29.6415 33.8483 28.6304 33.8483C28.0431 33.8483 27.4944 33.625 26.984 32.666L25.646 30.1528C25.5788 30.0224 25.5209 29.976 25.444 29.976C25.338 29.976 25.2802 30.0509 25.2802 30.2182V32.2285C25.2802 33.1316 24.7414 33.8483 23.7494 33.8483C22.758 33.8483 22.2187 33.1316 22.2187 32.2285V26.4758C22.2187 25.5543 22.7772 24.8192 23.7882 24.8192C24.3947 24.8192 24.9243 25.0424 25.4346 26.0014L26.7727 28.5146C26.8399 28.645 26.8977 28.6914 26.9747 28.6914C27.0806 28.6914 27.1385 28.6165 27.1385 28.4492V26.4389Z" fill="#D62300"/>
</svg>
