<svg width="48" height="48" viewBox="0 0 48 48" fill="none" xmlns="http://www.w3.org/2000/svg">
<circle cx="24" cy="24" r="24" fill="#006241"/>
<path fill-rule="evenodd" clip-rule="evenodd" d="M23.9998 1.43134L25.2681 4.38692L28.4476 4.61129L26.0725 6.70933L27.143 9.51195C28.5088 8.11346 30.3825 7.29319 32.6194 7.05629C31.772 8.31457 31.0885 9.67583 30.5856 11.1071C31.8747 10.0704 33.456 9.46344 35.1077 9.37135C34.0409 10.7101 33.1399 12.173 32.4242 13.7281C32.3934 13.8098 32.3274 13.8733 32.2446 13.9011C32.1825 13.9219 32.1159 13.921 32.0553 13.8996L31.9971 13.8713C27.0835 11.4388 21.3374 11.378 16.3822 13.6889L16.0026 13.8713C15.9285 13.9179 15.8375 13.9289 15.7545 13.9011C15.6715 13.8734 15.6054 13.8099 15.5742 13.7281C14.8581 12.1732 13.957 10.7104 12.8906 9.37135C14.5428 9.46346 16.1247 10.0706 17.4143 11.1076C16.9103 9.67645 16.2263 8.31526 15.3788 7.05676C17.4927 7.28049 19.2803 8.02459 20.6241 9.28469L20.8567 9.51242L21.9256 6.70902L19.5519 4.61097L22.7316 4.38692L23.9998 1.43134ZM42.9603 9.28438L43.1256 9.50032C46.0513 13.3539 47.841 18.1232 47.9887 23.3165C46.4845 23.5237 45.4087 23.0326 44.3547 22.4846L43.8684 22.23L43.3763 21.9813C42.3803 21.4992 41.2964 21.1368 39.805 21.3986C40.1619 22.0415 40.4764 22.707 40.7465 23.3908C41.9631 23.2564 42.8766 23.6435 43.765 24.1082L44.4918 24.4967C45.4685 25.0136 46.5053 25.4787 47.9632 25.3153C47.9319 25.8893 47.8811 26.4579 47.8109 27.0209C46.5573 27.2289 45.6751 26.825 44.8151 26.3416L44.3853 26.0957L43.9495 25.8514C43.2128 25.4537 42.4107 25.1241 41.341 25.1707C41.5071 25.7653 41.6417 26.3681 41.7445 26.9768C42.7015 26.9762 43.4203 27.3485 44.1179 27.7601L44.7458 28.1322C45.5205 28.5779 46.3483 28.9501 47.5181 28.8049C47.3851 29.461 47.2244 30.1077 47.0361 30.745C46.1587 30.8316 45.5283 30.5012 44.9041 30.1046L44.3374 29.7392C43.6952 29.3344 42.9868 28.9686 41.9712 28.9923C41.9894 29.3257 41.9997 29.6615 41.9997 30.0002C41.9997 30.188 41.9945 30.3752 41.9894 30.5613C42.8282 30.5514 43.4288 30.8721 43.9847 31.2403L44.6016 31.6597C45.1513 32.0238 45.729 32.3293 46.5284 32.2931C46.2901 32.9376 46.0253 33.5686 45.7341 34.1862C45.2595 34.16 44.8932 33.9313 44.53 33.65L43.9744 33.2075C43.443 32.8 42.8179 32.4347 41.8253 32.5014C41.7626 32.9493 41.6843 33.3938 41.5882 33.8308C42.4906 33.7676 43.0386 34.1512 43.5223 34.5672L43.9095 34.9063C44.2514 35.1992 44.601 35.4494 45.0701 35.4975C44.7419 36.0991 44.3886 36.6836 44.0102 37.2511C43.8301 37.1549 43.6556 37.0128 43.4753 36.8508L43.0547 36.4636C42.5654 36.0203 41.9851 35.5738 41.1326 35.5288C41.281 35.0705 41.4115 34.6048 41.524 34.1318C40.038 34.1023 38.6156 33.5234 37.5314 32.5067C37.7238 31.4073 36.9997 30.2985 36.1992 29.2579L35.5139 28.3846C34.9045 27.6026 34.3961 26.8765 34.3961 26.2439C34.3961 25.54 34.5347 24.9582 34.7041 24.3664L34.9304 23.5897C35.1316 22.8758 35.3126 22.075 35.3126 20.99C35.3126 19.1774 34.4326 17.2126 33.107 15.8689C32.8598 15.6166 32.5836 15.3945 32.2841 15.2074C33.5028 16.7151 34.4402 18.5043 34.4402 20.5759C34.4402 21.6489 34.2071 22.4855 33.9585 23.2883L33.7467 23.9729C33.5412 24.6587 33.3699 25.3622 33.3699 26.2112C33.3699 27.1339 33.9565 28.0025 34.6195 28.8694L35.2232 29.6505C35.8863 30.5209 36.4728 31.4052 36.4728 32.3558C36.4728 33.0255 36.3066 33.6829 35.8063 34.7188L35.571 35.1871C35.4854 35.3517 35.3925 35.5251 35.2918 35.7086C36.6853 37.1005 38.5001 37.8595 39.6708 37.8595C40.051 37.8595 40.2553 37.7449 40.3911 37.4456C40.5082 37.1877 40.6193 36.9273 40.7244 36.6643C41.4658 36.6934 41.9711 37.1023 42.4036 37.5274L42.7776 37.9045C42.939 38.0654 43.0966 38.2114 43.2609 38.3192C42.8992 38.8057 42.5192 39.278 42.1214 39.7365C45.7832 35.5233 48 30.0206 48 24.0002C48 18.4546 46.1191 13.3482 42.9603 9.28438ZM19.7733 13.8297C19.8801 13.6968 19.7564 13.5613 19.6041 13.6731L19.5025 13.7498C17.8091 15.0587 16.8121 17.074 16.7992 19.2142C16.7992 20.4985 17.17 21.4946 17.5778 22.4373L17.9856 23.3708C18.3371 24.2002 18.63 25.0491 18.63 26.0825C18.63 27.2664 18.0037 28.154 17.3251 29.0104L16.7699 29.7096C16.166 30.4907 15.6483 31.3059 15.6483 32.3547C15.6483 33.449 16.2026 34.4468 16.8292 35.4171L17.3997 36.2847C18.0263 37.2445 18.5806 38.1975 18.5806 39.2125C18.5806 40.0667 18.1318 41.011 17.6136 42.0043L17.1386 42.9103C16.5077 44.1329 15.9404 45.408 16.0923 46.6643C15.5271 46.4676 14.9725 46.2489 14.4269 46.012C14.4449 44.7788 15.0192 43.6382 15.6158 42.5461L15.9722 41.8963C16.498 40.9292 16.9555 39.9941 16.9555 39.0589C16.9555 37.9686 16.3717 36.967 15.7349 35.9792L15.1617 35.092C14.6029 34.2045 14.13 33.3102 14.13 32.3545C14.13 31.2838 14.7679 30.4114 15.459 29.5393L15.8377 29.0624C16.5288 28.1838 17.1667 27.2695 17.1667 26.1213C17.1667 25.0898 16.9111 24.2419 16.6103 23.4227L16.2153 22.373C15.9146 21.5499 15.6589 20.6891 15.6589 19.6355C15.6589 17.3582 16.4584 15.8557 17.8386 14.2008C17.5417 14.3551 17.2656 14.5463 17.0167 14.7699C15.5099 16.1238 14.6363 18.0451 14.6066 20.0706C14.6066 21.2952 14.8734 22.2161 15.167 23.0521L15.4605 23.868C15.7135 24.5824 15.9243 25.2875 15.9243 26.1369C15.9243 27.0218 15.387 27.8289 14.7601 28.6444L14.1839 29.383C13.4795 30.2942 12.8294 31.2469 12.8294 32.3558C12.8294 33.4555 13.384 34.4803 13.989 35.4635L14.5335 36.338C15.0644 37.203 15.5136 38.0424 15.5136 38.8802C15.5136 39.6151 15.144 40.4473 14.6955 41.3245L14.3489 41.9901L13.9999 42.6676C13.5452 43.5768 13.1568 44.5049 13.1256 45.3997C12.6543 45.1589 12.1921 44.9037 11.7388 44.6342C11.8123 43.7772 12.2415 42.9932 12.7139 42.2198L13.0713 41.6407C13.605 40.7722 14.0943 39.8973 14.0943 38.927L14.0819 38.6821C14.025 38.1213 13.783 37.6353 13.5482 37.2257L13.449 37.0563L13.5101 37.2729C13.8114 38.4963 13.326 39.5034 12.678 40.4602L12.4436 40.796L11.8867 41.561C11.3305 42.3318 10.8276 43.1121 10.7194 43.9923C10.1127 43.5886 9.52637 43.1585 8.96031 42.7018C9.22194 42.2499 9.62308 41.698 10.0775 41.3894C9.86514 41.1355 9.6594 40.8751 9.46291 40.6081C8.92774 40.9324 8.45114 41.5391 8.14394 42.0143C7.65559 41.5834 7.1829 41.1328 6.73104 40.664L6.95201 40.3827L7.1968 40.0792C7.54065 39.6706 7.95762 39.267 8.48621 39.1239C8.30271 38.8138 8.1287 38.4982 7.9642 38.1771C7.25505 38.3634 6.71924 38.9226 6.29697 39.4072L5.94598 39.8112C5.53985 39.3475 5.15142 38.8693 4.78066 38.3766C7.99725 42.6698 12.6187 45.8497 17.9634 47.2344C17.7264 45.894 18.2676 44.5787 18.8926 43.3059L19.473 42.1435C19.9428 41.1858 20.3357 40.2564 20.3357 39.3632C20.3357 38.2327 19.7635 37.2236 19.1166 36.2427L18.5276 35.3649C17.8807 34.3926 17.3084 33.4205 17.3084 32.3556C17.3084 31.3578 17.777 30.6249 18.3323 29.9049L18.9542 29.1125C19.5738 28.3009 20.1314 27.3955 20.1314 26.0691C20.1314 24.9441 19.7163 23.9001 19.255 22.8582L18.9062 22.0759C18.4449 21.03 18.0297 19.9664 18.0297 18.8061C18.0297 16.6826 18.6366 15.2489 19.7733 13.8297ZM26.394 26.6508C26.2709 26.5571 26.1137 26.5203 25.9618 26.5497C25.8787 26.5648 25.7914 26.5871 25.6985 26.6135L25.2397 26.7494C24.9035 26.8442 24.5014 26.9337 23.9998 26.9337C23.4983 26.9337 23.0961 26.8442 22.7597 26.7494L22.3002 26.6135C22.2072 26.5871 22.1196 26.5648 22.0363 26.5497C21.8846 26.5205 21.7276 26.5574 21.6048 26.6511C21.482 26.7448 21.405 26.8865 21.3931 27.0405L21.344 27.3338C21.1852 28.0934 20.812 28.6787 20.4013 29.22L19.7791 30.0152C19.2741 30.6775 18.8488 31.3728 18.8488 32.3556C18.8488 33.3984 19.441 34.4013 20.1105 35.4037L20.7199 36.3068C21.3894 37.3125 21.9816 38.3295 21.9816 39.3972C21.9816 40.1785 21.6477 40.9863 21.2321 41.8516L20.8428 42.6467L20.579 43.1965C19.9711 44.4991 19.4505 45.9445 19.7095 47.6172L20.363 47.7262C21.549 47.9065 22.7636 48 24 48C25.6546 48 27.27 47.8326 28.8309 47.5129C28.6509 47.5496 28.4702 47.5844 28.2887 47.6172C28.5476 45.9445 28.027 44.4991 27.4192 43.1965L27.1553 42.6467L26.8929 42.1129L26.6441 41.5937C26.287 40.825 26.0165 40.1003 26.0165 39.3972C26.0165 38.3295 26.609 37.3125 27.2787 36.3068L27.8884 35.4037C28.5581 34.4013 29.1506 33.3984 29.1506 32.3556C29.1506 31.3728 28.7253 30.6775 28.2203 30.0152L27.7536 29.4212C27.2319 28.7558 26.7343 28.0471 26.6063 27.0405L26.5914 26.9498C26.5615 26.8315 26.4924 26.7258 26.394 26.6508ZM28.2264 13.831C28.1194 13.6977 28.2433 13.5623 28.3942 13.6744L28.4958 13.7511C30.19 15.0595 31.1875 17.0749 31.2003 19.2154C31.2003 20.4997 30.8295 21.4958 30.4217 22.4385L30.0139 23.372C29.6624 24.2014 29.3695 25.0503 29.3695 26.0837C29.3695 27.2678 29.9959 28.1551 30.6744 29.0114L31.0463 29.477C31.7249 30.3308 32.3512 31.2019 32.3512 32.3559C32.3512 33.4507 31.7967 34.4485 31.1698 35.4187L30.5991 36.2862C29.9723 37.2459 29.4177 38.1987 29.4177 39.2137C29.4177 39.9825 29.7814 40.8243 30.232 41.7091L30.8601 42.9115C31.4912 44.1341 32.0584 45.4093 31.906 46.6656C32.471 46.4689 33.0258 46.2502 33.5714 46.0133C33.5552 44.9033 33.0882 43.8685 32.5597 42.8765L31.8529 41.5763C31.403 40.7226 31.0414 39.8915 31.0414 39.0601C31.0414 38.1376 31.4597 37.2783 31.9746 36.4372L32.2631 35.98L32.6477 35.3883C33.2852 34.403 33.8695 33.417 33.8695 32.3558C33.8695 31.383 33.3423 30.5737 32.7273 29.7792L32.1619 29.0641C31.4709 28.1852 30.833 27.2703 30.833 26.1214C30.833 25.0893 31.0886 24.2414 31.3894 23.4222L31.7844 22.3727C32.0852 21.5498 32.3409 20.6892 32.3409 19.6357C32.3409 17.3583 31.5413 15.8559 30.1611 14.2009C30.4575 14.3552 30.7332 14.5464 30.9816 14.7699C32.4888 16.1235 33.3623 18.045 33.3912 20.0706C33.3912 21.2952 33.1249 22.2161 32.8319 23.0521L32.5389 23.8679C32.2864 24.5824 32.076 25.2874 32.076 26.1369C32.076 27.0218 32.6133 27.829 33.2402 28.6445L33.8165 29.3831C34.5209 30.2943 35.1711 31.247 35.1711 32.3558C35.1711 33.3454 34.722 34.2745 34.1912 35.1672L33.8293 35.7572L33.6468 36.0487L33.294 36.6255C32.8423 37.3896 32.4875 38.1356 32.4875 38.8804C32.4875 39.6156 32.857 40.4478 33.3055 41.325L33.828 42.328C34.3532 43.3446 34.8403 44.3932 34.8755 45.3998C33.3499 46.1771 31.7297 46.7958 30.037 47.2344C30.2553 45.9968 29.8108 44.7808 29.2494 43.5999L28.9616 43.0124L28.5264 42.1431C28.0566 41.1854 27.6636 40.2562 27.6636 39.3632C27.6636 38.2327 28.2357 37.2236 28.8824 36.2428L29.4711 35.3652C30.1178 34.393 30.6899 33.4212 30.6899 32.3569C30.6899 31.3595 30.2213 30.6268 29.666 29.9067L29.2 29.3153C28.5213 28.4504 27.8669 27.5073 27.8669 26.0704C27.8669 24.9454 28.282 23.9014 28.7433 22.8595L29.0921 22.0771C29.5534 21.0313 29.9685 19.9677 29.9685 18.8074C29.9685 16.6838 29.3617 15.2501 28.2264 13.831ZM34.4811 37.309L34.55 37.0563L34.452 37.2258C34.1845 37.694 33.9068 38.2618 33.9068 38.9272C33.9068 39.7896 34.2932 40.5768 34.7537 41.3511L35.2865 42.2201C35.7585 42.9935 36.1875 43.7775 36.261 44.6344C35.9877 44.7969 35.7112 44.9543 35.4316 45.1065L34.9128 45.3812C35.0869 45.2915 35.2598 45.2 35.4316 45.1065L35.5167 45.0614C36.1154 44.7333 36.6987 44.3804 37.265 44.0042L37.2817 43.9924L37.2427 43.7548C37.0656 42.892 36.5246 42.121 35.9613 41.3511L35.5447 40.7792C34.799 39.7351 34.166 38.6523 34.4811 37.309ZM40.0369 38.1772C40.6743 38.3449 41.1718 38.8146 41.5732 39.2602L42.0553 39.8114C40.8083 41.2349 39.3951 42.5096 37.8464 43.6054L37.7992 43.6379C38.2232 43.3388 38.6367 43.0269 39.0395 42.702C38.7792 42.2507 38.3782 41.6982 37.9224 41.3896C38.1354 41.1357 38.3403 40.8753 38.5369 40.6083C39.0721 40.9326 39.55 41.5393 39.8559 42.0145C40.345 41.5836 40.8169 41.133 41.2688 40.6642L40.9292 40.2324C40.5624 39.7757 40.1083 39.285 39.5136 39.124C39.6971 38.814 39.873 38.499 40.0369 38.1772ZM37.3251 43.9641C37.4846 43.8571 37.6426 43.7484 37.7992 43.6379L37.3251 43.9641ZM15.715 15.2073L15.5267 15.4476C14.4009 16.9041 13.5607 18.6131 13.5607 20.5757C13.5607 21.6488 13.7938 22.4857 14.0424 23.2887L14.2543 23.9734C14.4598 24.6593 14.631 25.3627 14.631 26.211C14.631 27.0409 14.1557 27.8274 13.5771 28.6084L13.1801 29.1287L12.777 29.6498C12.1136 30.5205 11.5268 31.4051 11.5268 32.3556C11.5268 33.2175 11.801 34.0574 12.7091 35.7084C11.3159 37.1003 9.5008 37.8594 8.32885 37.8594C7.94979 37.8594 7.74547 37.7448 7.60862 37.4454C7.49192 37.1876 7.38081 36.9272 7.27528 36.6641C6.60734 36.6903 6.13135 37.0241 5.72752 37.4005L5.46768 37.6549L5.22133 37.9044C5.05984 38.0652 4.90209 38.2112 4.73756 38.3191C4.07859 37.4339 3.47934 36.5022 2.94554 35.5294C3.27114 36.1178 3.61866 36.6919 3.98789 37.251C4.16775 37.1548 4.34205 37.0129 4.52234 36.8509L4.943 36.4638C5.43246 36.0205 6.01356 35.5739 6.86678 35.5287C6.71835 35.0712 6.58819 34.6055 6.47629 34.1316C7.96227 34.102 9.38462 33.5231 10.4689 32.5065C10.2897 31.4857 10.9007 30.4567 11.6295 29.4818L11.9717 29.0359L12.4844 28.3844C13.0935 27.6024 13.6017 26.8763 13.6017 26.2437C13.6017 25.5401 13.4633 24.9584 13.2941 24.3666L13.0681 23.5897C12.8672 22.8758 12.6864 22.0748 12.6864 20.9898C12.6864 19.1772 13.5659 17.2124 14.8941 15.8687C15.0794 15.6795 15.2811 15.5073 15.4967 15.354L15.715 15.2073ZM6.65886 25.1707L6.34565 25.1677C5.32707 25.1933 4.55596 25.5641 3.8302 25.9723L3.39858 26.2192L2.96813 26.4602C2.17414 26.8878 1.3372 27.2114 0.188304 27.0211C0.418071 28.8506 0.853771 30.616 1.47134 32.2931L1.47131 32.2931L1.47914 32.3143C1.88591 33.4157 2.37116 34.4791 2.92806 35.4974C3.39726 35.449 3.74717 35.1987 4.08921 34.9059L4.47657 34.5668C4.96032 34.1509 5.50821 33.7675 6.40991 33.8307C6.31471 33.3932 6.23533 32.9492 6.17286 32.5012C5.09063 32.4285 4.44475 32.8698 3.88089 33.3192L3.60414 33.5422L3.33123 33.7526C3.01123 33.9852 2.67894 34.1631 2.26403 34.1861C1.97733 33.576 1.7157 32.9521 1.47914 32.3143L1.47134 32.2931C2.27067 32.3299 2.84816 32.0245 3.39762 31.6603L4.01418 31.2408C4.56989 30.8724 5.17025 30.5514 6.00908 30.5613C6.00251 30.3751 6 30.1888 6 30.0002C6 29.6615 6.01033 29.3257 6.02865 28.9923C5.01304 28.9686 4.3046 29.3344 3.66223 29.7392L3.09543 30.1046C2.471 30.5012 1.84032 30.8316 0.962292 30.745C0.775971 30.1082 0.615798 29.4616 0.481772 28.8049C1.65085 28.9499 2.47845 28.5776 3.25311 28.1319L3.88095 27.7599C4.57843 27.3484 5.29717 26.9762 6.25396 26.9768C6.35589 26.3678 6.49106 25.7649 6.65886 25.1707ZM0.010728 23.3166C1.39837 23.5075 2.4214 23.1036 3.39931 22.6094L4.374 22.1037C5.43925 21.5637 6.57653 21.115 8.19201 21.3986C7.83583 22.0416 7.52202 22.707 7.25258 23.3908C6.03624 23.2564 5.12264 23.6435 4.23421 24.1082L3.50731 24.4967C2.53059 25.0137 1.49376 25.4787 0.0364813 25.3153L0.0298869 25.2079C0.0100321 24.8079 0 24.4052 0 24.0002L0.000804858 23.8016L0.010728 23.3166ZM28.583 15.9669C28.0934 14.3387 26.2276 13.0789 23.9998 13.0789C21.772 13.0789 19.9061 14.3393 19.4165 15.9669C19.3788 16.0921 19.4295 16.1726 19.574 16.1078C20.0011 15.9245 20.4622 15.8337 20.927 15.8416C21.8359 15.8416 22.6366 16.1762 23.1093 16.7557C23.3202 17.4471 23.3371 18.4484 23.1002 19.0186C22.9934 18.9948 22.9061 18.9541 22.8273 18.9081L22.6057 18.7658C22.4969 18.6983 22.3827 18.645 22.2265 18.645C22.105 18.645 21.9924 18.6737 21.8734 18.7118L21.6222 18.7953C21.4428 18.8518 21.2337 18.9027 20.9583 18.9027C20.6158 18.9027 20.4403 18.8133 20.2833 18.7332C20.1562 18.6684 20.0412 18.6098 19.8594 18.6098C19.3802 18.6098 19.2917 19.1033 19.2917 19.6605C19.2917 22.1423 21.573 25.559 24 25.559C26.427 25.559 28.708 22.1423 28.708 19.6605C28.708 19.1033 28.5935 18.6272 28.0922 18.5617C27.7975 18.8039 27.4222 18.9258 27.0414 18.9027C26.7659 18.9027 26.5792 18.8518 26.4246 18.7953L26.2098 18.7118C26.1074 18.6737 26.0071 18.645 25.8851 18.645C25.7158 18.645 25.6182 18.7825 25.5323 18.9547L25.431 19.1715C25.3277 19.3917 25.2067 19.6027 24.9645 19.6267C24.6175 18.7881 24.5994 17.7141 24.8896 16.7557C25.363 16.1764 26.1638 15.8416 27.0726 15.8416C27.5369 15.8333 27.9977 15.9241 28.4243 16.1078L28.4804 16.127C28.5814 16.1488 28.6143 16.0743 28.583 15.9669ZM25.7419 22.2602C25.1682 22.3726 24.5844 22.4245 24 22.4153C23.5324 22.4228 23.0651 22.3911 22.6032 22.3206L22.2578 22.2602C22.1846 22.2879 22.1264 22.3451 22.0976 22.4179C22.1922 22.4907 22.2812 22.5807 22.3703 22.679L22.644 22.9897C22.9612 23.3423 23.3433 23.6861 24 23.6861C24.6567 23.6861 25.0387 23.3424 25.3556 22.9898L25.6288 22.6791C25.7178 22.5808 25.8065 22.4907 25.9008 22.4179C25.8723 22.3454 25.8146 22.2882 25.7419 22.2602ZM42.5701 11.7476L42.3546 11.905C41.1544 12.8273 40.3172 14.2627 40.0493 15.8687C38.2211 14.6944 36.083 14.5275 34.3161 15.2503C36.1371 16.5269 37.7072 18.1283 38.9476 19.9742C40.4578 19.4506 41.7409 19.8118 42.9295 20.3169L43.4335 20.54L44.1728 20.8794C45.2295 21.356 46.2454 21.7286 47.3266 21.4038C44.7446 18.6638 42.6451 15.5432 42.9216 11.9521L42.9258 11.8981C42.9224 11.8268 42.8833 11.7603 42.8195 11.7232C42.7398 11.6768 42.6393 11.6867 42.5701 11.7476ZM5.18001 11.7227C5.24423 11.6859 5.32152 11.6851 5.3854 11.7175L5.43039 11.7481C6.7456 12.659 7.66671 14.1682 7.94854 15.8687C9.77668 14.6941 11.9161 14.5275 13.6817 15.2503C11.8609 16.5272 10.2906 18.1283 9.0494 19.9737C7.43203 19.4128 6.07503 19.8675 4.81553 20.4266L3.82564 20.8789C2.7691 21.3556 1.75318 21.7281 0.671851 21.4033C3.17319 18.7482 5.2224 15.7374 5.09466 12.2869L5.07544 11.9516C5.05768 11.8608 5.09973 11.7688 5.18001 11.7227ZM24.3339 20.7146C24.4025 20.6899 24.4649 20.6674 24.5546 20.6679C24.7447 20.6692 25.1126 20.8189 25.192 20.9582C25.1872 21.0287 25.1582 21.0954 25.1099 21.147C25.0037 21.1633 24.912 21.1903 24.8265 21.2217L24.5803 21.3225C24.4175 21.3898 24.2461 21.4491 23.9995 21.4491C23.7529 21.4491 23.5818 21.3898 23.4189 21.3225L23.1724 21.2217C23.0867 21.1903 22.9946 21.1633 22.8879 21.147C22.8404 21.095 22.812 21.0284 22.8072 20.9582C22.8866 20.8189 23.255 20.6692 23.4451 20.6679C23.535 20.6674 23.5974 20.6899 23.6661 20.7147C23.7488 20.7445 23.8405 20.7775 23.9998 20.7775C24.1594 20.7775 24.2512 20.7444 24.3339 20.7146ZM27.5465 16.6395C28.208 16.6395 28.535 16.8622 28.5348 17.1858C28.5343 17.4164 28.4271 17.6337 28.2444 17.7743C27.8329 17.3139 26.9774 17.3264 26.0087 17.6583C25.9533 17.5264 25.9473 17.3789 25.9918 17.2429C26.3469 16.8481 26.8897 16.6757 27.3838 16.6452L27.5465 16.6395ZM22.2289 17.7039C22.2732 17.1949 21.363 16.6401 20.4529 16.6401C19.7913 16.6401 19.4632 16.8628 19.4632 17.1858C19.4639 17.4165 19.5718 17.6337 19.755 17.7743L19.8484 17.6924C20.3446 17.3107 21.2708 17.35 22.2289 17.7039ZM23.9998 8.31919L26.4865 10.2112C26.5805 10.2802 26.5335 10.3974 26.4137 10.3765C24.8164 10.0989 23.1832 10.0989 21.586 10.3765C21.4662 10.3974 21.4192 10.2802 21.5118 10.2112L23.9998 8.31919Z" fill="white"/>
</svg>
