<svg width="48" height="48" viewBox="0 0 48 48" fill="none" xmlns="http://www.w3.org/2000/svg">
<circle cx="24" cy="24" r="24" fill="black"/>
<path fill-rule="evenodd" clip-rule="evenodd" d="M9.64002 25.6715V19H8V25.7509C8 28.2924 9.79998 29.9603 12.12 29.9603C13.24 29.9603 14.28 29.5235 15 28.769V29.7617H16.6V19H14.96V25.6715C14.96 27.3791 13.8 28.5307 12.28 28.5307C10.8 28.5307 9.64002 27.4188 9.64002 25.6715ZM22.16 23.1697C20.68 23.1697 19.44 24.4007 19.44 25.9097C19.44 27.4188 20.64 28.6101 22.16 28.6498C23.64 28.6498 24.88 27.4188 24.88 25.9097C24.88 24.361 23.64 23.1697 22.16 23.1697ZM33.48 25.1552C33.24 23.9639 32.24 23.1697 31.08 23.1697C29.92 23.1697 28.96 23.9639 28.68 25.1552H33.48ZM19.44 29.8015H17.92V19.0397H19.48V22.9711C20.2 22.2166 21.16 21.7798 22.28 21.7798C24.6 21.7798 26.44 23.6462 26.44 25.9097C26.44 28.1733 24.6 30 22.28 30C21.16 30 20.16 29.5235 19.44 28.8087V29.8015ZM27.08 25.87C27.08 28.213 28.92 29.9603 31.28 29.9603C32.72 29.9603 33.92 29.3249 34.68 28.2924L33.56 27.4585C32.96 28.2527 32.2 28.6101 31.28 28.6101C29.96 28.6101 28.88 27.657 28.64 26.3863H35.08V25.87C35.08 23.5271 33.4 21.7798 31.12 21.7798C28.8 21.7798 27.08 23.6462 27.08 25.87ZM40 21.8592V23.3285V23.3682H39.32C38.32 23.3682 37.56 24.1227 37.56 25.3538V29.8014H36V21.9386H37.56V22.8917C37.92 22.2563 38.56 21.8592 39.44 21.8592H40Z" fill="white"/>
</svg>
