<svg width="48" height="48" viewBox="0 0 48 48" fill="none" xmlns="http://www.w3.org/2000/svg">
<circle cx="24" cy="24" r="24" fill="black"/>
<path d="M16.7213 15.965H8.55908L18.1748 22.9794C19.5725 22.033 21.1937 21.0309 22.6473 20.1959L16.7213 15.965Z" fill="white"/>
<path d="M28.573 24.7052C27.1754 25.6515 25.7778 26.7093 24.436 27.7113L31.7038 33H39.9219L28.573 24.7052Z" fill="white"/>
<path d="M45.8199 13.9915L45.6472 14.0606C35.9598 17.9869 25.7074 23.793 16.9006 32.3818L16.274 33H8L8.95039 32.1093L9.49469 31.5859L10.3052 30.8289L10.7759 30.4017L11.6588 29.6235L12.4549 28.9457L13.105 28.4079L13.801 27.8467L14.5434 27.2638L15.0644 26.864L15.6063 26.4558L16.4586 25.8289L17.0535 25.402L17.6697 24.9684L18.3074 24.5288L18.9668 24.0836L19.648 23.6332L20.3511 23.1783C20.4701 23.1021 20.5901 23.0258 20.7109 22.9493L21.4472 22.4884C21.5717 22.4113 21.6972 22.3341 21.8236 22.2567L22.5933 21.791L23.3853 21.3228C23.5192 21.2445 23.6541 21.1662 23.7898 21.0878L24.6158 20.6167L25.4646 20.1442C25.7513 19.9866 26.0419 19.8288 26.3362 19.6709L27.2309 19.1974L28.1488 18.724L29.0899 18.2513L30.0544 17.7799C30.2171 17.7014 30.3808 17.6231 30.5455 17.5448L31.5454 17.0761C32.2199 16.7644 32.9103 16.4544 33.6166 16.1467L34.6881 15.687C35.9523 15.1529 37.2657 14.6269 38.6293 14.1127L39.8105 13.6749C40.805 13.3126 41.8254 12.9569 42.8718 12.6089L44.14 12.1953C44.3535 12.127 44.568 12.059 44.7835 11.9914C45.16 12.6403 45.5056 13.3073 45.8199 13.9915Z" fill="white"/>
</svg>
