<svg width="48" height="48" viewBox="0 0 48 48" fill="none" xmlns="http://www.w3.org/2000/svg">
<circle cx="24" cy="24" r="24" fill="#0085BE"/>
<path fill-rule="evenodd" clip-rule="evenodd" d="M24 42C14.0589 42 6 33.9411 6 24C6 14.0589 14.0589 6 24 6C33.9411 6 42 14.0589 42 24C42 33.9411 33.9411 42 24 42ZM8.38154 24C8.38154 30.1892 11.9815 35.52 17.1877 38.0538L9.73846 17.6446C8.84397 19.644 8.38158 21.8097 8.38154 24ZM29.1923 38.7323C27.5585 39.3 25.8138 39.6185 24 39.6185C22.4631 39.6185 20.9815 39.3969 19.5969 38.9815L24.2769 25.3708L29.0815 38.5246L29.1923 38.7323ZM26.1462 16.6754L31.7954 33.4708L33.36 28.2646C33.4093 28.1044 33.4577 27.9476 33.5052 27.7939C34.0978 25.8757 34.5369 24.4542 34.5369 23.2108C34.5369 21.2723 33.8446 19.9431 33.2631 18.9185C33.2102 18.8328 33.1577 18.7481 33.1056 18.6641C32.3666 17.4722 31.7262 16.4393 31.7262 15.2492C31.7262 13.8092 32.8062 12.48 34.3569 12.48H34.5508C31.6729 9.83803 27.9067 8.37503 24 8.38154C18.7453 8.38056 13.843 11.0243 10.9569 15.4154L11.9538 15.4431C13.5877 15.4431 16.1077 15.2354 16.1077 15.2354C16.9662 15.1938 17.0631 16.4262 16.2185 16.5231C16.2185 16.5231 15.3738 16.6338 14.4185 16.6754L20.1231 33.5954L23.5431 23.3492L21.1062 16.6754C20.5603 16.6453 20.0154 16.5991 19.4723 16.5369C18.6277 16.4815 18.7246 15.1938 19.5692 15.2354C19.5692 15.2354 22.1446 15.4431 23.6815 15.4431C25.3154 15.4431 27.8354 15.2354 27.8354 15.2354C28.68 15.1938 28.7908 16.4262 27.9462 16.5231C27.9462 16.5231 27.1015 16.62 26.1462 16.6754ZM39.6185 24C39.6178 29.5621 36.6591 34.7042 31.8508 37.5L36.6277 23.7092C37.5838 21.4372 37.9551 18.9618 37.7077 16.5092C38.9262 18.7385 39.6185 21.2862 39.6185 24Z" fill="white"/>
</svg>
