<svg width="48" height="48" viewBox="0 0 48 48" fill="none" xmlns="http://www.w3.org/2000/svg">
<circle cx="24" cy="24" r="24" fill="#2C2C2C"/>
<path d="M19 39C21.76 39 24 36.76 24 34V29H19C16.24 29 14 31.24 14 34C14 36.76 16.24 39 19 39Z" fill="#0ACF83"/>
<path d="M14 24C14 21.24 16.24 19 19 19H24V29H19C16.24 29 14 26.76 14 24Z" fill="#A259FF"/>
<path d="M14 14C14 11.24 16.24 9 19 9H24V19H19C16.24 19 14 16.76 14 14Z" fill="#F24E1E"/>
<path d="M24 9H29C31.76 9 34 11.24 34 14C34 16.76 31.76 19 29 19H24V9Z" fill="#FF7262"/>
<path d="M34 24C34 26.76 31.76 29 29 29C26.24 29 24 26.76 24 24C24 21.24 26.24 19 29 19C31.76 19 34 21.24 34 24Z" fill="#1ABCFE"/>
</svg>
