<svg width="48" height="48" viewBox="0 0 48 48" fill="none" xmlns="http://www.w3.org/2000/svg">
<circle cx="24" cy="24" r="24" fill="black"/>
<path d="M19.3968 30.9372H15.8905V25.9907H13.6144V30.9372H10V18.1884H13.6144V22.9309H15.8905V18.1884H19.3968V30.9372Z" fill="white"/>
<path fill-rule="evenodd" clip-rule="evenodd" d="M42 24.4713C42.0008 28.0367 39.0655 30.9986 35.4585 31C31.8557 31.0013 30.079 28.4056 29.5669 27.3686C29.5642 29.0162 27.9676 30.9377 25.7238 30.9377L20.1587 30.9366V18.2117H26.1277C27.9804 18.2137 29.5642 20.0883 29.56 21.6765C30.0148 20.6185 31.8557 17.9974 35.4585 18C39.0655 18.0027 41.9993 20.8307 42 24.4713ZM26.1845 22.1199C26.1845 21.5473 25.7789 21.0448 25.2639 21.0448H23.4938V23.1954H25.2639C25.7789 23.1954 26.1845 22.6926 26.1845 22.1199ZM35.4606 21.2349C33.6506 21.2349 32.1834 22.6851 32.1834 24.4738C32.1834 26.2628 33.6506 27.713 35.4606 27.713C37.2706 27.713 38.7381 26.2628 38.7381 24.4738C38.7381 22.6851 37.2706 21.2349 35.4606 21.2349ZM38.0369 24.4738C38.0369 25.8803 36.8834 27.0201 35.4606 27.0201C34.0377 27.0201 32.8843 25.8803 32.8843 24.4738C32.8843 23.0677 34.0377 21.9277 35.4606 21.9277C36.8834 21.9277 38.0369 23.0677 38.0369 24.4738ZM27.62 24.4738C28.0255 24.4231 28.7015 23.9648 28.9396 23.6723C28.856 24.035 28.8496 25.0847 28.9474 25.4474C28.6756 25.0338 28.032 24.5248 27.62 24.4738ZM25.2575 25.8226C25.7724 25.8226 26.1781 26.3254 26.1781 26.8978C26.1781 27.4705 25.7724 27.9731 25.2575 27.9731H23.4873V25.8226H25.2575Z" fill="white"/>
<path fill-rule="evenodd" clip-rule="evenodd" d="M41.2084 19.7585C41.6352 19.7585 41.9999 19.4261 41.9999 18.9714C41.9999 18.5208 41.6352 18.1884 41.2084 18.1884C40.7773 18.1884 40.4126 18.5208 40.4126 18.9714C40.4126 19.4261 40.7773 19.7585 41.2084 19.7585ZM41.2 19.0336H41.0426V19.4261H40.9058V18.5208H41.2497C41.4632 18.5208 41.5688 18.5997 41.5688 18.7782C41.5688 18.9403 41.4673 19.0108 41.3347 19.0274L41.5917 19.4261H41.4383L41.2 19.0336ZM41.0426 18.637V18.9174H41.2062C41.3222 18.9174 41.4259 18.9091 41.4259 18.7699C41.4259 18.6577 41.3243 18.637 41.2289 18.637H41.0426ZM41.2084 18.3193C40.8497 18.3193 40.5701 18.5997 40.5701 18.9714C40.5701 19.3493 40.8497 19.6276 41.2084 19.6276C41.5627 19.6276 41.8424 19.3493 41.8424 18.9714C41.8424 18.5997 41.5627 18.3193 41.2084 18.3193Z" fill="white"/>
</svg>
