<svg width="48" height="48" viewBox="0 0 48 48" fill="none" xmlns="http://www.w3.org/2000/svg">
<circle cx="24" cy="24" r="24" fill="#148EFF"/>
<path fill-rule="evenodd" clip-rule="evenodd" d="M17.9078 16.93C23.3863 16.4867 29.2116 17.6777 33.2605 19.5523C34.3274 16.8979 34.8555 14.6868 34.6634 12.6253C34.6581 12.5505 34.6581 12.3743 34.7488 12.3743C34.8715 12.3743 34.9728 12.6307 35.0102 12.7375C35.661 14.8043 35.4796 17.3412 34.5514 20.1985C38.2269 22.1639 40.3393 24.7168 39.9552 27.0987C39.4538 30.2284 34.8555 32.071 28.6781 31.8573C29.2809 31.2111 30.1025 30.2605 30.7426 29.422C33.1271 28.9627 34.8341 28.0173 35.2822 26.5059C35.6076 25.4057 34.8555 24.188 33.4205 23.0398C31.068 28.012 27.1258 32.4662 23.477 35.0404C25.2427 37.2942 26.8858 38.8591 28.7635 39.7349C28.8328 39.767 28.9875 39.8524 28.9395 39.9326C28.8809 40.034 28.6088 39.9966 28.4968 39.9753C26.3843 39.5053 24.2772 38.0793 22.2714 35.8469C18.7347 38.0526 15.4753 38.6027 13.6029 37.0806C11.1437 35.0778 11.8478 30.1697 15.1339 24.9197C15.3899 25.7635 15.8007 26.9545 16.2061 27.9266C15.4166 30.2231 15.3793 32.1778 16.4622 33.3207C17.2463 34.1539 18.6813 34.1111 20.3884 33.4382C17.2624 28.9093 15.3846 23.2641 14.9792 18.8152C12.1466 19.2211 9.97011 19.862 8.27374 21.053L8.26998 21.0553C8.19931 21.0989 8.05951 21.1851 8.01235 21.1064C7.95367 21.0049 8.11904 20.786 8.19373 20.7005C9.66071 19.1036 11.9492 17.9928 14.8832 17.3679C14.7445 13.1968 15.8967 10.0938 18.1479 9.23394C21.1085 8.1017 25.0027 11.1619 27.9046 16.6255C27.0405 16.4279 25.8029 16.1876 24.7626 16.0541C23.173 14.2222 21.5033 13.2128 19.9723 13.5813C18.8627 13.8483 18.1799 15.1141 17.9078 16.93ZM17.7691 18.5856C17.7638 23.5845 19.2681 28.5301 21.882 32.7279C26.2136 30.2391 29.7344 26.4578 32.0602 22.0945C27.7393 19.5843 22.7089 18.42 17.7691 18.5856Z" fill="white"/>
</svg>
