<svg width="48" height="48" viewBox="0 0 48 48" fill="none" xmlns="http://www.w3.org/2000/svg">
<circle cx="24" cy="24" r="24" fill="#026AA7"/>
<path fill-rule="evenodd" clip-rule="evenodd" d="M33.1508 12H14.853C13.2788 12 12.0022 13.2758 12 14.8509V33.1337C11.997 33.8928 12.2962 34.6219 12.8316 35.1598C13.3669 35.6977 14.0943 36 14.853 36H33.1508C33.9088 35.999 34.6352 35.6962 35.1698 35.1584C35.7043 34.6207 36.003 33.8922 35.9999 33.1337V14.8509C35.9978 13.2773 34.7235 12.0021 33.1508 12ZM22.3505 29.2863C22.3495 29.54 22.2475 29.7829 22.0672 29.9612C21.8868 30.1396 21.6428 30.2387 21.3893 30.2366H17.3906C16.8676 30.2345 16.4447 29.8097 16.4447 29.2863V17.3786C16.4447 16.8553 16.8676 16.4305 17.3906 16.4283H21.3893C21.9129 16.4305 22.3369 16.8547 22.339 17.3786L22.3505 29.2863ZM31.2961 24.4953C31.4767 24.3167 31.5783 24.0732 31.5783 23.8192L31.5629 17.3786C31.5629 16.8553 31.14 16.4305 30.617 16.4283H26.6184C26.0947 16.4305 25.6708 16.8547 25.6687 17.3786V23.8192C25.6708 24.3431 26.0947 24.7674 26.6184 24.7695H30.617C30.8709 24.7726 31.1154 24.6738 31.2961 24.4953Z" fill="white"/>
</svg>
