<svg width="48" height="48" viewBox="0 0 48 48" fill="none" xmlns="http://www.w3.org/2000/svg">
<circle cx="24" cy="24" r="24" fill="#1D1FFF"/>
<path fill-rule="evenodd" clip-rule="evenodd" d="M32.9355 35.1726C38.9627 33.3257 39.8133 29.5858 39.9871 27.3621C40.17 25.1017 38.5054 19.276 28.7465 14.3048C28.7465 14.3048 18.3291 8.92018 9.77755 11.8974C9.77755 11.8974 9.23793 11.8698 8.74404 12.6049C8.69044 12.6807 8.63759 12.754 8.5863 12.8251C8.16492 13.4096 7.84807 13.8491 8.07637 14.3324C8.33246 14.8745 9.65865 15.1134 10.8385 14.7367C10.8385 14.7367 11.369 14.3783 10.683 14.1578C10.3496 14.0382 10.007 13.946 9.65865 13.8821C9.65865 13.8821 9.32024 13.827 9.68609 13.6432C10.0245 13.4686 13.939 12.2006 20.8535 14.02C27.7771 15.8026 37.1335 21.4262 36.8591 27.2703C36.5847 33.1143 27.4752 33.3716 27.4752 33.3716C27.4752 33.3716 25.6094 33.4635 23.1126 32.9857C23.104 32.6295 23.0936 32.2258 23.0824 31.7919C23.0335 29.8971 22.9696 27.4259 22.9845 25.8184C26.5515 25.8184 30.1368 26.4341 30.4386 27.3162C30.4386 27.3162 30.6215 27.7205 29.8166 28.1156C29.0758 28.4372 28.5087 28.6945 29.1215 28.9886C29.1215 28.9886 30.0179 29.4021 30.5941 29.3561C31.1428 29.3102 32.5879 28.6578 32.7068 27.0773C32.8714 25.4692 31.0239 24.0542 28.2618 23.5488C26.1399 23.1629 25.0149 23.025 23.1126 23.1169C23.0943 21.3802 22.8656 19.2025 22.4815 18.6971C22.4541 18.6564 22.4264 18.6149 22.3986 18.573C21.961 17.9161 21.4685 17.1766 21.073 18.1182C20.7254 18.9819 20.4327 20.8657 20.3321 23.365C17.4237 23.8612 14.1951 25.0833 13.2073 26.3054C12.1555 27.6562 13.2073 28.7588 13.3079 28.8599C13.3903 28.9978 15.5121 32.0668 20.1218 34.1986C20.2132 35.0164 20.3779 35.9353 20.698 36.4407C21.4114 37.5066 22.7101 36.7531 22.8839 36.5785C23.0119 36.4407 23.1034 36.0915 23.1491 35.2737C25.1979 35.7975 28.9569 36.3764 32.9355 35.1726ZM13.875 28.2259C13.875 28.2259 13.2073 27.5367 14.1768 27.0589C15.0548 26.6546 16.9755 26.1217 20.3047 25.8919C20.2997 26.206 20.2968 26.5027 20.2939 26.7988C20.2811 28.1142 20.2685 29.4186 20.0669 32.1863C17.9359 31.4236 15.6951 30.1923 13.875 28.2259Z" fill="white"/>
</svg>
