<svg width="48" height="48" viewBox="0 0 48 48" fill="none" xmlns="http://www.w3.org/2000/svg">
<circle cx="24" cy="24" r="24" fill="#009DFF"/>
<path fill-rule="evenodd" clip-rule="evenodd" d="M41 16.8664C41 17.0108 40.9139 17.2419 40.3975 17.2419C39.8811 17.2419 39.7951 17.0397 39.7951 16.8664V16.3755C39.7951 16.231 39.8811 16 40.3975 16C40.9139 16 41 16.2022 41 16.3755V16.8664ZM40.4549 21.9206C40.4549 22.1227 40.4549 22.3249 40.3975 22.5271C40.3852 22.5271 40.3675 22.5698 40.3446 22.6255L40.3446 22.6255L40.3446 22.6255C40.3142 22.6992 40.2744 22.7954 40.2254 22.8448V22.9314C40.2254 23.0003 40.2319 23.0758 40.2388 23.1547V23.1548V23.1548V23.1549C40.2463 23.2413 40.2541 23.3319 40.2541 23.4224C40.2541 23.5668 40.2254 23.7112 40.168 23.8556C40.1107 24.0289 39.9959 24.1733 39.8811 24.2888L39.7664 24.9242C39.709 25.0686 39.6803 25.213 39.6803 25.3863C39.6803 25.4198 39.6876 25.5237 39.6978 25.6712L39.6979 25.6715L39.6979 25.6716L39.6979 25.672C39.7231 26.0335 39.7664 26.6562 39.7664 27.148C39.7664 27.3791 39.7664 27.639 39.709 27.87C39.623 28.0722 39.5943 28.3032 39.623 28.5054V28.7076C39.623 28.9386 39.5943 29.1986 39.5082 29.4296L39.3934 30.1227C39.3361 30.3249 39.25 30.4982 39.1352 30.6715C39.1066 30.7581 39.0492 30.8159 38.9918 30.8736C38.9775 30.8881 38.9559 30.9025 38.9344 30.917C38.9129 30.9314 38.8914 30.9458 38.877 30.9603C38.8369 31.0613 38.6986 31.1058 38.5209 31.1629C38.4445 31.1875 38.3608 31.2144 38.2746 31.2491C37.9877 31.3069 37.7008 31.3935 37.4426 31.509H37.4139C37.3261 31.509 37.2274 31.4548 37.151 31.4129C37.1027 31.3863 37.0632 31.3646 37.041 31.3646C36.9549 31.4513 36.8115 31.509 36.6967 31.509C36.5246 31.5379 36.3525 31.5668 36.209 31.5668C36.1516 31.5668 36.1229 31.5668 36.0943 31.5379L36.0369 31.509L36.0656 31.4513C36.2951 31.2202 36.4385 30.9025 36.4672 30.5848V30.5271C36.4385 30.296 36.4098 30.065 36.3238 29.8339L36.2951 29.7762L36.3525 29.7473C36.5246 29.6895 36.8975 29.5162 36.8689 29.4296V29.3718H36.8402C36.8115 29.3718 36.7541 29.343 36.7541 29.3141L36.6107 28.9386L36.3525 28.361L36.582 26.0794C36.3238 25.6751 36.1229 25.2419 36.0369 24.7798V24.4043C36.0369 24.3524 36.0137 24.3238 35.9882 24.2923C35.9569 24.2538 35.9221 24.2109 35.9221 24.1155C35.9221 24.1155 35.8934 23.6534 35.8934 23.3069C35.8934 23.1913 35.8934 23.0758 35.9221 22.9603L35.8361 22.8736L35.8074 22.8448L35.8648 21.9783C35.8486 21.9459 35.8416 21.9135 35.8334 21.8759L35.8334 21.8759C35.827 21.8466 35.82 21.8141 35.8074 21.7762C35.8074 21.7076 35.7894 21.6571 35.7677 21.5961L35.7677 21.5961L35.7676 21.5959C35.7619 21.5799 35.756 21.5631 35.75 21.5451H35.7213V18.9747L35.75 18.9458C35.7787 18.917 35.8074 18.8881 35.8648 18.8592V17.9928H35.8934C35.9221 17.9639 35.9508 17.935 36.0082 17.9061V17.1841C35.8934 17.0686 34.9467 16.1444 34.8893 16.1155L34.832 16.0289H35.5492V16.0578C35.5635 16.0722 35.5779 16.0939 35.5922 16.1155C35.6066 16.1372 35.6209 16.1588 35.6352 16.1733H36.0656V16.2022C36.0656 16.2529 36.1818 16.2981 36.3339 16.3572C36.5283 16.4328 36.7814 16.5312 36.9262 16.6931H37.3279V16.722C37.3566 16.7798 37.4139 16.8375 37.4713 16.8953H37.8729L37.9016 16.9242C37.916 16.9386 37.9303 16.9603 37.9447 16.9819C37.959 17.0036 37.9734 17.0253 37.9877 17.0397H38.5328V17.0686C38.5471 17.083 38.5615 17.1047 38.5758 17.1264C38.5902 17.148 38.6045 17.1697 38.6189 17.1841H39.1926L39.2213 17.213C39.3257 17.4057 39.504 17.5452 39.6473 17.6574C39.7403 17.7302 39.8186 17.7915 39.8525 17.8484C40.0703 18.3016 40.1558 18.5476 40.2058 18.6913C40.2545 18.8314 40.2693 18.8742 40.3402 18.917H40.3689L40.3402 20.2166C40.3545 20.2455 40.3689 20.2816 40.3832 20.3177C40.3975 20.3538 40.4119 20.3899 40.4262 20.4188C40.4339 20.4419 40.4395 20.463 40.4447 20.4826L40.4448 20.4828C40.459 20.5364 40.4703 20.5787 40.5123 20.6209H40.541V20.6498C40.3955 20.6498 40.4156 21.0286 40.4378 21.4459V21.4459V21.446V21.4461V21.4462V21.4462V21.4463L40.4378 21.4465C40.4462 21.6052 40.4549 21.7695 40.4549 21.9206ZM35.75 29.4007C35.7787 29.4585 35.8074 29.5162 35.8074 29.574C35.8074 29.6426 35.7894 29.693 35.7677 29.7541C35.762 29.7701 35.756 29.787 35.75 29.8051C35.7234 29.872 35.7153 29.9203 35.6857 30.0964L35.6857 30.0965C35.6515 30.3006 35.5884 30.6763 35.4344 31.4513V31.509L35.377 31.4801C35.1762 31.4224 34.9754 31.3357 34.8033 31.2491C34.1434 30.6137 33.9713 30.556 33.6844 30.556H33.4549V30.5271V30.4693C33.4549 30.3514 33.5521 30.0754 33.6549 29.7836L33.6549 29.7835C33.7534 29.5036 33.8572 29.2091 33.8852 29.0253C33.9139 28.6209 33.9426 28.2166 33.9426 27.8123V27.4079C33.9139 27.0325 33.8279 26.657 33.7418 26.2816C33.627 25.7617 33.4262 25.2419 33.3115 25.2419H33.2541V25.1841C33.2668 25.0566 33.2906 24.9065 33.3133 24.7638C33.342 24.5833 33.3689 24.4145 33.3689 24.3177V24.2599C33.1967 23.9134 32.8238 23.2202 32.5943 23.1047C32.5943 23.1625 32.5943 23.2202 32.623 23.278C32.623 23.4513 32.5656 23.5957 32.4795 23.7401C32.4221 23.8267 32.3934 23.9134 32.3648 24.0289V24.0578C32.3648 24.2245 32.4517 25.0275 32.5343 25.7907L32.5343 25.7909L32.5343 25.791L32.5343 25.7911L32.5343 25.7913L32.5344 25.7915L32.5344 25.7917L32.5344 25.7918C32.6091 26.4824 32.6803 27.1401 32.6803 27.2635V27.2924L32.623 27.3502L32.5943 27.3791C32.5656 27.4079 32.5656 27.4368 32.5656 27.4657C32.623 27.5235 32.6516 27.6101 32.6803 27.6968C32.6803 27.7656 32.6869 27.8477 32.6937 27.9334L32.6937 27.9335L32.6937 27.9336C32.7012 28.0276 32.709 28.126 32.709 28.2166C32.709 28.4765 32.6803 28.7365 32.5943 28.9675C32.601 29.035 32.6108 29.1229 32.6219 29.2224C32.6585 29.5492 32.709 30.0015 32.709 30.2671V30.3827C32.7022 30.3895 32.6955 30.3979 32.6883 30.4068C32.6652 30.4356 32.6381 30.4693 32.5943 30.4693C32.5943 30.5126 32.6014 30.556 32.6086 30.5993C32.6158 30.6426 32.623 30.6859 32.623 30.7292C32.623 31.018 32.5656 31.278 32.5082 31.5379L32.5082 31.5379L32.4795 31.6823L32.3934 31.5957C32.1926 31.0181 31.8197 30.4982 31.332 30.0939C31.1819 29.966 31.0457 29.8756 30.9347 29.8018C30.7699 29.6924 30.6606 29.6198 30.6434 29.5162C30.6434 29.5162 31.0738 27.9567 31.2746 27.7834C31.3033 27.7256 31.3033 27.6679 31.3033 27.6101C31.3033 27.4946 31.3033 27.3791 31.2746 27.2635C31.2602 27.2491 31.2387 27.2419 31.2172 27.2347C31.1957 27.2274 31.1742 27.2202 31.1598 27.2058L31.1311 27.1769V27.148V26.1949V23.6534C31.1168 23.6101 31.1096 23.5668 31.1025 23.5235L31.1025 23.5234C31.0953 23.4801 31.0881 23.4368 31.0738 23.3935H31.0451L31.0164 22.9314C30.9889 22.8899 30.968 22.8351 30.9505 22.7893C30.9315 22.7395 30.9166 22.7004 30.9016 22.7004H30.873V22.6426V22.3827V22.2094C30.8443 22.1516 30.8443 22.0939 30.8443 22.0361C30.8443 22.0072 30.8371 21.9784 30.8299 21.9495L30.8299 21.9495C30.8227 21.9206 30.8156 21.8917 30.8156 21.8628H30.7869V21.8339V21.8051C30.7869 21.6895 30.7582 21.5451 30.7295 21.4296C30.7008 21.343 30.6721 21.2274 30.6721 21.1408C30.6721 21.0542 30.6721 20.9675 30.6434 20.8809H30.6721V20.2455C30.6148 20.1877 30.5574 20.13 30.5574 20.0144V19.9856C30.5287 19.9278 30.5 19.8989 30.4426 19.8989H30.4139V19.87C30.3852 19.6679 30.3852 19.4657 30.3852 19.2635C30.3852 19.0614 30.3852 18.8881 30.4139 18.6859C30.4791 18.6203 30.5837 18.5455 30.7079 18.4566C30.9662 18.2718 31.3096 18.0262 31.5615 17.6751C31.4754 17.6462 31.2172 17.5596 31.1885 17.5596L31.1598 17.5884L31.0738 17.6751C31.0451 17.704 30.9877 17.704 30.9303 17.704C30.8883 17.704 30.8617 17.6885 30.8279 17.6689C30.8156 17.6617 30.8023 17.6539 30.7869 17.6462H30.7582V17.5884C30.6721 17.3285 30.5287 17.0975 30.2992 16.9531C30.1683 16.8213 30.0374 16.7264 29.9463 16.6602L29.9463 16.6602C29.8975 16.6249 29.8601 16.5977 29.8402 16.5776L29.3811 16.491V16.3755L31.1885 16.3177C31.2746 16.2599 31.3893 16.231 31.5041 16.231C31.5902 16.231 31.6762 16.2888 31.7049 16.3755H32.3648H32.3934L32.5369 16.4332L32.8811 16.5776L33.3689 16.722H33.4836H33.627C33.8279 16.7509 34.0287 16.8664 34.2008 17.0108C34.2869 17.0975 34.373 17.1841 34.4877 17.2419H34.5164L35.1475 18.5993C35.1762 18.6859 35.1762 18.8014 35.1762 18.8881C35.1762 19.1191 35.1475 19.4079 35.1475 19.4079V19.4368H35.1189C35.1045 19.4513 35.0973 19.4729 35.0902 19.4946C35.083 19.5162 35.0758 19.5379 35.0615 19.5523C35.0615 19.6101 35.0328 19.6679 35.0041 19.6968V19.9278V20.2455C34.7746 21.1697 34.3443 21.9206 33.541 21.9495V22.1805C33.541 22.2383 33.5123 22.3249 33.4549 22.3538H33.541C33.5809 22.3538 33.6209 22.3476 33.6637 22.3409C33.7131 22.3332 33.7664 22.3249 33.8279 22.3249C33.9713 22.3249 34.1434 22.4116 34.4016 22.7292C34.5164 22.8159 34.5738 22.9603 34.5738 23.1047C34.5738 23.1192 34.5738 23.1264 34.5774 23.13C34.581 23.1336 34.5881 23.1336 34.6025 23.1336L34.7746 23.2202C34.8033 23.2491 34.832 23.278 34.832 23.3069V23.3357C34.832 23.3646 34.8391 23.3863 34.8463 23.4079C34.8535 23.4296 34.8607 23.4513 34.8607 23.4801L34.9467 23.9134C35.0041 24.1444 35.0041 24.3755 35.0041 24.6065C35.0041 24.8087 35.0328 25.0108 35.0615 25.213C35.0902 25.2419 35.0902 25.2708 35.0902 25.2996C35.0902 25.3116 35.0951 25.3285 35.1009 25.3483C35.109 25.3764 35.1189 25.4102 35.1189 25.444C35.1189 25.5018 35.1475 25.5596 35.2049 25.5884C35.2171 25.5884 35.2241 25.5884 35.2303 25.5862C35.2388 25.5832 35.2458 25.5762 35.2623 25.5596L35.3197 25.5307L35.3484 25.5884C35.4057 25.704 35.5779 26.9458 35.5779 27.0614V27.0903V27.1191C35.5403 27.2136 35.5274 27.3204 35.5148 27.4234C35.5082 27.4779 35.5017 27.5313 35.4918 27.5812C35.5061 27.5957 35.5277 27.6029 35.5492 27.6101C35.5707 27.6173 35.5922 27.6245 35.6066 27.639H35.6352V27.6679C35.7213 27.8123 35.7787 27.9567 35.8074 28.13V28.1588V28.1877C35.7787 28.2166 35.75 28.2744 35.75 28.3032C35.7636 28.3718 35.7708 28.4404 35.7776 28.506C35.7852 28.5783 35.7923 28.6469 35.8074 28.7076C35.8074 28.9386 35.7787 29.1408 35.7213 29.3718L35.75 29.4007ZM30.5574 26.1372C30.5574 26.657 30.5574 27.148 30.5 27.6679V27.6968H30.4713C30.3566 27.8989 30.2705 28.1011 30.2131 28.3321C30.1557 28.6209 30.041 28.8809 29.8689 29.1119V29.8339L29.8402 29.8628C29.767 29.907 29.7237 30.0714 29.676 30.2526C29.6301 30.4266 29.5802 30.616 29.4959 30.7292V31.1625H29.4672C29.4385 31.1913 29.4098 31.2202 29.3525 31.2491V31.8267L29.3238 31.8556C29.2664 31.9422 29.209 31.9711 29.0943 32C29.0656 32 29.0369 32 29.0369 31.9711C29.0082 31.9711 28.9795 32 28.9795 32H28.9508V31.2202L28.5779 29.9783V29.6318C28.5901 29.5088 28.4827 29.4016 28.3532 29.2722C28.1784 29.0976 27.9632 28.8826 27.9467 28.5343V28.5054C28.4344 27.9567 28.6926 27.2635 28.75 26.5415C28.7787 26.4549 28.4344 26.2238 28.0615 26.0217C27.7746 25.8773 27.5164 25.7329 27.2582 25.5307H27.0287L27.1434 25.8484V26.5415C27.2295 26.5704 27.2941 26.6354 27.3514 26.6931C27.4088 26.7509 27.459 26.8014 27.5164 26.8014C27.5451 26.8014 27.5738 26.8303 27.5738 26.8592C27.5451 26.917 27.5092 26.9747 27.4734 27.0325L27.4734 27.0325L27.4733 27.0325C27.4375 27.0903 27.4016 27.148 27.373 27.2058V27.2635H27.3156C27.3156 27.2635 26.9426 27.2347 26.627 27.2347C26.5123 27.2347 26.3975 27.2347 26.2828 27.2635C25.6803 27.4657 25.0205 27.7256 25.0205 27.7256H24.9918L24.9631 27.6968C24.8733 27.5612 24.8694 27.512 24.8658 27.4673C24.8626 27.4264 24.8596 27.3891 24.791 27.2924L24.7623 27.2635L24.791 27.2347C24.8675 27.0999 24.9695 26.9908 25.0715 26.8817L25.0715 26.8817C25.1225 26.8271 25.1735 26.7726 25.2213 26.7148C25.2213 26.5415 25.25 26.3682 25.3361 26.1949C25.4024 26.078 25.5264 26.0094 25.6136 25.9611C25.6771 25.926 25.7211 25.9016 25.709 25.8773C25.6856 25.83 25.6621 25.8021 25.6229 25.7935V25.7906L25.709 25.1841C25.709 25.1552 25.709 25.0975 25.7377 25.0686C25.709 24.9531 25.6803 24.8375 25.6803 24.722C25.6803 24.6354 25.709 24.5487 25.7664 24.4621C25.7951 24.4332 25.8238 24.4043 25.8811 24.3755V23.7978H25.9098C25.9672 23.769 26.0246 23.7112 26.0246 23.6245C26.0246 23.6123 26.0246 23.6052 26.0224 23.5989C26.0194 23.5904 26.0124 23.5834 25.9959 23.5668C25.9385 23.5379 25.8811 23.4801 25.9098 23.3935V23.3069C25.9098 23.278 25.917 23.2491 25.9242 23.2202L25.9242 23.2202C25.9314 23.1913 25.9385 23.1624 25.9385 23.1336C25.9385 23.0758 25.9314 23.0253 25.9242 22.9747L25.9242 22.9747C25.917 22.9242 25.9098 22.8736 25.9098 22.8159C25.9098 22.7581 25.9098 22.7004 25.9385 22.6426C25.9959 22.4982 26.082 22.3538 26.1967 22.2094C26.2828 21.9783 26.3402 21.7473 26.3402 21.5162V21.4874H26.3689C26.526 21.4083 26.5454 21.182 26.5685 20.9128V20.9127C26.5877 20.6904 26.6093 20.4387 26.7131 20.2166C26.7992 19.9856 26.9139 19.7834 27.0574 19.6101V19.5812C27.0574 19.5379 27.043 19.4946 27.0287 19.4513C27.0143 19.4079 27 19.3646 27 19.3213C27 19.279 27.0154 19.2522 27.0349 19.2182C27.042 19.2058 27.0497 19.1924 27.0574 19.1769C27.0861 19.148 27.1434 19.0903 27.1721 19.0903C27.2248 18.8781 27.3259 18.6415 27.4087 18.4477L27.4303 18.3971C27.4877 18.2527 27.5738 18.1372 27.6598 18.0217V17.444L27.6885 17.4152C27.6953 17.4083 27.7037 17.4015 27.7125 17.3943L27.7125 17.3943C27.7411 17.371 27.7746 17.3438 27.7746 17.2996C27.7459 17.213 27.8033 17.1552 27.8607 17.1264C27.9603 17.1264 27.9734 17.0392 27.9939 16.9028C27.997 16.8821 28.0003 16.8603 28.0041 16.8375V16.6931C28.0041 16.5199 28.0328 16.3177 28.2623 16.3177C28.5896 16.3412 28.6311 16.7866 28.6508 16.9976C28.6553 17.0456 28.6586 17.0814 28.6639 17.0975C28.8473 17.482 28.9574 17.629 29.0203 17.7129C29.0755 17.7866 29.0943 17.8116 29.0943 17.9061V18.2816C29.0943 18.5993 29.5533 19.7834 29.5533 19.7834L29.9549 21.343C29.9693 21.3574 29.9908 21.3718 30.0123 21.3863L30.0123 21.3863C30.0338 21.4007 30.0553 21.4152 30.0697 21.4296H30.0984V21.9783C30.1844 22.0361 30.2131 22.1227 30.2418 22.2094C30.2418 22.2432 30.232 22.2671 30.2238 22.287C30.218 22.301 30.2131 22.3129 30.2131 22.3249C30.2131 22.3827 30.2705 22.4404 30.3279 22.4693H30.3566V23.1913H30.3279V23.2202C30.3566 23.6823 30.4139 24.1155 30.5 24.5487V24.5776C30.5287 24.8087 30.5574 25.4729 30.5574 26.1372ZM25.6229 25.7935V25.8195L25.5943 25.7906C25.6047 25.7906 25.6142 25.7916 25.6229 25.7935ZM27.4016 28.6787L27.4016 28.6787C27.4303 28.8231 27.459 28.9675 27.5164 29.083V30.2671H27.4877C27.459 30.296 27.4303 30.3249 27.373 30.3538V30.3827V30.4404V30.4693H25.5082V30.4404C25.4939 30.426 25.4795 30.4043 25.4652 30.3827C25.4508 30.361 25.4365 30.3393 25.4221 30.3249L24.791 30.2671C24.6475 30.4116 24.5041 30.5271 24.3033 30.5848H24.2746C24.0123 30.5848 23.8062 30.5943 23.6296 30.6024C23.4971 30.6084 23.3811 30.6137 23.2705 30.6137C23.0637 30.7178 22.8336 30.775 22.6222 30.8276L22.5533 30.8448H22.5246C22.4385 30.7581 22.4098 30.6426 22.4098 30.5271C22.4098 30.4722 22.4214 30.4173 22.4298 30.3771L22.4298 30.3771L22.4298 30.377L22.4298 30.377C22.4347 30.3538 22.4385 30.3355 22.4385 30.3249V29.8339H22.4672C22.5246 29.8051 22.5533 29.7762 22.582 29.7473C22.6107 29.7184 22.6107 29.6607 22.6107 29.6029C22.6107 29.5162 22.582 29.4296 22.5533 29.343V29.3141L22.582 29.2852C22.668 29.2274 22.7541 29.1697 22.8115 29.0542C22.8402 28.9964 22.8402 28.9675 22.8402 28.9097C22.8402 28.8231 22.8402 28.7365 22.8115 28.6787V28.6498L22.8402 28.6209C22.8545 28.6065 22.876 28.5921 22.8975 28.5776L22.8975 28.5776C22.9191 28.5632 22.9406 28.5487 22.9549 28.5343C22.9836 28.5054 22.9836 28.4477 22.9836 28.3899C22.9836 28.3466 22.9764 28.3105 22.9693 28.2744L22.9693 28.2743C22.9621 28.2383 22.9549 28.2022 22.9549 28.1588V28.13C22.9549 28.1 22.9781 28.0466 23.0044 27.9861C23.0288 27.9301 23.0559 27.8678 23.0697 27.8123C23.0984 27.6968 23.127 27.5523 23.127 27.4368C23.127 27.2635 23.0984 27.0903 23.0697 26.917C23.041 26.8014 23.0123 26.7148 22.9549 26.6282C22.8689 26.3393 22.8115 26.0505 22.8115 25.7329C22.8115 25.3539 22.8619 24.9749 22.9154 24.5722L22.9262 24.491L23.6721 22.4982C23.6148 22.4693 23.5861 22.4116 23.5574 22.3538V22.296V22.1805V22.1516C23.6434 22.065 23.7008 21.9206 23.7295 21.7762V21.6318V21.574C23.7399 21.5219 23.7876 21.4396 23.8458 21.3394L23.8458 21.3394L23.8458 21.3394L23.8458 21.3393C23.9487 21.1621 24.0841 20.929 24.1025 20.7076V20.5632V20.361C24.3033 19.7834 24.5902 19.2058 24.9631 18.7148V18.1949H24.9918C25.0492 18.1661 25.0779 18.1372 25.1066 18.0794C25.1066 18.0711 25.1066 18.0676 25.1052 18.0647C25.1042 18.0626 25.1024 18.0608 25.0994 18.0578C25.0922 18.0505 25.0779 18.0361 25.0492 17.9928H24.3893V17.9639C24.375 17.935 24.3607 17.9134 24.3463 17.8917C24.332 17.87 24.3176 17.8484 24.3033 17.8195C24.2459 17.7617 24.1885 17.7617 24.1025 17.7617L23.6721 17.8484C23.5861 17.9061 23.5 17.9928 23.4713 18.1083C23.3669 18.3448 23.31 18.6052 23.2574 18.846L23.2418 18.917C23.127 19.6679 23.0123 19.7545 22.8402 19.7834H22.7828C22.6967 19.7834 22.6393 19.8412 22.6107 19.8989L22.582 19.9278L22.5533 19.8989C22.4959 19.8412 22.4385 19.7834 22.4098 19.7834L22.3811 19.7545V19.7256C22.4098 19.639 22.4385 19.5235 22.4385 19.4368C22.4385 19.3646 22.4242 19.3141 22.4098 19.2635C22.3955 19.213 22.3811 19.1625 22.3811 19.0903C22.4098 18.9747 22.4672 18.8592 22.582 18.8014V16.491H26.8566V16.5199L26.9426 16.6354H27.0287H27.0861V16.7798C27.0457 16.8204 27.016 16.904 26.9781 17.0104L26.9781 17.0104L26.9781 17.0104L26.9781 17.0104L26.9781 17.0104C26.9085 17.2063 26.8113 17.4794 26.5697 17.704C26.5697 17.7473 26.5768 17.7834 26.584 17.8195L26.584 17.8195C26.5912 17.8556 26.5984 17.8917 26.5984 17.935C26.5984 17.9928 26.5984 18.0794 26.5697 18.1372C26.4836 18.3105 26.3689 18.5126 26.168 18.6282C26.168 18.6715 26.1752 18.7076 26.1824 18.7437C26.1895 18.7798 26.1967 18.8159 26.1967 18.8592C26.1967 18.917 26.1967 19.0036 26.168 19.0614C26.1284 19.1678 26.0765 19.2007 26.0294 19.2306C25.9741 19.2657 25.9253 19.2967 25.9098 19.4368C25.9098 19.4368 25.8525 19.8989 25.7664 20.2166C25.7297 20.3521 25.6825 20.4561 25.6405 20.5488C25.584 20.6733 25.5369 20.7773 25.5369 20.9097V21.0253L25.5082 22.2383H25.4795C25.4061 22.2875 25.3692 22.4418 25.3244 22.6295C25.264 22.8819 25.1893 23.1947 24.9918 23.3935V23.8267C24.9518 23.9474 24.8872 24.012 24.8207 24.0784C24.744 24.1551 24.665 24.2341 24.6189 24.4043V25.8484L24.2459 26.917C24.2459 26.9253 24.2483 26.9458 24.2517 26.975V26.975L24.2517 26.975L24.2518 26.9751L24.2518 26.9752C24.2601 27.0465 24.2746 27.1695 24.2746 27.2924C24.2746 27.3791 24.2746 27.4946 24.2459 27.5812C24.1598 27.9278 24.0451 28.2455 23.8443 28.5343L23.7869 28.6209V28.6498C23.7582 28.7942 23.7295 28.9386 23.6721 29.0542C23.6434 29.1697 23.6148 29.2563 23.5574 29.343C23.5861 29.3718 23.6148 29.4007 23.6434 29.4007C23.6721 29.3718 23.7008 29.343 23.7295 29.2852L23.7582 29.2563L23.7869 29.2852C23.8443 29.3141 23.9303 29.343 24.0164 29.343C24.0848 29.343 24.1533 29.3298 24.2249 29.3161C24.3033 29.301 24.3854 29.2852 24.4754 29.2852C24.5202 29.2852 24.53 29.25 24.5458 29.1933C24.5503 29.1774 24.5552 29.1598 24.5615 29.1408C24.5615 29.0253 24.6189 28.9097 24.6762 28.8231C24.7976 28.7009 24.9923 28.642 25.1464 28.5954C25.2473 28.5649 25.3307 28.5397 25.3648 28.5054C25.5552 28.3776 25.7027 28.3166 25.8289 28.2643C26.0449 28.175 26.1984 28.1115 26.3975 27.7834L26.4262 27.7256L26.4836 27.7545L26.5984 27.87H27.2295V27.8989C27.3443 27.9856 27.4016 28.1011 27.4303 28.2455C27.4303 28.3361 27.4225 28.4109 27.415 28.4822L27.415 28.4823C27.4082 28.5475 27.4016 28.6098 27.4016 28.6787ZM27.4303 24.491C27.459 24.4043 27.459 24.3466 27.459 24.2599C27.459 24.1854 27.4512 24.0952 27.4428 23.9979L27.4428 23.9979V23.9978V23.9978V23.9978V23.9978V23.9977C27.4284 23.8312 27.4122 23.6442 27.4303 23.4801V23.3069C27.5164 23.0469 27.5451 22.787 27.5451 22.4982C27.6598 22.4693 27.7459 22.3827 27.7746 22.2671L27.784 22.238C27.8102 22.1561 27.8413 22.0587 27.918 22.0072H27.9467V21.9783L27.9754 21.4007C28.0328 21.574 28.1189 21.7184 28.2049 21.8339C28.2991 21.9446 28.4019 21.9687 28.4992 21.9916C28.5797 22.0105 28.6564 22.0285 28.7213 22.0939C28.8074 22.2383 28.8648 22.4116 28.8648 22.5848C28.8361 22.7581 28.8934 22.9025 28.9508 23.0469C28.9795 23.1336 28.9795 23.3646 28.9795 23.6534C28.9795 23.9614 28.9682 24.3263 28.9598 24.5982C28.9548 24.7597 28.9508 24.8885 28.9508 24.9531H28.8361C28.7364 24.928 28.6422 24.8648 28.537 24.7943C28.3998 24.7023 28.2439 24.5978 28.0328 24.5487C27.918 24.5199 27.7746 24.5199 27.6598 24.5199H27.4303V24.491ZM22.2951 26.5126H22.2377C22.12 26.5465 22.1008 26.6101 22.0763 26.6919C22.0589 26.7496 22.0389 26.8164 21.9795 26.8881C21.9508 27.0614 21.9221 27.2635 21.9508 27.4368C21.9508 27.9856 22.0082 28.7365 22.0082 28.7365V28.7942H21.9508C21.7787 28.8231 21.6066 28.9097 21.4918 29.0542V29.083H20.0574V29.0542L19.9713 28.9386H19.8279C19.7418 28.9386 19.627 28.9675 19.5984 29.0542C19.5697 29.1408 19.4549 29.1986 19.3689 29.1986C19.2254 29.1697 19.082 29.1119 18.9385 28.9964H17.9631C17.9057 28.9386 17.8484 28.852 17.8197 28.7653C17.8484 28.7076 17.877 28.6787 17.9057 28.6498L17.9918 28.5632V27.7256H18.0205L18.1352 27.639V27.5523V27.5235L18.1066 27.4657C18.0904 27.4495 18.0834 27.4242 18.0752 27.3948C18.0688 27.372 18.0618 27.3466 18.0492 27.3213C18.0291 27.2605 17.9948 27.2139 17.9563 27.1616L17.9563 27.1616C17.94 27.1394 17.9229 27.1161 17.9057 27.0903L17.877 27.0614L17.9057 27.0325C17.9631 26.9747 17.9918 26.8881 17.9918 26.8014C17.9918 26.7148 17.9631 26.6282 17.9057 26.5704V26.3682C17.9057 26.138 17.9523 25.889 17.9923 25.6746L17.9923 25.6746C18.0226 25.5125 18.0492 25.3702 18.0492 25.2708V25.213H18.0779C18.1367 25.1686 18.1578 25.0408 18.1837 24.8839L18.1837 24.8839C18.2084 24.7347 18.2374 24.5592 18.3074 24.4043C18.4221 24.2022 18.5656 23.9711 18.7377 23.7978C18.7951 23.3935 18.9672 23.0181 19.2541 22.7581C19.2828 22.6137 19.5123 21.5162 19.7131 21.1697C19.7418 21.1408 19.7705 21.1191 19.7992 21.0975L19.7992 21.0975C19.8279 21.0758 19.8566 21.0542 19.8852 21.0253L20.0287 20.9097C20.0287 20.8231 20.1148 20.6209 20.5164 20.2455C20.4877 20.1011 20.459 19.9567 20.459 19.8123C20.459 19.6968 20.4877 19.5523 20.5451 19.4368C20.6667 19.3416 20.7692 19.1952 20.8885 19.0247L20.8885 19.0247L20.8885 19.0247C21.0226 18.8331 21.1781 18.611 21.4057 18.3971V17.5307H20.0287C19.9714 17.5691 19.9014 17.6005 19.8268 17.6339C19.5653 17.7509 19.2477 17.8931 19.2254 18.4549V18.5126H19.168C19.082 18.5126 18.9672 18.5704 18.9098 18.6282C18.8238 18.657 18.7377 18.7437 18.7377 18.8592V19.87C18.6803 20.0433 18.5943 20.2166 18.4795 20.361L18.4508 20.4188L18.3934 20.3321C18.3361 20.2744 18.2787 20.1877 18.2787 20.1011V19.9856C18.2787 19.9278 18.2213 19.87 18.1639 19.8412H18.1352V19.8123C18.1352 19.8123 18.1066 19.5523 18.0779 19.3791C18.0779 19.3213 18.0779 19.2635 18.0492 19.2058L18.0205 19.1769C18.0779 19.0036 18.1352 18.8014 18.1352 18.5993C18.1352 18.4838 18.1066 18.3682 18.0205 18.2527C18.0061 18.2383 17.9846 18.2238 17.9631 18.2094C17.9416 18.1949 17.9201 18.1805 17.9057 18.1661H17.877V16.9531C17.9344 16.8664 17.9918 16.7798 17.9918 16.6643V16.6354V16.5776H18.0492H21.6926H21.75V17.2708C21.75 17.3227 21.7732 17.3513 21.7987 17.3827C21.83 17.4213 21.8648 17.4642 21.8648 17.5596V19.8412L21.8361 19.87C21.7213 19.9856 21.6639 20.13 21.6926 20.3032C21.6926 20.4188 21.7213 20.5343 21.75 20.6498V20.6787L21.7213 20.7076C21.5015 20.8608 21.3515 21.2748 21.2183 21.6422L21.2183 21.6422L21.2183 21.6422C21.1255 21.8982 21.041 22.1315 20.9467 22.2383V22.8159H20.918C20.918 22.8159 20.4016 23.0469 20.3156 23.3069C20.2869 23.3935 20.2869 23.4513 20.2869 23.5379V23.5379V23.5379C20.2869 23.6534 20.2869 23.7401 20.3156 23.8556V23.8845H20.2869C19.8852 24.0289 19.2254 25.9061 19.2254 25.9928V26.3394H19.1967L19.2254 26.3682C19.2089 26.3848 19.2019 26.3919 19.1989 26.4004C19.1967 26.4066 19.1967 26.4137 19.1967 26.426L19.1107 26.5993C19.0533 26.7437 18.9672 26.9747 18.9098 27.1769C18.8238 27.5235 18.709 27.87 18.5656 28.1877C18.6082 28.2521 18.6191 28.2686 18.6337 28.2729C18.6388 28.2744 18.6443 28.2744 18.6516 28.2744H18.7664C18.8342 28.2744 18.8719 28.2542 18.9921 28.1901L18.9921 28.19L18.9921 28.19C19.0753 28.1456 19.198 28.0801 19.3975 27.9856C19.5984 27.9856 19.7992 27.9278 20 27.8412C20.1434 27.6679 20.2869 27.4946 20.373 27.2924C20.5164 27.0325 20.7746 26.8303 21.0902 26.7726C21.1189 26.5704 21.2049 26.3971 21.3197 26.2527L21.377 26.1949L21.4057 26.2527C21.4201 26.2671 21.4273 26.2816 21.4344 26.296C21.4416 26.3105 21.4488 26.3249 21.4631 26.3394C21.7114 26.2322 21.7404 26.1141 21.7738 25.9781C21.7945 25.894 21.8168 25.8032 21.8934 25.704V25.6751H22.2377V25.7329V25.8484C22.2377 26.0505 22.2664 26.2238 22.3238 26.426L22.2951 26.5126ZM11.7124 27.6044C11.6951 27.4995 11.6803 27.41 11.6803 27.3502C11.6803 27.3213 11.709 27.2924 11.8238 27.3213C11.9672 27.0903 12.0533 26.8303 12.0246 26.5704C12.0246 26.4038 12.0047 26.2305 11.984 26.0506L11.984 26.0505C11.9617 25.8562 11.9385 25.654 11.9385 25.444V25.3863V25.1552V24.8664C11.9385 24.852 11.9457 24.8375 11.9529 24.8231C11.96 24.8087 11.9672 24.7942 11.9672 24.7798C11.9672 24.6804 11.8917 24.6285 11.8219 24.5805C11.77 24.5449 11.7213 24.5114 11.709 24.4621C11.623 24.2599 11.5943 24.0578 11.5943 23.8556C11.623 23.5668 11.6516 23.278 11.709 22.9892V22.9603L11.6803 22.9314C11.5971 22.8476 11.5718 22.8319 11.5653 22.8278C11.5638 22.8269 11.5633 22.8266 11.5632 22.8262C11.5632 22.826 11.5634 22.8258 11.5636 22.8254C11.5642 22.8243 11.5656 22.8221 11.5656 22.8159C11.5082 22.7004 11.4508 22.5848 11.3361 22.5271L11.3074 22.4982L11.2787 22.556L11.25 22.5848C11.239 22.5738 11.2281 22.567 11.2187 22.5612C11.2036 22.5517 11.1926 22.5449 11.1926 22.5271C11.1639 22.4982 11.1639 22.4404 11.1639 22.4116V22.3827C11.25 22.2671 11.2787 22.1516 11.3074 22.0072C11.3074 21.8917 11.2213 21.8051 11.1352 21.8051C10.9918 21.8051 10.8484 21.7762 10.7049 21.6895C10.6475 21.6606 10.5902 21.6318 10.5615 21.574C10.8197 21.2563 11.0492 20.9098 11.2787 20.5632L11.2787 20.5632L11.7377 19.6968C11.8238 19.6101 11.8525 19.4657 11.8525 19.3213C11.8525 19.2007 11.8339 19.0614 11.8141 18.9121V18.9121L11.8141 18.9121C11.7911 18.7397 11.7664 18.554 11.7664 18.3682C11.7664 17.8484 11.5082 17.3863 11.1352 17.0397C11.0492 16.9819 10.9344 16.9531 10.8197 16.9531H10.7336C10.5902 16.8664 10.4467 16.722 10.3893 16.5776V16.5487H10.3607L10.2939 16.539C10.1207 16.5137 9.96511 16.491 9.78689 16.491C9.64251 16.491 9.51327 16.5011 9.36319 16.5129C9.15541 16.5293 8.9077 16.5487 8.52459 16.5487L7.86475 16.5199C7.80738 16.5199 7.54918 16.5487 7.31967 16.5776C7.14754 16.5776 6.97541 16.6065 6.83197 16.6931H6.14344C6.11475 16.7509 6.05738 16.8087 6.02869 16.8375C6 16.8953 6 16.9819 6 17.0397V17.1552C6 17.1841 6.02869 17.213 6.05738 17.2419C6.07172 17.2563 6.08607 17.278 6.10041 17.2996C6.11475 17.3213 6.1291 17.343 6.14344 17.3574L6.54508 17.7617L6.63115 17.8484C6.60246 17.8484 6.60246 17.8773 6.60246 17.8773C6.60246 17.9061 6.60246 17.935 6.63115 17.935H6.65984H6.71721C6.7459 17.935 6.77459 17.935 6.77459 17.9061H6.88934C6.88934 17.935 6.91803 17.9639 6.94672 17.9928V18.1372V18.3105C6.94672 18.3168 6.94672 18.3217 6.94582 18.3265C6.94259 18.3435 6.92787 18.3583 6.86066 18.426H6.83197V21.6029L6.94672 21.8339C6.97541 21.8628 6.97541 22.0072 6.97541 22.1227C6.97541 22.2094 6.97541 22.2671 6.94672 22.3249C6.89866 22.3733 6.87072 22.4622 6.84606 22.5407C6.84128 22.556 6.83662 22.5708 6.83197 22.5848V23.509L6.91803 23.7112L6.94672 24.3466C6.91803 24.4043 6.86066 24.4621 6.80328 24.4621H6.7459V24.5199V24.7509C6.7459 24.9519 6.73505 25.2239 6.72278 25.5313C6.70684 25.9307 6.68852 26.3897 6.68852 26.8303C6.7459 27.2924 6.80328 27.9856 6.80328 28.0722C6.83197 28.2744 6.86066 28.5054 6.86066 28.7076C6.86066 28.8404 6.85347 28.9732 6.84546 29.1214C6.83083 29.3921 6.81343 29.7139 6.83197 30.1805C6.79754 30.3018 6.76311 30.4543 6.72869 30.6068C6.70574 30.7084 6.68279 30.8101 6.65984 30.9025C6.64549 30.9603 6.62398 31.0253 6.60604 31.0794C6.58811 31.1336 6.57377 31.1769 6.57377 31.1913C6.57377 31.2058 6.5666 31.2202 6.55943 31.2347C6.55225 31.2491 6.54508 31.2635 6.54508 31.278V31.3069C6.43033 31.3935 6.28689 31.4513 6.14344 31.509L6.05738 31.5379L6.14344 31.5957C6.17213 31.5957 6.25818 31.6823 6.28688 31.7112L6.28689 31.7112L6.34426 31.769L6.37295 31.6823H6.43033C6.46789 31.6823 6.52186 31.6878 6.58268 31.694C6.6612 31.702 6.75114 31.7112 6.83197 31.7112C6.88934 31.7112 6.91803 31.7112 6.97541 31.6823C7.20492 31.7401 7.46311 31.769 7.72131 31.769C7.92213 31.769 8.12295 31.769 8.18033 31.6245C8.20902 31.5668 8.26639 31.509 8.35246 31.509C8.39459 31.4949 8.42297 31.5292 8.4578 31.5713C8.49411 31.6152 8.53743 31.6676 8.61066 31.6823C8.66803 31.6534 8.69672 31.6245 8.72541 31.5957C8.72541 31.5668 8.7541 31.5668 8.7541 31.5668C8.8026 31.557 8.85029 31.5473 8.89729 31.5376C9.12829 31.4903 9.34283 31.4464 9.55738 31.4224H9.58607V31.3935C9.72951 31.1913 9.93033 30.9892 10.1598 30.8736L10.2459 30.8192C10.4534 30.6875 10.6829 30.5417 10.9344 30.4404H10.9631C10.9918 30.1516 11.0492 29.8628 11.1352 29.574C11.25 29.343 11.3648 29.1408 11.5082 28.9386C11.6104 28.7587 11.667 28.5558 11.7187 28.3708L11.7377 28.3032C11.7664 28.2455 11.7664 28.1588 11.7664 28.1011C11.7664 27.9319 11.7369 27.7528 11.7124 27.6044ZM9.9877 18.7148C9.9877 18.6859 9.9877 18.657 10.0164 18.657L10.1885 18.5415C10.1341 18.5259 10.0818 18.5229 10.0311 18.5201C9.89445 18.5124 9.76895 18.5054 9.64344 18.2527H9.58607L9.04098 18.3394L9.06967 18.2527C9.06967 18.2383 9.07684 18.231 9.08402 18.2238C9.09119 18.2166 9.09836 18.2094 9.09836 18.1949L9.04098 18.2238C9.0123 18.2816 9.0123 18.3394 9.0123 18.3971C9.0123 18.4838 8.95492 18.5415 8.89754 18.5704V20.9675C8.91189 20.9675 8.9334 20.9603 8.95492 20.9531C8.97643 20.9458 8.99795 20.9386 9.0123 20.9386C9.06967 20.9386 9.09836 20.9386 9.15574 20.9675C9.24935 20.9361 9.29393 20.8364 9.34692 20.7178C9.44008 20.5094 9.5592 20.243 10.0164 20.1877V19.8989C10.0164 19.6101 10.0164 19.2635 10.1311 19.148C10.0738 19.0036 10.0164 18.8592 9.9877 18.7148ZM10.1246 27.1218C10.1144 27.1558 10.1025 27.1952 10.1025 27.2347C10.0881 27.2491 10.0809 27.2635 10.0738 27.278C10.0666 27.2924 10.0594 27.3069 10.0451 27.3213C10.0451 27.4657 10.0164 27.639 9.95902 27.7834C9.94945 27.8123 9.9367 27.8476 9.92395 27.8829L9.92395 27.8829C9.89845 27.9535 9.87295 28.0241 9.87295 28.0433C9.87295 28.0578 9.86578 28.0722 9.85861 28.0866C9.85143 28.1011 9.84426 28.1155 9.84426 28.13C9.8105 28.2886 9.80323 28.4694 9.79646 28.6376C9.78599 28.8982 9.77673 29.1284 9.67213 29.1986C9.59624 29.2531 9.51216 29.3489 9.42608 29.447C9.28437 29.6085 9.13723 29.7762 9.0123 29.7762H8.98361L8.69672 30.0361C8.58197 30.0939 8.46721 30.1227 8.35246 30.1227L8.43852 29.9495C8.4959 29.8628 8.55328 29.7473 8.58197 29.6607V29.6318C8.55328 29.5162 8.55328 29.1986 8.55328 29.1986V28.1877C8.56976 28.1711 8.57677 28.1641 8.57976 28.1556C8.58197 28.1493 8.58197 28.1423 8.58197 28.13C8.61066 28.13 8.61066 28.1011 8.61066 28.0433C8.63934 27.9856 8.66803 27.9278 8.72541 27.8989V25.5307H8.69672C8.63934 25.5018 8.61066 25.444 8.61066 25.3863C8.61066 25.2996 8.63934 25.2708 8.69672 25.2419H8.72541L8.86885 24.6065C8.81148 24.4043 8.78279 24.231 8.78279 24.0289C8.78279 23.9422 8.81148 23.8267 8.86885 23.7401V23.2491V22.5271L9.2418 22.8736C9.41393 23.0181 9.58607 23.1625 9.7582 23.278C9.84426 23.3646 9.93033 23.4513 9.95902 23.5668C9.95902 23.5957 9.93033 23.6245 9.93033 23.6245C9.90164 23.6245 9.90164 23.6534 9.90164 23.6823C9.90164 23.7264 9.93512 23.7874 9.96372 23.8395C9.97256 23.8556 9.98093 23.8708 9.9877 23.8845H9.95902H9.84426L9.90164 23.9711C9.95902 24.0578 10.0164 24.1444 10.0164 24.2599C10.0164 24.3177 10.0164 24.3755 9.9877 24.4043L9.95902 24.4332L9.9877 24.4621C10.0164 24.491 10.0164 24.5199 10.0164 24.5487C10.0164 24.6209 9.9877 24.7148 9.95902 24.8087C9.93033 24.9025 9.90164 24.9964 9.90164 25.0686C9.87295 25.1841 9.93033 25.3285 10.0164 25.444C10.1025 25.5596 10.1311 25.6751 10.1025 25.8195C10.0164 25.9061 9.95902 26.0217 9.95902 26.1372C9.95902 26.2861 10.0155 26.435 10.0638 26.5622C10.0998 26.657 10.1311 26.7398 10.1311 26.8014C10.1311 26.8303 10.1025 26.8592 10.0738 26.8881L10.0164 26.917L10.0738 26.9458C10.1025 26.9747 10.1311 27.0036 10.1311 27.0325C10.1468 27.0482 10.1369 27.0811 10.1246 27.1218ZM33.5123 20.1588C33.4836 20.2455 33.4836 20.3321 33.4836 20.4188V20.4765C33.3689 20.8231 33.2541 21.1119 33.1107 21.4296C32.9959 21.574 32.8238 21.6606 32.6516 21.6895H32.5082H32.3648V17.9928H32.4795C32.5943 17.9639 32.8811 18.2238 33.082 18.5126C33.2828 18.8014 33.4836 19.0614 33.4836 19.0614C33.5697 19.2058 33.627 19.3791 33.627 19.5523C33.627 19.5812 33.6199 19.6029 33.6127 19.6245C33.6055 19.6462 33.5984 19.6679 33.5984 19.6968V19.9567C33.5697 19.9856 33.541 20.0144 33.541 20.0433V20.1011H33.5123V20.1588ZM38.8197 23.4801C38.6762 23.6245 38.5615 23.8267 38.5902 24.0289V24.0866C38.5041 24.3755 38.5041 26.6859 38.5041 26.8303C38.476 26.9718 38.4272 27.0787 38.3679 27.2086C38.3062 27.3438 38.233 27.5041 38.1598 27.7545V27.8412C38.1025 28.361 37.9016 28.852 37.5574 29.2274L37.5287 23.2491H37.5C37.3566 22.9892 37.2992 22.7292 37.2705 22.4693V22.4404L37.2131 22.3249C37.2131 22.3105 37.2059 22.296 37.1988 22.2816C37.1916 22.2671 37.1844 22.2527 37.1844 22.2383V22.1227C37.1844 21.6029 37.127 20.2455 37.127 20.2455L37.0984 20.0722L37.1557 19.6101H37.3566C37.4364 19.6101 37.5102 19.6163 37.5891 19.623C37.6804 19.6307 37.7786 19.639 37.9016 19.639C37.9505 19.6267 37.989 19.6668 38.0392 19.719C38.1069 19.7896 38.1959 19.8823 38.3607 19.8989C38.3796 20.1273 38.523 20.2428 38.6597 20.3529C38.7305 20.4098 38.7994 20.4653 38.8484 20.5343C38.877 20.6498 38.9057 20.7653 38.9344 20.9097C38.9631 21.083 39.0205 21.2274 39.1066 21.343V22.5848C38.9546 22.7378 38.8698 23.2057 38.8322 23.4127C38.8272 23.4403 38.823 23.4632 38.8197 23.4801ZM17.4754 29.1986L17.3893 29.1697C17.332 29.1408 17.2746 29.1408 17.2172 29.1408H17.1025H17.0738C17.0164 29.1408 16.9303 29.1697 16.873 29.1986H16.8443L16.8156 29.1697C16.6434 29.1119 16.5 29.1119 16.3279 29.1119C16.0123 29.1119 15.668 29.1408 15.3525 29.2274C15.2951 29.343 15.1803 29.4007 15.0656 29.4585C15.0534 29.4585 15.0464 29.4585 15.0402 29.4563C15.0317 29.4533 15.0247 29.4462 15.0082 29.4296L15.0082 29.4296C14.9508 29.4007 14.8934 29.343 14.8361 29.2852L14.7787 29.2563L14.8074 29.2274C14.9348 29.0696 14.9919 28.9825 15.029 28.9259C15.0501 28.8937 15.0647 28.8714 15.0822 28.8515C15.1217 28.8065 15.1755 28.774 15.351 28.668L15.3511 28.668L15.3511 28.6679L15.3512 28.6679L15.3811 28.6498C15.4672 28.1011 15.4959 27.5812 15.4959 27.0325V26.917H15.5246C15.6158 26.8481 15.6345 26.834 15.6384 26.8166C15.6393 26.8121 15.6393 26.8074 15.6393 26.8014V26.6859C15.582 26.5415 15.5533 26.426 15.5246 26.2816C15.5246 26.0794 15.582 25.9061 15.668 25.7329L15.6393 20.3899H15.668C15.6967 20.361 15.7254 20.3321 15.7541 20.3321H15.7828C15.7541 20.2744 15.7254 20.2455 15.668 20.2455V20.2166L15.5246 17.444C15.4672 17.3285 15.3811 17.2708 15.2664 17.2419C15.1516 17.2419 15.0656 17.1552 15.0082 17.0686C14.9221 17.0975 14.8648 17.0686 14.8074 17.0108C14.7787 16.9531 14.7213 16.8953 14.6639 16.8376L14.6639 16.8375L14.6352 16.8087H14.6066C14.6639 16.7509 14.7213 16.6643 14.7213 16.6354L14.75 16.6065H14.7787C15.1803 16.6643 15.6107 16.6643 16.0123 16.6643C16.3852 16.6643 16.7295 16.6643 17.1025 16.6065H17.1311L17.1885 16.6354C17.2172 16.6643 17.2387 16.7004 17.2602 16.7365L17.2602 16.7365L17.2603 16.7365C17.2818 16.7726 17.3033 16.8087 17.332 16.8375V17.0975H17.3033C16.9877 17.1841 16.6721 17.4729 16.6721 17.704C16.6721 17.8773 16.7008 17.8773 16.7008 17.8773C16.7869 17.935 16.8156 18.0217 16.7869 18.1083C16.7869 18.1949 16.7582 18.2816 16.6721 18.3394C16.6434 18.3394 16.6148 18.3971 16.6148 18.4549C16.6148 18.6158 16.6238 18.882 16.6348 19.2024L16.6348 19.2026L16.6348 19.2026V19.2027V19.2027L16.6348 19.2027V19.2028C16.6514 19.6873 16.6721 20.2958 16.6721 20.852C16.6721 21.2274 16.6721 21.6029 16.6148 21.9783C16.6434 22.0361 16.6721 22.0939 16.6721 22.1516C16.6721 22.1805 16.6793 22.2166 16.6865 22.2527L16.6865 22.2527L16.6865 22.2527C16.6936 22.2888 16.7008 22.3249 16.7008 22.3538H16.7295L16.7869 22.7581L16.7582 22.787C16.7439 22.8014 16.7223 22.8159 16.7008 22.8303C16.6793 22.8448 16.6578 22.8592 16.6434 22.8736C16.5861 22.9603 16.5574 23.0758 16.5574 23.1913C16.5574 23.259 16.5672 23.3267 16.5754 23.3827L16.5754 23.3827L16.5754 23.3827C16.5811 23.4224 16.5861 23.4562 16.5861 23.4801V23.6245C16.5861 23.7401 16.5861 23.8845 16.6148 24C16.6148 24.0866 16.6148 24.2599 16.6434 24.3466V24.3755H16.6721C16.6721 24.4231 16.6808 24.4708 16.6886 24.5137C16.695 24.5487 16.7008 24.5805 16.7008 24.6065C16.7008 24.6931 16.7008 24.8087 16.6721 24.8953V24.9242H16.6434C16.6291 24.9386 16.6076 24.9531 16.5861 24.9675L16.5861 24.9675C16.5645 24.9819 16.543 24.9964 16.5287 25.0108C16.4713 25.0686 16.4139 25.1552 16.4139 25.2419C16.4656 25.45 16.494 25.6817 16.5201 25.8945V25.8945L16.5287 25.9639V26.0217C16.5574 26.1949 16.6148 26.3394 16.7008 26.4838L16.7295 26.5126L16.6721 27.4657H16.6434C16.6291 27.4801 16.6076 27.4946 16.5861 27.509L16.5861 27.509C16.5645 27.5235 16.543 27.5379 16.5287 27.5523C16.5 27.5812 16.4713 27.639 16.4713 27.6968C16.4713 27.7834 16.5 27.8989 16.5287 27.9856C16.6032 28.267 16.6051 28.2681 16.8097 28.3848C16.92 28.4477 17.0893 28.5442 17.3607 28.7365H17.3893L17.4754 29.1986ZM20.1434 31.9422H21.8934L21.7787 31.769C21.75 31.7256 21.7213 31.6751 21.6926 31.6245C21.6639 31.574 21.6352 31.5235 21.6066 31.4801L21.5492 31.3646V31.3357V29.7473H21.4918C21.4918 29.7473 20.373 29.7184 19.2541 29.7184C18.7377 29.7184 18.2213 29.7184 17.8484 29.7473C17.7049 29.7473 17.5328 29.7762 17.3893 29.8051C17.332 29.8051 17.2459 29.8628 17.2172 29.9206C17.0451 30.0361 16.8156 30.0939 16.6148 30.0939C16.3795 30.0939 16.1442 30.0245 15.9493 29.967C15.8115 29.9264 15.6938 29.8917 15.6107 29.8917H15.5533C15.3811 29.9783 15.2664 30.065 15.1803 30.2094C15.0656 30.2383 14.9221 30.2383 14.8074 30.2383C14.7103 30.2383 14.62 30.2315 14.5266 30.2245H14.5266H14.5266H14.5266C14.4268 30.2171 14.3235 30.2094 14.2049 30.2094C14.2336 30.065 14.1762 29.9206 14.0615 29.8339V29.8051C14.067 29.794 14.0725 29.7818 14.0782 29.7692L14.0782 29.7691L14.0783 29.7691C14.1023 29.7161 14.1299 29.6551 14.1762 29.6318H14.2049V28.7942C14.2623 28.7653 14.291 28.7365 14.3197 28.7076L14.3484 28.6787V28.1011C14.4344 28.0433 14.4918 27.9567 14.4631 27.8412V27.8123C14.4631 27.7256 14.4344 27.639 14.3484 27.5812C14.3566 27.552 14.3637 27.5252 14.3702 27.5007C14.4087 27.3552 14.4265 27.2882 14.5492 27.2635H14.6066V27.2347V26.7726V26.5126V26.4838H14.5779C14.5205 26.4549 14.4918 26.426 14.4631 26.3971V25.5018C14.5205 25.4729 14.5492 25.444 14.5779 25.4152H14.6066V25.3863C14.6066 25.3863 14.6639 24.3177 14.6639 23.509C14.6639 23.2202 14.6352 22.9314 14.5779 22.6426C14.4918 22.556 14.4057 22.4693 14.3197 22.4116V19.7545C14.377 19.7256 14.4057 19.6968 14.4344 19.6679V19.6101V19.0325H14.4057C14.291 18.9747 14.2049 18.8881 14.1762 18.7726C14.1762 18.6859 14.2336 18.6282 14.291 18.5993L14.3197 18.5704V17.2996H14.291C14.0902 17.0975 13.918 16.8953 13.7459 16.6931C13.7172 16.6643 13.6885 16.6643 13.6598 16.6643C13.6262 16.6643 13.5926 16.6742 13.5648 16.6824C13.5451 16.6882 13.5283 16.6931 13.5164 16.6931C13.373 16.6643 13.2582 16.5776 13.2295 16.4332V16.4043H12.2254C12.2111 16.3899 12.1967 16.3682 12.1824 16.3466C12.168 16.3249 12.1537 16.3032 12.1393 16.2888V16.2599H11.9098V16.3177C11.9098 16.4043 11.8525 16.491 11.7951 16.5487L11.7664 16.5776L11.8238 16.6065C12.3002 16.9462 12.3508 17.0785 12.3843 17.1661C12.3992 17.2051 12.4107 17.2352 12.4549 17.2708L12.5123 17.2996V17.2708H12.5697C12.6844 17.2708 12.7705 17.2996 12.8279 17.3574C12.9426 17.5596 13.0287 17.8195 13.0574 18.0505C13.0287 18.2816 12.9713 18.4838 12.8566 18.657L12.8279 18.7148L12.8566 18.7437C12.9139 18.7726 12.9426 18.8014 12.9713 18.8303C13 18.917 13 19.0325 13 19.148C13 19.2913 12.989 19.4457 12.9806 19.563C12.9754 19.6348 12.9713 19.6927 12.9713 19.7256C12.9139 19.8123 12.8279 19.8989 12.7418 19.9567H12.7131V20.9964H12.7418C12.7992 21.0253 12.8279 21.0542 12.8566 21.083V22.9892H12.8852C12.9426 23.0758 13 23.1625 13 23.278V23.3069C12.9713 23.4224 12.9426 23.509 12.8566 23.5957H12.8279V24.9531C12.7705 24.9819 12.7418 25.0108 12.7131 25.0397H12.6844V25.0686C12.6557 25.213 12.6557 25.3863 12.6557 25.5307C12.6557 25.6751 12.6557 25.8195 12.6844 25.9639C12.6844 25.9928 12.6557 26.0505 12.5984 26.0505H12.5697V27.7834L12.5984 27.8123C12.7131 27.8989 12.8279 28.0144 12.8279 28.1588V28.2455L12.7131 28.3321H12.6844V28.7942C12.627 28.8231 12.5984 28.852 12.5697 28.8809H12.541V29.9206L12.5697 29.9495C12.627 29.9495 12.6844 30.0072 12.6844 30.065C12.6557 30.1516 12.627 30.1805 12.5697 30.2094H12.541V30.787C12.3737 30.9401 12.3032 30.9958 12.2524 31.0359C12.2075 31.0714 12.1781 31.0946 12.1107 31.1625L11.7377 31.3646V31.3935C11.7377 31.4801 11.6803 31.5379 11.623 31.5957L11.5943 31.6245L11.623 31.6534C11.6803 31.6823 11.709 31.7112 11.7377 31.769L11.7951 31.8267L11.8238 31.7978C11.9385 31.7401 12.0533 31.7401 12.1967 31.7401H12.1967C12.4549 31.7401 12.7131 31.769 12.9426 31.7978H12.9713V31.769C13.0115 31.6474 13.3339 31.4123 13.5526 31.2528C13.6458 31.1848 13.7202 31.1306 13.7459 31.1047H14.2049C14.3484 31.1336 14.4631 31.1913 14.5779 31.278V31.3069H15.123C15.9262 31.3069 17.4754 31.3069 17.7049 31.3357C17.7623 31.4513 17.877 31.509 17.9918 31.509H19.1967C19.2541 31.5957 19.3402 31.6534 19.4262 31.6534H19.5123C19.5697 31.6534 19.5984 31.7112 19.627 31.769V31.7978H20.0574C20.0717 31.8123 20.0861 31.8339 20.1004 31.8556C20.1148 31.8773 20.1291 31.8989 20.1434 31.9134V31.9422ZM40.3975 16.0866C40.7992 16.0866 40.8852 16.231 40.8852 16.3466V16.8664C40.8852 16.9819 40.7992 17.1264 40.3975 17.1264C39.9959 17.1264 39.9098 16.9819 39.9098 16.8664V16.3466C39.9098 16.231 39.9959 16.0866 40.3975 16.0866ZM40.2541 16.722V16.9819V17.0108H40.1967C40.1967 17.0108 40.168 17.0108 40.168 16.9819V16.2888V16.2599H40.4262C40.6557 16.2599 40.6844 16.3755 40.6844 16.4621V16.5199C40.6844 16.6065 40.627 16.6931 40.541 16.6931L40.6557 16.9531V16.9819H40.5984C40.5984 16.9819 40.5697 16.9819 40.5697 16.9531L40.4549 16.6931L40.2541 16.722ZM40.4262 16.6354H40.2541V16.3466H40.4262H40.4549C40.5123 16.3177 40.5984 16.3755 40.5984 16.4621V16.491V16.5199C40.5697 16.6065 40.5123 16.6643 40.4262 16.6354Z" fill="white"/>
</svg>
