<svg width="48" height="48" viewBox="0 0 48 48" fill="none" xmlns="http://www.w3.org/2000/svg">
<circle cx="24" cy="24" r="24" fill="#ED1D24"/>
<path fill-rule="evenodd" clip-rule="evenodd" d="M37.2821 18.0018V20.37H35.1837V23.3044H37.2822V25.6763H35.1837V28.6555H37.2822V30.9917H32.8613V19.2173L30.9985 30.9917L28.2722 31C28.2722 31 26.8817 22.6615 26.879 22.6433V22.6442C27.1038 23.9911 26.2592 25.3991 25.5112 25.9535L26.9872 30.9917H26.9844H26.9804L26.9813 30.9944H26.9786H24.6918H24.689L23.5643 26.6958L23.021 26.7751V30.9917H23.0182H23.0154V30.9944H23.0118L18.5801 30.9917L18.3071 28.9929H16.4897L16.2157 30.9917H11.7017V24.7307L10.6515 30.9917H9.40665L8.34154 24.7307V30.9918H6V18.0018H8.97346L10.0172 24.7133L11.0888 18.0017H14.0613L14.0604 29.9486L15.8486 18L18.9545 18.0018L20.683 29.5336L20.6921 18.0018C20.6921 18.0018 23.0527 18.0009 23.0668 18.0018C25.2035 18.0018 26.1744 19.5721 26.4484 20.1129L26.1827 18.0018H28.5542L29.6244 25.9134L30.7059 18.0018H37.2821ZM17.4084 21.3795L16.7655 26.9329H18.0759L17.4084 21.3795ZM23.5718 24.3687C23.3917 24.4562 23.2038 24.5 23.0208 24.5V20.3216C23.0223 20.3216 23.0238 20.3215 23.0255 20.3213C23.0264 20.3212 23.0272 20.3211 23.0281 20.321C23.0294 20.3209 23.0308 20.3208 23.0322 20.3208C23.2156 20.3199 24.5828 20.3764 24.5828 22.388C24.5828 23.4403 24.1178 24.1033 23.5718 24.3687ZM42 30.9899V28.6536H40.0094V18H37.6874V30.9899H42Z" fill="white"/>
</svg>
