<svg width="48" height="48" viewBox="0 0 48 48" fill="none" xmlns="http://www.w3.org/2000/svg">
<circle cx="24" cy="24" r="24" fill="#F7F7F7"/>
<path fill-rule="evenodd" clip-rule="evenodd" d="M26.1199 11.0253C27.6 11.0253 28.478 11.9611 29.1805 12.7198C29.4815 13.0739 29.9582 13.7568 30.6105 14.3891C31.1875 14.9455 33.2697 16.1595 35.6279 19.7004C40.0683 26.3521 42 31.2082 42 32.2198C42 32.4728 41.8997 32.5486 41.7491 32.5486C41.2474 32.5486 40.0934 31.7899 39.2906 31.1829L39.2655 31.2082C39.5164 31.8405 40.2941 34.0409 40.5199 34.6984C40.5951 34.9008 40.6453 35.0525 40.6453 35.2549C40.6453 35.4572 40.5951 35.5837 40.4948 35.6848C40.3693 35.786 40.269 35.8366 40.0432 35.8366H39.115C38.7387 35.8366 38.5882 35.9125 38.3624 36.1401C38.0362 36.4436 37.9861 36.4942 37.7101 36.7724C37.5596 36.9241 37.384 37 37.2084 37C36.8321 37 36.6564 36.7471 36.5561 36.2918C36.0544 33.6109 35.6028 30.677 35.4774 29.8677C35.4774 29.8171 35.4523 29.7412 35.4523 29.6907C35.4523 29.6148 35.4774 29.5642 35.5777 29.5642C35.678 29.5642 35.7031 29.6654 35.7533 29.8424C35.9289 30.6265 36.6815 33.4339 37.1582 35.7101C37.1833 35.8872 37.2836 35.963 37.384 35.963C37.4592 35.963 37.5094 35.9377 37.6098 35.8366L38.0362 35.4066C38.1366 35.3054 38.1617 35.2549 38.1617 35.1284C38.1617 35.0019 38.1115 34.8249 38.0613 34.6479C37.9861 34.2685 37.7854 33.1809 37.5847 32.2451C37.5596 32.0681 37.5345 32.0175 37.5345 31.9669C37.5345 31.9163 37.5847 31.8658 37.6348 31.8658C37.685 31.8658 37.7352 31.8911 37.7603 31.9669C37.9108 32.3969 38.6132 34.4708 38.7387 34.8502C38.7888 34.9514 38.839 35.0272 38.8892 35.0778C38.9394 35.1284 39.0146 35.1537 39.1902 35.1537L39.6233 35.1536C39.7031 35.1531 39.7477 35.1481 39.7923 35.1031C39.8174 35.0778 39.8425 35.0272 39.8425 34.9514C39.8425 34.8502 39.7923 34.749 39.7673 34.6479L38.4125 30.7023C36.6314 29.4125 34.499 27.642 32.6174 25.5681C30.7359 23.4942 28.9547 20.9903 28.3024 18.2082C28.2272 17.9047 28.2021 17.7529 28.2021 17.677C28.2021 17.6265 28.2272 17.5759 28.3024 17.5759C28.3777 17.5759 28.4028 17.6012 28.4279 17.677C28.5031 17.8541 28.5533 18.0058 28.6537 18.1829C29.8578 20.8638 31.2627 22.9883 32.8432 24.8093C35.101 27.3638 37.8857 29.4377 41.0969 31.6381L41.122 31.6128C39.993 28.5019 37.9861 24.5058 34.9254 20.0039C34.0725 18.7393 33.2697 17.8035 32.5672 17.07C31.3631 15.8054 30.5603 15.3755 30.1589 14.9961C29.5568 14.4397 29.0551 13.6809 28.7289 13.3268C28.0265 12.5428 27.324 11.784 26.1449 11.784C25.1916 11.784 24.4641 12.3152 24.138 13.1498C24.0376 13.428 24.0125 13.6051 23.9122 13.7568C23.8118 13.9339 23.6362 14.2374 23.4355 14.5661H24.3136L23.8118 15.4514C24.0125 15.4008 24.439 15.2996 24.9157 15.2996C25.4927 15.2996 26.1199 15.4514 26.4209 16.0331C26.8725 16.9183 26.7972 18.9163 27.299 20.3327C27.8258 21.7996 28.8042 23.1401 29.9833 24.3288C30.0084 24.3794 30.0335 24.3794 30.0335 24.43C30.0335 24.4805 29.9833 24.5311 29.908 24.5311C29.908 24.5311 29.8829 24.5311 29.8578 24.5058C28.4279 23.4183 27.1484 22.0272 26.6467 20.6109C26.0697 19.0934 26.0697 17.07 25.7436 16.4125C25.5679 16.0584 25.1415 15.9319 24.5895 15.9319C23.9624 15.9319 23.4606 16.0331 22.8084 16.1848L23.3854 15.0973H22.2063C22.4822 14.6673 23.0843 13.5798 23.2348 13.3521C23.3101 13.251 23.3603 12.9728 23.4606 12.7451C23.7617 11.9611 24.6899 11.0253 26.1199 11.0253ZM32.0906 26.9086C32.2662 27.035 32.4669 27.1615 32.7178 27.3132C31.8648 29.2607 30.3596 30.9553 28.6035 31.9416C27.8007 32.3969 27.0732 32.7257 25.5429 32.7257H22.5575C21.5289 32.7257 21.0523 32.8268 20.5756 32.9533C19.9484 33.1304 19.522 33.2821 18.8446 33.2821C17.6404 33.2821 16.6369 32.6498 16.2355 32.1946L13.4258 34.3949C12.5728 35.0778 11.7951 35.2043 10.9422 35.2043H10.7916V34.9767C10.7916 34.8249 10.8418 34.6984 10.9171 34.6226C10.9923 34.572 11.0676 34.5214 11.2683 34.5214C11.7199 34.5214 12.2467 34.3949 12.6732 34.142C13.0997 33.8891 13.3756 33.5856 13.3756 32.7763C13.3756 31.7393 13.0495 31.3852 11.6948 30.93L12.347 30.5253C13.3254 30.93 13.9777 31.2588 13.9777 32.6751C13.9777 32.8016 13.9777 32.9027 13.9526 33.0292L13.9777 33.0545C14.5045 32.6498 16.9882 30.8035 17.1889 30.6518L17.5401 31.107L16.8376 31.6634C17.2139 32.0681 17.9916 32.4728 18.8195 32.4728C19.3965 32.4728 19.7477 32.321 20.2997 32.1693C20.8516 32.0175 21.5038 31.8911 22.5575 31.8911H25.5178C26.8976 31.8911 27.5247 31.6381 28.2272 31.2335C29.7073 30.3988 31.1373 28.9319 32.0906 26.9086ZM12.0711 20.8638L11.7951 21.4455C11.5192 21.4455 8.9101 21.7237 8.9101 22.4572C8.9101 23.0895 10.5408 23.7218 11.193 23.7218C11.469 23.7218 11.7199 23.6206 11.9958 23.4942C12.2718 23.393 12.5226 23.2918 12.899 23.2918C13.6767 23.2918 15.2321 23.8988 16.2105 24.4553L16.085 24.6576C16.0098 24.8093 15.9094 24.8599 15.7589 24.8599C15.7087 24.8599 15.6585 24.8599 15.6084 24.8346C14.7303 24.4805 13.7017 24.0759 12.899 24.0759C12.5477 24.0759 12.2969 24.177 12.046 24.2782C11.7951 24.3794 11.4941 24.5058 11.1679 24.5058C10.5408 24.5058 9.38676 24.0253 8.88502 23.57C8.83484 23.6965 8.78467 23.823 8.78467 23.9747C8.78467 24.7082 10.1394 25.8463 11.4188 26.1751L11.5443 26.7821C10.6662 26.6809 9.91359 26.4027 9.33659 25.9475C9.26132 26.0739 9.23624 26.2004 9.23624 26.3016C9.23624 26.5545 9.36167 26.7821 9.43693 26.8833C9.56237 27.1109 10.2648 27.8949 10.3652 28.0214C10.6662 28.3502 10.8669 28.4008 11.0927 28.4008C11.2934 28.4008 11.4439 28.3502 11.6195 28.2996C11.77 28.2743 11.9456 28.2237 12.1463 28.2237C12.5979 28.2237 13.1749 28.4514 13.8272 28.8307C14.4794 29.2101 15.1066 29.6907 15.5833 30.2471L15.0314 30.6518C14.6049 30.1965 14.053 29.7665 13.5512 29.463C12.924 29.0837 12.4474 28.9066 12.0209 28.9066C11.6446 28.9066 11.3185 29.0584 10.9422 29.2101C9.6878 29.7412 7.98188 30.4241 7.65575 30.5759C6.80279 30.9553 6.7777 31.4358 6.7777 31.9669V32.5992C6.7777 32.8774 6.72753 33.1556 6.25087 33.1556H6.02509C6 32.8016 6 32.3716 6 31.9922C6 31.0311 6.30105 30.4241 7.48014 29.9183C7.83136 29.7665 9.28641 29.1342 10.0892 28.8307L9.8885 28.6284C8.93519 27.6167 8.45854 27.0856 8.45854 26.2257C8.45854 25.821 8.58397 25.6187 8.58397 25.4416C8.58397 25.214 8.38328 25.037 8.20767 24.7588C8.05714 24.4805 7.90662 24.177 7.90662 23.9494C7.90662 23.57 8.05714 23.3677 8.05714 23.0389C8.05714 22.786 7.90662 22.6595 7.90662 22.4066C7.90662 21.5214 10.1895 20.8638 12.0711 20.8638ZM29.8829 25.6946C30.0084 25.7957 30.2592 25.9728 30.4348 26.0739C28.754 26.9844 28.0516 28.072 27.299 29.3113C27.3742 29.3366 27.4997 29.3619 27.6251 29.3366C28.4028 29.3366 29.0551 28.8813 29.8077 28.2743L29.8328 28.5272C29.8578 28.6031 29.8578 28.6537 29.8578 28.7296C29.8578 28.8813 29.8328 29.0078 29.6321 29.1595C29.1052 29.5895 28.2523 30.0447 27.4244 30.0447C27.1986 30.0447 27.023 29.9942 26.8223 29.9436C25.3923 30.8288 23.1596 31.2082 20.7763 31.2082H20.3247L20.3749 30.9805C20.4 30.8288 20.4753 30.7276 20.5254 30.677C20.5756 30.6012 20.6509 30.5759 20.8516 30.5759C21.278 30.5759 22.6829 30.5253 23.5359 30.323C23.3101 29.7412 22.8836 28.9825 22.2314 28.9825C21.8049 28.9825 21.2028 29.2101 20.5505 29.4883C19.7728 29.8171 19.0202 30.1965 18.7443 30.3482L18.393 29.8677C18.6439 29.6907 19.4467 29.2607 20.3498 28.856C21.1275 28.5272 21.7798 28.2237 22.3568 28.2237C23.1847 28.2237 23.9624 29.1848 24.2634 30.1459C24.7902 30.0447 25.2167 29.893 25.5429 29.7665C26.8725 29.2354 26.7721 28.4767 28.0265 27.1362C28.5784 26.5545 29.2307 25.9728 29.8829 25.6946ZM13.0997 24.8852C13.7017 24.8852 14.0279 25.1887 14.3289 25.7198C14.5798 26.1751 14.7805 26.6809 15.0564 27.0856C15.7087 28.0467 16.4613 28.4261 17.3143 28.4261C18.0669 28.4261 18.9449 28.1226 19.7728 27.642L19.8983 28.2237C19.0453 28.7043 18.1422 29.0331 17.2641 29.0331C16.2355 29.0331 15.1568 28.5778 14.3791 27.4144C14.078 27.465 13.5512 27.5661 12.8237 27.5661C12.5477 27.5661 12.3972 27.5661 12.2718 27.5156C12.1714 27.465 12.1463 27.3891 12.1213 27.2626L12.0711 26.9844H12.347C12.924 26.9844 13.7017 26.9339 14.0279 26.8074L13.9024 26.5545C13.5763 25.8463 13.3505 25.5681 12.8739 25.5681C12.5728 25.5681 12.347 25.644 12.046 25.7451C11.9958 25.7451 11.9456 25.7957 11.8453 25.7957C11.6697 25.7957 11.5944 25.6693 11.5443 25.4669L11.5192 25.3405C12.046 25.1128 12.5728 24.8852 13.0997 24.8852ZM28.2272 24.6323C28.3526 24.7335 28.5282 24.8599 28.7038 24.9864L28.3777 25.3911C27.1484 26.9591 26.1199 28.2996 25.292 28.2996C24.4892 28.2996 24.2132 27.3638 24.1882 26.6556C22.9589 26.7821 21.8049 27.2121 20.6258 27.9202L20.4753 27.3385C21.7798 26.6304 22.9589 26.0739 24.8906 25.8716C24.9408 26.6051 24.8655 27.5409 25.4174 27.5409C25.9192 27.5409 26.9979 26.251 28.2272 24.6323ZM33.3199 21.9261C33.3449 21.9261 33.3951 21.9767 33.4453 22.0272C34.0976 22.8619 34.8502 23.6965 35.5777 24.4805C36.5059 25.4922 37.5094 26.5292 38.4376 27.3638C38.4627 27.4144 38.4878 27.4397 38.4878 27.465C38.4878 27.5409 38.4376 27.5914 38.3875 27.5914C38.3373 27.5914 38.3122 27.5661 38.262 27.5409L37.961 27.3132C36.9826 26.6051 36.0544 25.7957 35.2516 24.9611C34.499 24.177 33.8969 23.3424 33.4202 22.5078C33.2446 22.2296 33.1944 22.1284 33.1944 22.0272C33.1944 21.9767 33.2446 21.9261 33.3199 21.9261ZM19.1707 24.1012L19.547 24.5817C18.669 24.9358 16.9129 25.6946 16.9129 26.3521C16.9129 26.5798 17.0383 26.7568 17.5652 26.7568C18.4934 26.7568 19.4969 26.3016 20.4251 25.8463C20.5003 25.821 20.5756 25.7957 20.6509 25.7957C20.7763 25.7957 20.8516 25.8463 20.9268 25.9475L21.0774 26.1498C19.9986 26.7568 18.6439 27.3891 17.4146 27.3891C16.5617 27.3891 16.1854 26.9844 16.1854 26.4533C16.1854 25.5428 17.7659 24.6576 19.1707 24.1012ZM27.2488 23.7218C27.3491 23.8482 27.5498 24.0253 27.7003 24.177C27.4997 24.3035 26.3456 24.9358 25.1665 24.9358C24.6397 24.9358 24.138 24.8852 23.7115 24.8093C23.3352 24.7588 22.9087 24.7082 22.5324 24.7082C22.0808 24.7082 21.2028 24.8346 20.676 25.0875L20.2997 24.607C21.1024 24.0506 21.9303 23.9747 22.5826 23.9747C22.984 23.9747 23.4606 24.0253 23.9373 24.1012C24.3387 24.1518 24.6899 24.2023 25.1164 24.2023C25.9944 24.2023 26.8725 23.8735 27.2488 23.7218ZM22.6077 17.4241L22.131 18.5875L23.2098 19.0681C22.4321 19.5486 21.6544 20.5097 21.3784 21.5214C21.2028 22.1284 21.1777 22.8113 21.1526 23.2412V23.393C21.1275 23.4436 21.0774 23.4942 21.0272 23.4942C20.977 23.4942 20.9519 23.4436 20.9268 23.393C20.8014 22.9883 20.7261 22.5078 20.7261 22.0019C20.7261 20.5856 21.6794 19.4222 22.131 19.144L21.4286 18.8658L21.7296 18.1576L21.6042 18.2082C21.4537 18.284 21.278 18.3346 21.0523 18.3346C20.7261 18.3346 20.5003 18.2335 20.124 18.2335C19.7226 18.2335 19.3463 18.3599 19.0704 18.6381C18.6941 19.0175 18.5937 19.4222 18.5686 19.8016C18.5436 19.928 18.5436 20.0545 18.5436 20.1809C18.5185 20.9144 18.393 21.1673 18.0167 21.7237C17.6404 22.3307 17.0383 23.1654 16.5868 23.823C16.4362 23.7471 16.0599 23.5195 15.9345 23.4689C16.3108 22.786 16.7875 22.1284 17.1638 21.6479C17.6153 21.0409 17.7659 20.8385 17.8662 19.9786C17.9164 19.3463 17.9415 18.6634 18.6188 18.0058C18.97 17.6518 19.522 17.4494 20.0237 17.4494C20.2997 17.4494 20.5003 17.5 20.676 17.5506C20.9268 17.6265 21.1275 17.6518 21.3031 17.6518C21.554 17.6518 21.8049 17.5759 22.1059 17.5253L22.6077 17.4241ZM18.6188 13.4533C19.0955 13.4533 19.3463 13.5545 19.8481 13.7821C20.1993 13.9591 20.5003 13.9591 20.9268 13.9591H21.6042L20.8767 15.0214L21.83 15.7549C20.4753 16.1848 20.1993 16.4883 19.823 16.9436C19.7226 17.0953 19.6725 17.1459 19.5721 17.1459C19.4969 17.1459 19.4718 17.0953 19.4718 17.0447C19.4718 17.0195 19.4969 16.9689 19.522 16.893C19.6474 16.5642 20.0488 15.8307 20.8014 15.6031L20.1993 15.1732L20.6509 14.5661C20.5756 14.5914 20.5003 14.5914 20.3749 14.5914C20.0488 14.5914 19.9233 14.5661 19.6223 14.4397C19.2711 14.2879 19.0453 14.2121 18.7192 14.2121C18.3429 14.2121 17.9916 14.3385 17.6906 14.6167C17.3645 14.9455 17.2892 15.3755 17.1638 15.856C16.8376 17.2218 16.3108 17.8035 15.4578 18.8152L15.1819 19.144C14.354 20.1304 13.777 21.4202 13.3254 22.356L13.2251 22.5584L12.833 22.5584C12.6599 22.5587 12.5087 22.5612 12.3972 22.5837C13.1749 20.6615 13.6265 19.8016 14.5296 18.7393C15.207 17.93 15.4077 17.7276 15.7087 17.2977C16.0599 16.7665 16.2355 16.2354 16.3359 15.7043C16.5115 15.072 16.662 14.4903 17.1387 14.035C17.5652 13.6556 18.0669 13.4533 18.6188 13.4533ZM25.5429 21.0156L25.7937 21.572H22.5324L22.8585 21.0156H25.5429ZM14.7052 11C15.1317 11 15.508 11.1518 15.784 11.43C16.085 11.7082 16.2606 12.1128 16.2606 12.5175C16.2606 12.9728 16.0599 13.2763 15.8592 13.4533C15.9094 13.5545 15.9345 13.6809 15.9345 13.8327C15.9345 14.3891 15.5331 15.072 14.8557 15.2996C14.7805 15.9572 14.078 16.3619 13.3756 16.3619C13.2 16.3619 13.1498 16.3366 13.1498 16.2354C13.1498 16.1089 13.5261 16.1089 13.9024 15.7296C14.1282 15.5272 14.2787 15.2237 14.354 14.8949C14.931 14.6926 15.2571 14.3132 15.2571 13.7821C15.2571 13.6304 15.2321 13.4786 15.1819 13.3268C15.3826 13.1498 15.508 12.8969 15.508 12.6187C15.508 12.1381 15.1317 11.7588 14.6551 11.7588C14.3038 11.7588 14.0028 11.9611 13.8774 12.2646C12.9742 12.2646 12.347 12.9981 12.3721 13.8327C12.1463 14.0603 12.0209 14.3132 11.9456 14.642C11.8955 14.8191 11.8955 14.9455 11.77 14.9455C11.6697 14.9455 11.6446 14.7938 11.6195 14.642C11.5693 14.3132 11.3436 13.5545 10.4404 13.4533C10.315 12.5681 9.53728 12.1128 8.83484 12.1128C8.68432 12.1128 8.5338 12.1128 8.40836 12.1634C8.23275 11.9611 7.98188 11.8093 7.70592 11.8093C7.22927 11.8093 6.85296 12.1887 6.85296 12.6693C6.85296 13.0486 7.05366 13.3521 7.37979 13.4786V13.5292C7.37979 14.4144 8.08223 15.1732 9.03554 15.1732C9.26132 15.7802 9.73798 16.0331 10.1394 16.1089C10.2146 16.1089 10.2899 16.1342 10.3401 16.1595C10.3902 16.1848 10.4153 16.2354 10.4153 16.286C10.4153 16.3366 10.3902 16.3872 10.3401 16.4125C10.2899 16.4377 10.2397 16.4377 10.1394 16.463C9.68781 16.5136 9.38676 16.7412 9.26132 16.9436C9.16098 16.9183 9.03554 16.9183 8.93519 16.9183C8.08223 16.9183 7.40488 17.3482 7.3547 17.9805C7.02857 18.107 6.80279 18.4358 6.80279 18.7899C6.80279 19.2957 7.15401 19.6498 7.65575 19.6498C7.88153 19.6498 8.08223 19.5739 8.28293 19.3716C8.50871 19.5233 8.73449 19.5992 9.01045 19.5992C9.41185 19.5992 9.73798 19.3969 10.0139 18.9922C10.5659 18.9922 11.1178 18.8658 11.469 18.537C11.6446 18.4105 11.6446 18.3093 11.7449 18.3093C11.8202 18.3093 11.8453 18.3599 11.8453 18.4358C11.8453 18.4864 11.7951 18.5875 11.7449 18.714C11.5192 19.1946 11.0174 19.5739 10.4655 19.5739H10.315C9.98885 20.0798 9.5122 20.2315 9.06063 20.2315C8.85993 20.2315 8.63415 20.1809 8.48362 20.1304C8.28293 20.2821 7.95679 20.4086 7.65575 20.4086C6.75261 20.4086 6.05017 19.7257 6.05017 18.7899C6.05017 18.3093 6.32613 17.8035 6.80279 17.6012C6.80279 17.0953 7.45505 16.3366 9.01045 16.3366H9.1108V16.2354C8.85993 16.1848 8.63415 15.9319 8.63415 15.7549C7.50523 15.7549 6.75261 14.6673 6.75261 13.9591V13.858C6.27596 13.5292 6.02509 13.1498 6.02509 12.5934C6.02509 11.7082 6.72753 11 7.60557 11C8.05714 11 8.38328 11.1518 8.68432 11.43C8.80976 11.4047 8.93519 11.4047 9.06063 11.4047C10.039 11.4047 10.6411 12.0875 10.9171 12.8969C11.2683 12.9222 11.6697 13.1751 11.7199 13.5545H11.8453C11.8453 12.4416 12.7233 11.6829 13.4258 11.6829C13.6516 11.3288 14.078 11 14.7052 11ZM20.3498 18.7646C20.4753 18.7646 20.6007 18.7899 20.7261 18.8658C20.8265 18.9163 20.8516 19.0175 20.8516 19.0934C20.8516 19.3716 20.4 19.6751 20.1491 19.6751C19.9986 19.7004 19.8983 19.5486 19.8983 19.321C19.8983 19.2704 19.8983 19.1693 19.9233 19.0934C19.9735 18.9416 20.0739 18.7646 20.3498 18.7646ZM11.8955 16.1342C12.2467 16.5136 13.0495 17.4747 13.5261 18.4611C13.4007 18.5623 13.1247 18.9669 13.0244 19.1187C12.4976 17.8794 11.9206 16.893 11.5944 16.4125L11.8955 16.1342ZM42 15.4514V16.2354C41.2223 16.5136 39.8425 17.07 39.0899 17.3988C38.9895 17.4494 38.9645 17.4747 38.9143 17.5253C38.9143 17.6012 39.0146 17.6518 39.2906 17.6518C39.7923 17.6518 40.5199 17.5 41.2223 17.3735V17.9553C40.0778 18.2378 39.3465 18.2573 38.5222 18.2587L38.3373 18.2588C37.685 18.2588 36.9826 18.4864 36.1798 18.8152C36.1296 18.7646 35.8035 18.284 35.7533 18.2335C37.6599 17.1965 40.4195 16.0331 42 15.4514ZM10.7916 17.2977L10.9171 17.677L8.58397 18.4611C8.48362 18.4864 8.45854 18.5117 8.43345 18.5117C8.35819 18.5117 8.3331 18.4611 8.3331 18.4105C8.3331 18.3599 8.35819 18.3346 8.38328 18.3093C9.16098 17.7023 9.86341 17.4494 10.7916 17.2977ZM37.6098 11.784C37.2836 12.4416 36.7819 13.6051 36.7819 14.4144C36.7819 14.7938 36.9073 15.072 37.4091 15.072C37.8606 15.072 38.6383 14.8444 39.4662 14.6167C40.2188 14.3385 40.9463 14.0603 41.2976 13.9591V14.7179C40.9714 14.7938 40.3693 15.0467 39.6669 15.2743C38.839 15.5525 37.961 15.8307 37.4091 15.8307C36.5059 15.8307 36.1296 15.2996 36.1296 14.5661V14.4144H36.0293C35.4774 15.2743 34.9756 16.1342 34.524 16.6401L34.0474 16.1089C34.9003 15.072 36.4557 12.5681 36.8571 11.784H37.6098ZM18.8948 14.7938C19.0453 14.7938 19.1958 14.8444 19.3213 14.9708C19.3965 15.0214 19.4216 15.0973 19.4216 15.1732C19.4216 15.3249 19.2711 15.4767 19.0955 15.5778C18.97 15.6537 18.8195 15.7043 18.6941 15.7043C18.4934 15.7043 18.4181 15.5778 18.4181 15.3755C18.4181 15.0973 18.5686 14.7938 18.8948 14.7938ZM14.2286 13.1498C14.2787 13.1498 14.3289 13.2004 14.3289 13.251C14.3289 13.2763 14.3038 13.3016 14.2787 13.3521C13.8774 13.9339 13.1247 15.1479 12.8739 15.5019L12.5477 15.2996C12.7735 14.7685 13.0495 14.2879 13.3756 13.9339C13.6014 13.6556 13.8272 13.4533 14.078 13.251C14.1282 13.2004 14.1784 13.1498 14.2286 13.1498ZM8.50871 13.1498C8.98537 13.3521 9.38676 13.5545 9.73798 13.858C10.039 14.0856 10.315 14.3638 10.616 14.6926L10.3401 14.9961C10.0139 14.7179 8.93519 13.8327 8.38328 13.3521C8.3331 13.3016 8.30801 13.251 8.30801 13.2257C8.30801 13.1751 8.3331 13.1245 8.40836 13.1245C8.43345 13.1245 8.45854 13.1245 8.50871 13.1498ZM25.3672 12.8716C25.5178 12.8716 25.6432 12.8969 25.7436 12.9728C25.8941 13.0486 25.9944 13.1498 25.9944 13.251C25.9944 13.3774 25.869 13.4786 25.7185 13.6304C25.5429 13.7821 25.3171 13.9086 25.1415 13.9086C24.9157 13.9086 24.8404 13.6809 24.8404 13.5039C24.8404 13.2763 24.9659 12.8716 25.3672 12.8716Z" fill="#63513D"/>
</svg>
