<svg width="48" height="48" viewBox="0 0 48 48" fill="none" xmlns="http://www.w3.org/2000/svg">
<circle cx="24" cy="24" r="24" fill="white"/>
<path fill-rule="evenodd" clip-rule="evenodd" d="M9.77299 9.2159H16.1948V30.5003H10.8804L9.23705 9.79599C9.21241 9.4833 9.45944 9.2159 9.77299 9.2159ZM31.8048 9.2159H38.2266C38.5402 9.2159 38.7873 9.4833 38.7626 9.79599L37.1191 30.5003H31.8048V9.2159Z" fill="#F40027"/>
<path fill-rule="evenodd" clip-rule="evenodd" d="M9.49825 8H38.5017C38.9188 8 39.3202 8.17564 39.603 8.48182C39.8851 8.78722 40.0282 9.19999 39.9954 9.61424L37.6939 38.622C37.6326 39.3947 36.9765 40 36.2002 40H11.7997C11.0234 40 10.3674 39.3947 10.3061 38.622L8.00464 9.61424C7.97177 9.19999 8.11471 8.78722 8.39695 8.48182C8.6798 8.17564 9.08113 8 9.49825 8ZM39.6063 9.58336C39.6573 8.9403 39.1481 8.39031 38.5017 8.39031H9.49825C8.8518 8.39031 8.34257 8.9403 8.39366 9.58336L10.6951 38.5912C10.7407 39.1663 11.2216 39.6097 11.7997 39.6097H36.2002C36.7782 39.6097 37.2592 39.1663 37.3048 38.5912L39.6063 9.58336Z" fill="#231F20"/>
<path fill-rule="evenodd" clip-rule="evenodd" d="M21.8774 24.9506C20.5353 23.9479 20.3032 22.8913 20.2938 22.4911C20.2938 22.4911 19.9459 21.8469 19.9145 21.198C19.9134 21.1621 19.9081 21.109 19.9036 21.0647C19.9009 21.0372 19.8984 21.0131 19.8976 20.9985C19.8909 20.881 19.856 20.8861 19.7837 20.8966C19.7431 20.9026 19.6907 20.9103 19.6249 20.8988C19.5548 20.8867 19.4419 20.857 19.3879 20.8108C19.154 20.6106 19.0134 20.1216 18.9606 19.8165C18.897 19.4489 18.7758 19.0563 18.6577 18.6739C18.4852 18.1154 18.3193 17.5785 18.3492 17.1723C18.3722 16.8629 18.4354 16.7046 18.6363 16.6247C18.6541 16.6188 18.7069 16.6077 18.7375 16.6019C18.7486 16.5997 18.7548 16.5887 18.7508 16.578C18.6746 16.3762 18.5681 15.9312 18.4695 15.5007C18.4307 15.3313 18.3928 15.1895 18.3596 15.0652C18.2699 14.729 18.2145 14.5216 18.2684 14.2442C18.2966 14.0989 18.4121 14.0077 18.5339 13.9116C18.6361 13.8308 18.7428 13.7466 18.8061 13.6239C18.8651 13.5094 18.8445 13.4355 18.827 13.3728C18.8213 13.3523 18.8159 13.333 18.8138 13.314C18.7991 13.2551 18.7821 13.2027 18.7637 13.1551L18.7614 13.1492C18.7072 13.0117 18.6394 12.9142 18.5705 12.815C18.549 12.784 18.5273 12.7528 18.5059 12.7202C18.4826 12.6848 18.476 12.6408 18.4874 12.6001C18.5239 12.4687 18.6489 12.1916 19.0559 12.1573L19.0601 12.1568C19.0652 12.1558 19.0988 12.1577 19.146 12.1603C19.2624 12.1669 19.4619 12.1782 19.524 12.162C19.5293 12.1606 19.5375 12.1586 19.5476 12.1561C19.6097 12.141 19.7453 12.1079 19.748 12.0809C19.5312 12.0144 19.1771 11.6481 19.113 11.4516C19.0881 11.3753 19.1575 11.3638 19.2362 11.36C19.5368 11.345 20.2941 11.2787 20.616 10.5945C20.6354 10.553 20.6459 10.5077 20.6511 10.4621C20.6591 10.391 20.7061 10.2619 20.9295 10.191C20.9787 10.1711 21.0242 10.1516 21.0573 10.1362C21.1262 10.1045 21.4431 9.96725 21.5177 9.94105C21.6206 9.90402 21.7223 9.8695 21.8236 9.8361C21.8394 9.83102 21.8552 9.82602 21.8711 9.82101C21.8815 9.81773 21.892 9.81445 21.9024 9.81112C21.9961 9.78077 22.0904 9.75162 22.184 9.7243C22.3537 9.67567 22.4981 9.64214 22.6167 9.61462C22.6573 9.60517 22.695 9.59644 22.7295 9.58804C22.8504 9.55968 23.0466 9.52316 23.2296 9.49662C23.3429 9.48049 23.4508 9.46808 23.5326 9.46418C23.5459 9.46368 23.5587 9.46329 23.5714 9.46292C23.585 9.46251 23.5984 9.46212 23.6119 9.46158C23.6162 9.4614 23.6206 9.46122 23.625 9.46104C23.6444 9.46023 23.664 9.45942 23.6829 9.45906C23.6958 9.45891 23.7411 9.45668 23.7839 9.45459L23.797 9.45395V9.45377C24.1837 9.42992 24.5556 9.45802 24.8905 9.5105C25.0327 9.53001 25.1574 9.553 25.2373 9.57173C25.289 9.58388 25.3403 9.59715 25.3911 9.61085C25.9347 9.74373 26.3026 9.91113 26.3404 9.92978C26.8302 10.1743 27.0679 10.3452 27.3657 10.5678C27.5067 10.6735 27.6291 10.7808 27.725 10.867C27.7392 10.88 27.7561 10.8955 27.7729 10.9108C27.8103 10.9451 27.8466 10.9782 27.8477 10.979C28.9662 12.1335 29.3417 13.4591 29.4326 14.5159C29.434 14.5312 29.4359 14.5465 29.4412 14.561C29.4766 14.6612 29.6044 14.8036 29.638 14.8264C29.6417 14.8289 29.6464 14.8316 29.6519 14.8348C29.6822 14.8523 29.7338 14.8822 29.7434 14.952C29.7914 15.1627 29.6491 15.6 29.5063 16.0391C29.4545 16.1985 29.4026 16.3581 29.3597 16.5071C29.3562 16.5273 29.3495 16.5543 29.3431 16.5773C29.3356 16.6048 29.3479 16.6339 29.3727 16.648L29.4279 16.6791C29.7574 16.8396 29.7794 17.1552 29.6866 17.6954C29.5824 18.3027 29.1521 19.7877 29.1521 19.7877C29.1521 19.7877 28.8991 20.7657 28.6126 20.8309C28.5268 20.8878 28.3672 20.899 28.3254 20.8978C28.3153 20.8975 28.3058 20.8971 28.2968 20.8968C28.181 20.8923 28.1504 20.8911 28.1568 21.0989C28.1907 22.2083 27.5154 23.5183 27.5154 23.5183C27.3268 23.9188 27.0323 24.213 26.4153 24.7665C25.9518 25.1814 25.5364 25.4384 25.365 25.5446C25.329 25.5668 25.3038 25.5825 25.2911 25.5915L25.2907 25.5945C25.2761 25.6078 25.2866 25.6121 25.334 25.6078C25.6736 25.5783 26.0512 25.5912 26.266 25.6449C26.4525 25.6928 26.4651 25.8732 26.4621 25.9717C26.4617 25.986 26.461 25.9991 26.4599 26.0112C26.4596 26.0136 26.4596 26.0175 26.4592 26.0202C26.4591 26.0231 26.4589 26.0262 26.4587 26.0294C26.4583 26.0353 26.4579 26.0418 26.4577 26.0492L26.4569 26.0674C26.4562 26.0799 26.4556 26.0932 26.4554 26.1078C26.4551 26.1137 26.4551 26.1191 26.4549 26.1252C26.4544 26.1367 26.454 26.149 26.4536 26.1616C26.4534 26.17 26.4531 26.1785 26.4528 26.1872L26.4522 26.2236L26.4518 26.2643C26.4514 26.2785 26.4514 26.2918 26.451 26.3066L26.4503 26.3813C26.4503 26.3947 26.4503 26.4086 26.4501 26.4222C26.4498 26.5225 26.4501 26.5866 26.452 26.6943C26.4589 27.0836 26.3088 27.0685 26.1788 27.0554C26.1741 27.055 26.1694 27.0545 26.1648 27.054C26.1427 27.052 26.1115 27.0491 26.0742 27.0457C25.8849 27.0281 25.5403 26.996 25.4626 26.9937C25.4561 26.9934 25.448 26.9931 25.4386 26.9926C25.3113 26.9871 24.9336 26.9705 24.71 27.0005C24.6999 27.0022 24.6822 27.0056 24.6822 27.0056C24.6678 27.0083 24.6539 27.0072 24.6419 27.0062C24.6221 27.0046 24.6074 27.0033 24.6038 27.0205C24.6018 27.0305 24.6169 27.107 24.6202 27.1158C24.6387 27.1717 24.656 27.2276 24.6723 27.2837C24.6927 27.3543 24.7114 27.4255 24.7287 27.4969C24.7468 27.5716 24.7633 27.6466 24.7789 27.7219C24.786 27.757 24.7929 27.7831 24.7996 27.8083C24.8078 27.8391 24.8156 27.8687 24.8231 27.9117C24.8371 27.9918 24.8499 28.0721 24.8617 28.1526C24.8738 28.2342 24.8849 28.3156 24.8951 28.3974C24.9053 28.4794 24.9148 28.5615 24.9235 28.6437C24.9321 28.7255 24.9399 28.8071 24.947 28.8889C24.9542 28.9694 24.9606 29.0498 24.9663 29.1303C24.9719 29.2087 24.9769 29.2869 24.9812 29.3653C24.9856 29.4407 24.9893 29.516 24.9925 29.5914C24.9955 29.6628 24.9981 29.7344 25.0002 29.8059C25.0011 29.8369 25.0019 29.8487 25.0026 29.8591C25.0035 29.8711 25.0042 29.8814 25.0047 29.9171C25.0056 29.9783 25.0062 30.0398 25.0062 30.1008C25.0062 30.1556 25.0059 30.2105 25.005 30.2654C25.0044 30.3126 25.0033 30.3602 25.0015 30.4076C25.0002 30.447 24.9985 30.4864 24.9961 30.5257C24.9941 30.5559 24.992 30.5863 24.9889 30.6165C24.9834 30.6676 24.9745 30.7184 24.9635 30.7685C24.963 30.7715 24.9624 30.7741 24.9617 30.7768C24.9539 30.8119 24.945 30.8477 24.9275 30.8794C24.9197 30.8935 24.9089 30.9054 24.8968 30.9154C24.8786 30.9211 24.8596 30.9254 24.8397 30.9278C24.6151 30.8907 24.3506 30.9443 24.1322 31.0172L24.1309 31.0173C24.0903 31.0077 24.0425 30.9942 24.0107 30.9616C23.9886 30.9389 23.981 30.906 23.9838 30.8745C24.0363 30.2793 24.027 28.3924 24.02 28.3272C24.01 28.2369 23.9842 28.289 23.9715 28.3492C23.8733 28.8104 23.2386 30.304 23.1133 30.544C23.0199 30.7229 23.0115 30.7185 22.7789 30.598C22.7239 30.5695 22.6565 30.5346 22.5724 30.494C22.4774 30.4482 22.376 30.4338 22.2938 30.4221C22.1654 30.4038 22.0836 30.3921 22.1454 30.2782C22.6829 29.2865 23.078 28.2562 23.304 27.6667C23.3821 27.4631 23.44 27.3121 23.4766 27.2335C23.5599 27.0547 23.5829 27.0024 23.4384 27.0319C23.3768 27.0445 23.0691 27.0503 22.7478 27.0565C22.482 27.0616 22.207 27.0668 22.0542 27.0762C21.6995 27.0981 21.6466 27.0828 21.563 26.9877C21.483 26.8962 21.4883 26.7644 21.4956 26.5816C21.496 26.5707 21.4965 26.5596 21.4969 26.5483C21.4999 26.4673 21.4986 26.3806 21.4972 26.2962C21.4953 26.1722 21.4935 26.0532 21.5056 25.965C21.5092 25.9387 21.5116 25.9149 21.5138 25.8933C21.5272 25.7608 21.5324 25.709 21.7546 25.6681C21.9521 25.6315 22.1834 25.6356 22.3426 25.6383C22.4143 25.6396 22.4714 25.6406 22.504 25.6375C22.5233 25.6356 22.5578 25.6348 22.5956 25.634C22.6849 25.632 22.7932 25.6295 22.7673 25.6115L22.7676 25.6084C22.6938 25.5572 22.4371 25.3687 21.8774 24.9506ZM20.6086 11.6229C20.6485 11.5613 20.7451 11.4713 20.8415 11.4017L20.8642 11.3854C21.0028 11.285 21.4682 10.948 21.9025 10.8157C21.9422 10.8039 21.9682 10.7948 21.9901 10.7871C22.0156 10.7782 22.0355 10.7712 22.0649 10.7642C22.1342 10.7461 22.1929 10.5969 22.0487 10.5751C21.9251 10.5572 21.8613 10.5606 21.7981 10.5638C21.7839 10.5646 21.7698 10.5653 21.755 10.5658C21.6743 10.5675 21.6354 10.5243 21.6939 10.4608C21.7534 10.3969 21.8605 10.3319 22.049 10.2563C22.4605 10.0923 23.1898 10.0048 23.5299 9.97453C23.9736 9.93628 24.0273 9.93767 24.316 9.95988C24.5313 9.9761 24.7096 10.0114 24.8241 10.034L24.8241 10.034C24.8534 10.0398 24.8786 10.0448 24.8991 10.0484C25.4083 10.1405 25.995 10.3764 26.5166 10.6627C26.7913 10.8256 27.0558 11.0075 27.3021 11.1994C28.0495 11.782 28.9078 12.8902 28.7826 15.2242C28.7676 15.4998 28.735 15.6526 28.717 15.7191C28.6983 15.7867 28.6089 15.9021 28.5616 15.7494C28.5346 15.6621 28.5062 15.5632 28.4754 15.4557C28.33 14.948 28.1296 14.2484 27.7566 13.6748C27.6938 13.5779 27.5967 13.5869 27.6063 13.689C27.6099 13.7316 27.6308 14.1768 27.6198 14.2628C27.5758 14.6072 27.6216 14.6642 27.7213 14.788C27.7875 14.8704 27.8776 14.9823 27.9809 15.228C28.0611 15.4183 28.1642 15.7945 28.1901 16.0371L28.1915 16.0504L28.1915 16.0504C28.1979 16.1082 28.2051 16.1737 28.2065 16.2366C28.2083 16.3223 28.1658 16.328 28.1658 16.328C28.0721 16.3277 27.9415 16.304 27.8147 16.281C27.7019 16.2605 27.592 16.2406 27.5136 16.2381C27.3243 16.232 26.0099 16.2187 25.516 16.2577C25.0217 16.2954 24.7523 16.4732 24.4725 16.7024C24.4261 16.7404 24.3599 16.7759 24.3227 16.7945C24.304 16.8039 24.2832 16.8066 24.2627 16.8031C24.24 16.7992 24.2031 16.7922 24.1447 16.78C24.024 16.7552 23.878 16.7454 23.7601 16.7816L23.7255 16.7922C23.6301 16.8219 23.5736 16.8395 23.4594 16.7733C23.4246 16.753 23.3862 16.7209 23.34 16.6823C23.1457 16.52 22.8136 16.2427 22.0297 16.2363L21.9154 16.2354C21.3833 16.2311 20.7299 16.2258 20.3342 16.2433C20.2537 16.2468 20.1958 16.2536 20.1546 16.2584L20.1546 16.2584L20.1545 16.2584C20.1255 16.2618 20.1048 16.2642 20.0902 16.2638C20.0873 16.2477 20.0865 16.2253 20.0864 16.2209C20.0815 15.697 20.3111 15.6059 20.4782 15.5395C20.5583 15.5078 20.624 15.4817 20.6427 15.4165C20.6726 15.3126 20.6978 15.1784 20.7267 15.0245C20.8373 14.4347 21.0025 13.5541 21.6975 12.9664C22.1165 12.6123 22.3343 12.5973 22.7232 12.5973C23.1423 12.5973 23.5511 12.7067 23.7596 12.81C23.7828 12.8215 23.8044 12.8324 23.8245 12.8426C23.9482 12.9053 24.0169 12.9401 24.073 12.8987C24.1043 12.8748 24.1607 12.826 24.2189 12.7757L24.219 12.7757C24.282 12.7212 24.3471 12.6649 24.3845 12.6366C24.4567 12.5812 24.4295 12.4952 24.3613 12.4389C24.3533 12.4324 24.3369 12.4149 24.3127 12.3891C24.1386 12.2036 23.5573 11.5844 22.7207 11.4461L22.6298 11.4307C22.4553 11.4009 22.3126 11.3765 22.1428 11.3761C22.0356 11.3721 21.9403 11.3717 21.6913 11.4019C21.364 11.4416 20.9463 11.6091 20.6423 11.7311L20.5426 11.7709C20.5261 11.7533 20.5895 11.6504 20.6086 11.6229ZM19.3017 13.8525C19.1731 14.0207 18.9968 14.2515 18.8976 14.5199C18.8486 14.6526 18.8771 14.8855 18.94 15.1478C18.963 15.2438 18.9845 15.3398 19.0028 15.437C19.0493 15.6845 19.1477 16.0472 19.2154 16.2969C19.2319 16.3577 19.2466 16.4118 19.2582 16.4559C19.2699 16.5062 19.3154 16.4839 19.3768 16.4538C19.3969 16.4439 19.4188 16.4331 19.4417 16.4239L19.4426 16.4235C19.5555 16.3803 19.5762 16.2545 19.5798 16.1353C19.6107 15.1651 19.8363 14.5345 19.916 14.3119L19.9283 14.2773C19.9927 14.0937 20.1243 13.9784 20.1888 13.9233C20.2209 13.8956 20.2497 13.8725 20.2762 13.8512L20.2762 13.8511L20.2763 13.8511C20.3586 13.7849 20.419 13.7364 20.4901 13.6218C20.5155 13.5804 20.5387 13.5352 20.5647 13.4846C20.6336 13.3504 20.722 13.1784 20.9217 12.9405C21.2818 12.5106 21.6814 12.3496 21.8821 12.2687C21.9315 12.2488 21.9689 12.2337 21.9906 12.2207C22.0363 12.1937 21.831 12.1028 21.7012 12.1175C21.6142 12.1271 21.5124 12.1403 21.4266 12.1544C21.313 12.1694 21.1997 12.2067 21.09 12.2439C20.9965 12.2756 20.9051 12.3135 20.819 12.3619C20.644 12.46 20.065 12.6907 19.4084 12.7746L19.179 12.7942C19.171 12.7993 19.1645 12.8036 19.1568 12.8088C19.1464 12.8318 19.1468 12.8579 19.1588 12.8904C19.1635 12.9034 19.1754 12.9265 19.1909 12.9567L19.191 12.9568L19.191 12.9568C19.231 13.0345 19.2953 13.1595 19.3236 13.2815C19.3843 13.4655 19.4403 13.6708 19.3216 13.8264L19.3017 13.8525ZM20.0651 16.7129C20.1002 16.7261 20.1331 16.7385 20.1694 16.7346C20.2614 16.7247 20.3047 16.6137 20.2542 16.5423C20.1975 16.4624 20.1264 16.4928 20.0585 16.5217C20.0328 16.5326 20.0076 16.5434 19.9839 16.5479C19.966 16.5513 19.9502 16.5512 19.9348 16.5511C19.9135 16.551 19.8929 16.5509 19.8685 16.56C19.8263 16.5761 19.8213 16.6156 19.8484 16.6573C19.8676 16.6828 19.8925 16.6834 19.9266 16.6843C19.9469 16.6849 19.9705 16.6855 19.998 16.6915C20.022 16.6967 20.0439 16.705 20.0651 16.7129L20.0651 16.7129ZM28.9575 18.618L28.9575 18.618C28.9081 18.7895 28.8626 18.9472 28.8253 19.1175C28.7275 19.5652 28.5352 20.2198 28.3485 20.2367C28.2634 20.2623 28.2013 20.232 28.1476 20.2058C28.0823 20.1739 28.0295 20.1482 27.9631 20.2368C27.9271 20.2847 27.8952 20.3402 27.8643 20.394C27.8331 20.4482 27.803 20.5006 27.7708 20.5417C27.7297 20.5953 27.6892 20.7149 27.6886 20.7801C27.6886 20.906 27.6817 21.3129 27.5689 21.8465C27.399 22.6517 27.0901 23.2383 26.7691 23.6086C26.2397 24.2192 25.7391 24.3886 25.5667 24.4469L25.5666 24.4469C25.5389 24.4563 25.5196 24.4628 25.5102 24.4678C25.4221 24.5145 25.2887 24.4869 25.2451 24.466C25.2168 24.4531 25.1927 24.4268 25.1592 24.39C25.1403 24.3692 25.1184 24.3452 25.091 24.3184C25.0125 24.2451 24.9853 24.3566 24.9824 24.3851C24.9818 24.3899 24.9828 24.4051 24.9842 24.4275C24.9907 24.5279 25.0066 24.7748 24.9366 24.8989C24.8664 25.0234 24.7971 25.1046 24.7328 25.1799C24.6285 25.302 24.5374 25.4088 24.4763 25.6604C24.4689 25.6912 24.4643 25.7255 24.4597 25.7591C24.4441 25.8755 24.4295 25.984 24.3023 25.9111C23.9014 25.6821 23.327 25.0621 23.2081 24.461C23.1719 24.2779 23.2057 24.0737 23.3174 23.7256C23.3819 23.5214 23.4277 23.2939 23.4277 23.1629C23.4277 23.0731 23.4141 22.9886 23.4027 22.9176C23.3846 22.8047 23.372 22.7258 23.4277 22.7134C23.5248 22.6918 23.5915 22.8278 23.6454 22.938C23.685 23.0187 23.7178 23.0857 23.7509 23.0665C23.8869 22.9883 23.7859 22.5282 23.7859 22.5282C23.7859 22.5282 23.73 22.3974 23.4916 22.3414C23.3544 22.3093 23.3113 22.2066 23.4576 22.1347L23.4819 22.1227C23.5855 22.0714 23.7046 22.0124 23.8416 22.0328C24.648 22.1471 24.9858 22.036 25.2999 21.9326L25.3 21.9326L25.3 21.9326L25.3 21.9326L25.3 21.9326L25.3 21.9326L25.3 21.9326L25.3 21.9326L25.3 21.9326L25.3 21.9326L25.3 21.9326L25.3 21.9326L25.3001 21.9326L25.3001 21.9326L25.3001 21.9326L25.3001 21.9325C25.371 21.9092 25.4406 21.8863 25.5142 21.8665C25.5927 21.8456 25.639 21.8365 25.7005 21.8655C25.7615 21.8939 25.9256 21.9836 25.9589 22.0679C25.9742 22.1056 25.9755 22.1927 25.9771 22.2997C25.979 22.4304 25.9814 22.5906 26.0102 22.7264C26.0636 22.9743 26.2378 22.749 26.2811 22.651C26.3249 22.5538 26.3697 22.314 26.3787 22.253C26.3884 22.1924 26.4392 21.9374 26.5307 21.8614C26.6996 21.7212 26.7664 21.5399 26.7983 21.4535L26.8047 21.4363C26.8347 21.3589 26.882 21.1204 26.8735 20.7719C26.8653 20.4413 26.808 20.3909 26.7302 20.3225L26.718 20.3117C26.6864 20.2834 26.6524 20.2679 26.6108 20.2489C26.543 20.218 26.4548 20.1779 26.3236 20.0578C26.1966 19.9412 26.0847 19.7765 25.9835 19.6275L25.9835 19.6275L25.9834 19.6274C25.9341 19.5548 25.8874 19.486 25.8426 19.4282C25.7056 19.2525 25.4784 19.0636 25.2191 19.0002C24.9956 18.9463 25.0459 19.1175 25.0725 19.2079C25.0766 19.222 25.0802 19.234 25.082 19.243L25.0854 19.2571C25.1015 19.3227 25.1469 19.5071 25.0674 19.5713C24.9831 19.6407 24.4607 19.9919 23.9948 19.8701C23.4395 19.7252 23.2476 19.4161 23.2362 19.1175C23.2282 18.9058 23.3296 18.7017 23.456 18.4592C23.5286 18.3203 23.5587 18.0903 23.5879 17.8675L23.5897 17.8535C23.6134 17.6719 23.662 17.4092 23.7016 17.3158C23.73 17.2484 23.797 17.1752 23.9477 17.1838C24.0966 17.1921 24.1944 17.2662 24.2216 17.3948C24.3181 17.8415 24.4756 17.9543 24.5289 17.9905C24.5798 18.0245 24.6724 17.9621 24.7157 17.933L24.7229 17.9281C24.7627 17.9024 24.8637 17.8002 24.832 17.7454C24.7837 17.6605 24.7571 17.6095 24.7464 17.5598C24.728 17.4748 24.8344 17.4851 24.8559 17.5021C25.0098 17.6234 25.156 17.6468 25.3958 17.6853L25.3959 17.6853C25.4272 17.6903 25.4601 17.6956 25.4949 17.7014C25.7815 17.7492 25.9343 17.7134 26.0726 17.681C26.1881 17.654 26.2934 17.6293 26.458 17.6579C26.5048 17.666 26.594 17.7052 26.6232 17.7594C26.6274 17.7676 26.6322 17.7775 26.6375 17.7886C26.6625 17.8405 26.6988 17.9159 26.7352 17.9313C26.7638 17.9424 26.8193 17.9491 26.8699 17.9551L26.8699 17.9551C26.8969 17.9584 26.9224 17.9614 26.9417 17.9649C26.9527 17.9668 26.965 17.9682 26.978 17.9697C27.0544 17.9785 27.1518 17.9897 27.1321 18.1106C27.0732 18.4895 26.636 18.594 26.4316 18.6291C26.3472 18.6436 26.3086 18.6506 26.2949 18.6626C26.2506 18.7015 26.249 18.8201 26.2999 18.8968C26.336 18.9507 26.5012 18.9541 26.7275 18.9107C26.9635 18.8654 27.1902 18.7515 27.3691 18.4726C27.546 18.1969 27.6486 17.6121 27.6795 17.4364L27.685 17.4052C27.7064 17.2839 27.7551 17.0806 27.8219 17.039C27.888 16.9975 28.196 16.904 28.2393 16.9116C28.291 16.9205 28.3286 16.9454 28.353 17.0645C28.3705 17.1519 28.3515 17.5538 28.3394 17.8087V17.8087V17.8087C28.3349 17.9048 28.3313 17.98 28.3311 18.0096C28.3298 18.1249 28.3889 18.1239 28.4219 18.1087C28.4937 18.0756 28.6854 17.9479 28.7288 17.8003C28.7434 17.7503 28.7322 17.6899 28.72 17.6247C28.7055 17.5468 28.6897 17.462 28.7149 17.3796C28.7872 17.1433 28.8583 17.0805 28.9075 17.0852C29.2079 17.1139 29.2694 17.2455 29.1976 17.6272V17.6385C29.1182 18.0606 29.0332 18.3555 28.9575 18.618ZM33.5034 32.4797C33.5231 32.3912 33.4702 32.3026 33.3828 32.2787C32.9826 32.1689 32.4744 32.0671 31.8392 32.0672C28.5221 32.0678 27.6809 33.9407 27.5449 35.2122C27.3919 36.6399 28.3799 38.0405 30.8149 38.0401C31.8398 38.0399 32.5094 37.8615 32.7478 37.7856C32.8075 37.7666 32.8519 37.7166 32.8635 37.6551L33.0003 36.9345C33.021 36.8261 32.9185 36.735 32.8134 36.7682C32.5486 36.8521 32.0762 36.9672 31.4796 36.9673C30.3158 36.9674 29.4753 36.2686 29.5817 35.066C29.6846 33.9013 30.4705 33.0148 31.5509 33.0146C32.2008 33.0145 32.488 33.3545 32.4668 33.8092C32.4668 33.8096 32.4666 33.817 32.4656 33.8351C32.4612 33.9182 32.5275 33.9882 32.6108 33.9882H33.0517C33.1198 33.9882 33.1787 33.9409 33.1935 33.8744L33.5034 32.4797ZM19.6584 32.2818C19.6743 32.2097 19.7382 32.1584 19.8121 32.1584H22.2042C22.2974 32.1584 22.3666 32.2447 22.3464 32.3357L22.2653 32.7033C22.2514 32.7657 22.1997 32.8101 22.1363 32.817L22.1182 32.8188C21.938 32.8428 21.6125 32.9014 21.3457 33.1101L19.3572 34.7638C19.357 34.764 19.357 34.7644 19.3571 34.7645L20.8874 36.8355C21.184 37.2168 21.3303 37.2859 21.6285 37.2905C21.7263 37.2924 21.7966 37.3841 21.7754 37.4795L21.6919 37.8519C21.6772 37.9176 21.619 37.9643 21.5517 37.9643H20.36C19.0403 37.9645 18.676 37.3857 17.5767 35.376C17.5764 35.3757 17.5758 35.3758 17.5757 35.3761L17.2548 36.8421C17.206 37.07 17.3969 37.1906 17.5367 37.2474L17.5477 37.2518L17.5545 37.2545C17.6213 37.2806 17.6592 37.3516 17.6435 37.4215L17.5483 37.8514C17.5336 37.9173 17.4751 37.9643 17.4075 37.9643H14.646C14.5489 37.9643 14.4769 37.8744 14.4978 37.7796L14.579 37.4123C14.5937 37.3456 14.6493 37.2957 14.717 37.2884L14.7248 37.2874L14.7251 37.2874C14.9782 37.2582 15.2437 37.0982 15.4076 36.3153L16.0338 33.4483C16.1144 33.0664 15.9234 32.9211 15.7587 32.8566C15.7573 32.856 15.7476 32.8526 15.7325 32.8475C15.657 32.8217 15.6128 32.7432 15.6301 32.6653L15.7152 32.2823C15.7312 32.2099 15.7955 32.1584 15.8696 32.1584H18.4963C18.5881 32.1584 18.6565 32.2434 18.6366 32.3331L18.5529 32.7111C18.5408 32.7663 18.4997 32.8108 18.4457 32.8275L18.4257 32.8337C18.3027 32.8737 18.1083 32.9745 18.0486 33.2192L17.6987 34.8147C17.6987 34.815 17.6988 34.8153 17.699 34.8154C17.6992 34.8155 17.6994 34.8155 17.6997 34.8154L19.737 33.1221C19.8592 33.0213 19.8281 32.8866 19.6879 32.8327L19.6871 32.8324C19.6074 32.8083 19.5598 32.7268 19.5779 32.6456L19.6584 32.2818ZM27.016 33.8743C26.929 33.8743 26.8613 33.7987 26.8709 33.7123L26.8726 33.6955L26.8728 33.6929C26.8966 33.3297 26.7721 33.1166 26.3642 33.1166L25.1021 33.118L24.7647 34.6558L26.5715 34.6558C26.6644 34.6558 26.7335 34.7419 26.7135 34.8326L26.5374 35.6256C26.5227 35.6921 26.4637 35.7393 26.3958 35.7393H24.5247C24.5247 35.7393 24.3168 36.6814 24.3094 36.7221C24.2398 37.0262 24.4476 37.1841 24.587 37.2519L24.5872 37.252L24.5873 37.2521C24.5943 37.2554 24.6013 37.2588 24.6084 37.2619C24.6682 37.2886 24.701 37.3536 24.6868 37.4176L24.5907 37.851C24.576 37.9171 24.5173 37.9643 24.4495 37.9643H22.2494C22.157 37.9643 22.0884 37.8789 22.1083 37.7887L23.0668 33.4465C23.1644 33.0634 22.9402 32.9075 22.7792 32.8461C22.7737 32.8441 22.7681 32.8423 22.7628 32.8402C22.6909 32.8146 22.6492 32.7394 22.6659 32.6648L22.7504 32.2826C22.7666 32.2101 22.8309 32.1584 22.9053 32.1584H27.7971C27.89 32.1584 27.959 32.2444 27.939 32.3351L27.6225 33.7608C27.6077 33.8271 27.549 33.8743 27.4811 33.8743H27.016ZM24.349 21.6172C24.5052 21.6076 24.8277 21.5326 24.9394 21.4918C25.051 21.4524 24.9628 21.4101 24.9366 21.4074C24.9114 21.4049 24.861 21.4003 24.7545 21.3915C23.9822 21.3261 23.6347 21.3664 23.4377 21.3892H23.4377C23.3806 21.3958 23.3361 21.401 23.2976 21.4016C23.2054 21.4034 23.2301 21.4754 23.2529 21.4964C23.3659 21.5997 23.505 21.6499 23.6079 21.6559C23.6717 21.6589 23.9758 21.6401 24.1872 21.627L24.1873 21.627C24.2539 21.6229 24.3113 21.6193 24.349 21.6172ZM22.4892 21.0871C22.0042 21.081 21.7799 20.9003 21.7452 20.8464C21.7119 20.7941 21.7678 20.7536 21.8185 20.7372C21.9329 20.701 22.1364 20.5981 22.219 20.5354C22.2818 20.4886 22.4283 20.3955 22.5458 20.3208L22.5458 20.3208L22.5459 20.3207C22.5834 20.2969 22.6179 20.2749 22.6458 20.257C22.7001 20.2215 23.012 20.0858 23.1942 20.2128C23.4678 20.4037 23.7235 20.5313 24.1914 20.5027C24.36 20.4924 24.432 20.4117 24.5058 20.3291C24.5638 20.2642 24.6228 20.1981 24.7306 20.164C24.9012 20.1103 24.9656 20.0657 25.0179 20.0295C25.0334 20.0187 25.0479 20.0087 25.0638 19.9994L25.0833 19.9954C25.1631 19.9788 25.2263 19.9656 25.3161 20.0493C25.3874 20.1156 25.4323 20.1738 25.4852 20.2423C25.5235 20.292 25.566 20.3471 25.6258 20.4147C25.8205 20.6345 26.0353 20.737 26.1018 20.75C26.1679 20.7635 26.2155 20.8173 26.2162 20.8395C26.2168 20.8614 26.1896 20.9297 25.9933 20.9858C25.3379 21.1736 24.6282 21.0532 24.2629 20.9072C24.0774 20.8332 23.8972 20.813 23.6937 20.9129C23.4887 21.0134 22.9418 21.0927 22.4892 21.0871ZM20.49 21.5447C20.9136 23.2082 21.8847 23.7943 22.2562 23.7828L22.2717 23.7824C22.4101 23.7785 22.5989 23.7733 22.4773 23.5167C22.4012 23.3562 22.2201 22.7343 22.1429 22.4322C22.1065 22.2899 21.984 22.4773 21.9702 22.5108C21.9638 22.5268 21.9526 22.5518 21.9393 22.5816L21.9393 22.5816L21.9393 22.5816C21.914 22.6384 21.8809 22.7126 21.8577 22.7749C21.8194 22.8772 21.7421 22.8729 21.6586 22.7572C21.3219 22.2903 21.1933 21.0002 21.1992 20.8454C21.2051 20.6544 21.0359 20.6534 21.0016 20.6577C20.9682 20.6621 20.9162 20.6736 20.8172 20.7099C20.6498 20.7695 20.3801 21.1167 20.49 21.5447ZM20.3042 18.8186C20.2781 18.7066 20.328 18.5389 20.5918 18.7081C20.6341 18.7352 20.758 18.7915 20.8957 18.8311C20.9792 18.8551 21.0332 18.8199 21.0568 18.7593C21.0593 18.7532 21.0622 18.7466 21.0653 18.7394C21.0932 18.6756 21.1378 18.5734 21.0323 18.5218C21.0138 18.5125 20.9909 18.5035 20.9649 18.4932L20.9649 18.4932L20.9649 18.4931L20.9649 18.4931C20.8268 18.4385 20.6001 18.3487 20.4612 18.0068C20.4315 17.9343 20.4815 17.8508 20.5279 17.8293C20.5748 17.8083 20.6328 17.819 20.6869 17.8703L20.6919 17.875L20.6919 17.875C20.7475 17.9273 20.859 18.0321 20.9592 18.036C21.0423 18.04 21.0647 18.011 21.0818 17.9887C21.0843 17.9854 21.0867 17.9824 21.0891 17.9796C21.0961 17.9717 21.1043 17.9618 21.1138 17.9505L21.1138 17.9505C21.2113 17.8338 21.4399 17.56 21.8732 17.613C21.9842 17.6266 22.0905 17.6465 22.1736 17.6621C22.2371 17.6739 22.2871 17.6833 22.3156 17.6854C22.3626 17.6886 22.493 17.6944 22.6178 17.671L22.635 17.6677L22.635 17.6677L22.635 17.6677C22.7764 17.6411 22.9683 17.6049 22.8685 17.7203C22.855 17.7359 22.8418 17.75 22.8296 17.7632L22.8296 17.7632C22.7651 17.8325 22.7252 17.8753 22.7874 17.9642L22.7986 17.9798C22.8653 18.0738 22.8671 18.1989 22.7993 18.292L22.791 18.304C22.6861 18.4403 22.469 18.5973 22.0202 18.6257L21.9818 18.6281C21.8141 18.6383 21.8026 18.639 21.7986 18.7481C21.797 18.7932 21.7976 18.817 21.8041 18.8485C21.8165 18.9073 21.8541 18.9318 21.9961 18.9406C22.099 18.9468 22.2873 18.9266 22.2876 18.9265C22.3339 18.9127 22.3884 18.9422 22.3587 18.9808C22.3559 18.9842 22.3479 18.9959 22.3413 19.0056L22.3319 19.019C22.2301 19.1506 22.1984 19.2709 22.1889 19.3427C22.1808 19.4036 22.1457 19.4581 22.0918 19.486L22.0897 19.487C22.0733 19.4955 22.0444 19.5053 22.0071 19.5181L22.0071 19.5181L22.0071 19.5181C21.8952 19.5565 21.7073 19.6209 21.551 19.7499C21.3437 19.922 20.9101 20.0637 20.7237 19.8523C20.5372 19.6415 20.3852 19.1698 20.3042 18.8186ZM19.4494 19.3784C19.3034 19.2811 19.2773 19.1604 19.2503 19.0358C19.2427 19.0006 19.235 18.965 19.2245 18.9295C19.1369 18.634 19.0435 18.2863 18.9591 17.9715L18.959 17.9714L18.9207 17.8288C18.8638 17.6178 18.8494 17.1224 19.1359 17.1224C19.2802 17.1224 19.3879 17.1677 19.4341 17.3037C19.4872 17.4602 19.4611 17.5217 19.4303 17.594C19.4017 17.6615 19.3689 17.7386 19.3929 17.9112C19.4237 18.1318 19.4643 18.3497 19.5272 18.687L19.5563 18.8428C19.593 19.0407 19.6575 19.517 19.4835 19.4012L19.4494 19.3784ZM20.6993 17.148L20.6993 17.148C20.652 17.1811 20.6078 17.2119 20.569 17.237C20.4604 17.3087 20.3077 17.2401 20.3523 17.0877C20.3743 17.0138 20.4794 16.8242 20.656 16.7907C20.679 16.7859 20.7666 16.7693 20.8399 16.7604C20.9254 16.7513 21.0165 16.7436 21.0629 16.7416C21.1881 16.7361 21.2017 16.8365 21.1168 16.8883C21.0928 16.9031 21.0633 16.9193 21.0311 16.937L21.0311 16.937C20.9878 16.9608 20.9398 16.9872 20.8944 17.016C20.8271 17.0587 20.7606 17.1051 20.6994 17.1479L20.6994 17.1479L20.6993 17.148L20.6993 17.148L20.6993 17.148ZM21.1191 17.2041L21.1191 17.2041C21.0903 17.2186 21.0777 17.225 21.059 17.2402C20.9431 17.3341 21.0571 17.3951 21.0971 17.3977C21.1385 17.3996 21.2639 17.3859 21.3878 17.3285C21.4111 17.3181 21.4362 17.3061 21.4634 17.2931C21.5775 17.2387 21.7276 17.1671 21.9303 17.1209C22.1345 17.0739 22.2554 17.0957 22.3633 17.1152L22.3952 17.1209C22.5129 17.1407 22.4882 17.0263 22.398 16.9279C22.3116 16.8338 22.1493 16.7937 22.0564 16.7926C21.9278 16.7912 21.625 16.8987 21.4651 17.0027C21.3768 17.0601 21.2894 17.1125 21.2128 17.1549C21.1681 17.1794 21.1396 17.1938 21.1191 17.2041L21.1191 17.2041ZM22.9127 19.4634C22.942 19.5173 22.9515 19.6078 22.9432 19.6451C22.9345 19.691 22.7737 19.7508 22.6399 19.5508C22.5064 19.352 22.5689 19.1075 22.6484 19.0115C22.7743 18.8573 22.9669 18.9694 22.9392 19.0263C22.8428 19.224 22.8857 19.4099 22.9127 19.4634ZM26.6402 17.4455C26.6915 17.4743 26.8771 17.5366 26.9264 17.5118C27.0227 17.4625 26.9592 17.4307 26.9047 17.4034C26.8934 17.3977 26.8824 17.3922 26.8734 17.3868C26.7632 17.3195 26.5591 17.1458 26.4584 17.0471C26.3575 16.9491 26.2172 16.8712 26.1 16.8581C26.0602 16.8538 25.9811 16.8502 25.9403 16.8609C25.6593 16.9345 25.5306 17.0524 25.5031 17.0838C25.4758 17.1152 25.4828 17.1986 25.5745 17.1764C25.6675 17.1547 25.7881 17.1288 25.9091 17.1229C26.0673 17.1152 26.2344 17.1517 26.3261 17.2291C26.4638 17.3467 26.5368 17.3876 26.639 17.4449L26.6402 17.4455ZM26.8117 17.0472C26.8117 17.0472 26.638 16.9285 26.5824 16.832C26.555 16.7843 26.5612 16.7445 26.6347 16.7439L26.6625 16.7436C26.9121 16.7409 27.1378 16.7385 27.2498 16.8324C27.3343 16.9035 27.3367 17.052 27.2952 17.1479C27.2525 17.2454 27.172 17.2313 27.1163 17.2216L27.1163 17.2216C27.1096 17.2204 27.1032 17.2193 27.0973 17.2185C27.0429 17.2102 26.8117 17.0472 26.8117 17.0472ZM28.0393 16.685C28.0712 16.6839 28.0935 16.6831 28.1174 16.6573C28.1438 16.6149 28.138 16.5757 28.0956 16.5607C28.071 16.5518 28.0504 16.5524 28.0291 16.5529C28.0136 16.5533 27.9979 16.5536 27.98 16.5505C27.9563 16.5464 27.9311 16.5361 27.9053 16.5257C27.8368 16.4979 27.7649 16.4687 27.7095 16.5497C27.6603 16.622 27.7056 16.7321 27.7978 16.7405C27.8341 16.7437 27.864 16.7311 27.8967 16.7175C27.9167 16.7091 27.9377 16.7003 27.9618 16.6945C27.9938 16.6865 28.0186 16.6857 28.0393 16.685Z" fill="#231F20"/>
</svg>
