<svg width="48" height="48" viewBox="0 0 48 48" fill="none" xmlns="http://www.w3.org/2000/svg">
<circle cx="24" cy="24" r="24" fill="#FFFEFC"/>
<path d="M11.6973 11.2079L27.3064 10.0637C29.2237 9.90032 29.7164 10.0105 30.9219 10.8803L35.9045 14.3644C36.7264 14.9636 37 15.1269 37 15.7793V34.8872C37 36.0847 36.5618 36.7931 35.0282 36.9013L16.9019 37.9905C15.7509 38.0447 15.2027 37.8813 14.6 37.1188L10.9309 32.3831C10.2727 31.5114 10 30.859 10 30.0965V13.1119C10 12.1328 10.4382 11.3162 11.6973 11.2079Z" fill="white"/>
<path fill-rule="evenodd" clip-rule="evenodd" d="M27.3064 10.0637L11.6973 11.2079C10.4382 11.3162 10 12.1328 10 13.1119V30.0965C10 30.859 10.2727 31.5114 10.9309 32.3831L14.6 37.1188C15.2027 37.8813 15.7509 38.0447 16.9019 37.9905L35.0282 36.9013C36.5609 36.7931 37 36.0847 37 34.8872V15.7793C37 15.1605 36.7536 14.9823 36.0287 14.454C35.9869 14.4242 35.9453 14.3943 35.9036 14.3644L30.9219 10.8803C29.7164 10.0105 29.2237 9.90032 27.3064 10.0637ZM17.3118 15.4667C15.8318 15.5656 15.4961 15.588 14.6555 14.9095L12.5181 13.222C12.3009 13.0036 12.41 12.7311 12.9573 12.677L27.9627 11.5887C29.2227 11.4795 29.879 11.9154 30.3718 12.2962L32.9454 14.1469C33.0554 14.202 33.329 14.5277 32.9999 14.5277L17.5037 15.4536L17.3118 15.4667ZM15.5864 34.7239V18.5028C15.5864 17.7944 15.8055 17.4677 16.4618 17.4126L34.2599 16.3785C34.8636 16.3244 35.1363 16.7052 35.1363 17.4126V33.5255C35.1363 34.2339 35.0263 34.8331 34.0409 34.8872L17.0091 35.8672C16.0236 35.9214 15.5864 35.5956 15.5864 34.7239ZM32.3991 19.3726C32.5082 19.8626 32.3991 20.3526 31.9054 20.4086L31.0845 20.5701V32.5465C30.3718 32.9273 29.7154 33.1447 29.1672 33.1447C28.2909 33.1447 28.0718 32.8722 27.4154 32.0565L22.0472 23.6734V31.7839L23.7454 32.1657C23.7454 32.1657 23.7454 33.1457 22.3754 33.1457L18.5982 33.3631C18.4882 33.1447 18.5982 32.6006 18.9809 32.4923L19.9673 32.2207V21.4969L18.5982 21.3867C18.4882 20.8967 18.7618 20.1893 19.5291 20.1342L23.5818 19.8635L29.1672 28.3549V20.8426L27.7436 20.6802C27.6336 20.0801 28.0718 19.6442 28.619 19.591L32.3991 19.3726Z" fill="black"/>
</svg>
