<svg width="48" height="48" viewBox="0 0 48 48" fill="none" xmlns="http://www.w3.org/2000/svg">
<circle cx="24" cy="24" r="24" fill="#F9F9F9"/>
<path d="M14.9818 10.9548L24 10L33.0182 10.9548L40 20.341L24 39L8 20.341L14.9818 10.9548Z" fill="#FDB300"/>
<path d="M14.4808 20.3409L24 39L8 20.3409H14.4808Z" fill="#EA6C00"/>
<path d="M33.5192 20.3409L24 39L40 20.3409H33.5192Z" fill="#EA6C00"/>
<path d="M14.481 20.3409H33.5194L24.0002 39L14.481 20.3409Z" fill="#FDAD00"/>
<path d="M24.0002 10L14.9819 10.9548L14.481 20.341L24.0002 10Z" fill="#FDD231"/>
<path d="M23.9998 10L33.0181 10.9548L33.519 20.341L23.9998 10Z" fill="#FDD231"/>
<path d="M40 20.3409L33.0181 10.9548L33.5192 20.3409H40Z" fill="#FDAD00"/>
<path d="M8 20.3409L14.9818 10.9548L14.4808 20.3409H8Z" fill="#FDAD00"/>
<path d="M24.0002 10L14.481 20.341H33.5194L24.0002 10Z" fill="#FEEEB7"/>
</svg>
