<svg width="48" height="48" viewBox="0 0 48 48" fill="none" xmlns="http://www.w3.org/2000/svg">
<circle cx="24" cy="24" r="24" fill="#F40000"/>
<path fill-rule="evenodd" clip-rule="evenodd" d="M21.4289 29.9558C21.4422 29.9648 21.4554 29.9739 21.4686 29.983V30C21.4554 29.9852 21.4422 29.9705 21.4289 29.9558ZM21.4289 29.9558C20.8965 29.3672 20.2761 28.8655 19.5899 28.4687C18.7645 27.9731 17.8198 27.7141 16.8583 27.7201C15.3614 27.709 13.7909 28.1038 12.3429 28.4677C11.1192 28.7752 9.98295 29.0608 9.0527 29.0608C6.64941 29.0846 6.52755 27.2267 6.70695 26.2058C7.0996 23.9872 8.64312 21.891 9.64167 20.7851C10.6402 19.6792 11.6862 18.8217 12.5527 18.6039C13.4192 18.3861 13.338 19.0497 13.2297 19.1381C13.0775 19.1381 12.9276 19.1755 12.793 19.247C12.5304 19.4066 12.3612 19.6845 12.3394 19.9922C12.3124 20.5741 13.0571 20.6762 13.5986 19.4614C13.7559 19.1817 13.7662 18.8421 13.6263 18.5532C13.4863 18.2644 13.214 18.0632 12.898 18.0152C12.2311 17.9335 11.2157 18.1717 10.0039 18.9544C7.89506 20.3189 5.06865 23.344 5.00096 26.7026C4.96034 28.615 6.21952 29.6937 7.91198 29.6937C8.75969 29.6937 9.7133 29.4554 10.7242 29.2027C11.8365 28.9247 13.0182 28.6293 14.2045 28.615C15.616 28.6048 16.513 29.0982 16.97 29.9013C17.3065 29.4124 17.8547 29.1141 18.4458 29.0982C19.5058 29.0595 20.5502 29.36 21.4289 29.9558ZM34.8465 19.7583L34.8465 19.7583C35.2368 20.0213 35.6557 20.3037 36.1455 20.5571L36.1625 20.5639L36.2729 20.4432C36.5201 20.1727 36.7787 19.8897 37.073 19.6145C36.6787 19.4223 36.3148 19.2037 35.9627 18.9921C35.2055 18.5372 34.503 18.1152 33.6712 18.0594C33.0237 18.0196 32.3756 18.1278 31.7756 18.3759C31.7756 18.3759 31.471 17.9369 30.4555 18.0799C29.44 18.2228 26.3936 19.5159 23.7635 23.7218C21.4009 27.5295 22.5213 29.7108 24.2137 29.6869C26.0551 29.6597 27.7984 27.5976 28.3941 25.8996C28.9898 24.2016 28.2892 23.7422 27.7476 23.7864C26.7683 23.9782 25.9414 24.6333 25.5271 25.5457C25.206 26.1317 25.0089 26.7782 24.9483 27.4445C25.1854 27.1968 25.4424 26.9692 25.7166 26.7639C25.9652 26.5695 26.2384 26.4093 26.529 26.2875C26.5961 25.9833 26.6972 25.6876 26.8303 25.4062C27.0367 24.9672 27.3685 24.5112 27.7814 24.4091C28.6175 24.1982 28.2113 25.7226 27.602 26.7163C27.2737 27.2505 26.1093 28.7886 25.1073 28.7886C24.1054 28.7886 23.9159 27.812 24.1257 26.9068C24.3356 26.0017 24.6267 24.8447 26.089 22.752C27.1277 21.1971 28.482 19.8808 30.0629 18.8897C31.0039 18.3555 31.3864 18.5869 31.3864 18.5869C30.68 19.0346 30.0454 19.5876 29.5043 20.227C28.8511 21.0812 28.4889 22.0612 28.7631 22.5138C29.0372 22.9663 30.0696 22.9391 31.1765 21.333C32.2834 19.7268 32.0024 18.774 32.0024 18.774C32.0754 18.7501 32.1501 18.7319 32.2258 18.7196C32.7674 18.6617 33.1533 18.7808 33.854 19.1415C34.1819 19.3103 34.5031 19.5269 34.8465 19.7583ZM31.6121 18.9191L31.6233 18.9135L31.6098 18.9067C31.6098 18.9073 31.6102 18.9093 31.6108 18.9126L31.6121 18.9191ZM31.6121 18.9191C31.0257 19.2085 30.5052 19.6167 30.0832 20.1182C29.2505 21.0369 28.7732 22.068 29.1286 22.3402C29.2674 22.4457 29.5822 22.4627 30.1441 21.9455C30.6734 21.4794 31.0892 20.8973 31.3593 20.2441C31.6957 19.4157 31.6269 18.9947 31.6121 18.9191ZM39.0735 24.5759C39.0658 24.6045 39.0544 24.6319 39.0396 24.6575V24.6712C38.8196 25.0523 37.7195 26.9443 37.2829 27.5431C37.2387 27.604 37.1961 27.6638 37.1551 27.7214L37.1548 27.7217C37.0515 27.8668 36.9581 27.998 36.8733 28.0978C36.6194 28.3939 36.4502 28.5334 36.3046 28.5674C36.2277 28.5891 36.1454 28.5806 36.0745 28.5436C35.8544 28.3973 36.0068 27.863 36.3859 27.1824C36.7723 26.4552 37.2464 25.7787 37.7974 25.168C38.4574 24.433 38.7113 24.4057 38.8975 24.4057C38.9895 24.4118 39.0638 24.4837 39.0735 24.5759ZM32.148 25.464C32.2597 25.1714 32.3984 24.6031 32.104 24.3785C31.8095 24.1539 30.9903 24.6984 30.9836 25.2701C31.0083 25.6858 31.29 26.0412 31.6876 26.1582C31.7655 26.182 31.7925 26.1786 31.8298 26.114C31.951 25.9052 32.0574 25.688 32.148 25.464ZM30.9971 26.2058C31.167 26.3408 31.3522 26.455 31.5488 26.5461L31.5455 26.5359C31.5658 26.5427 31.5658 26.5529 31.5658 26.587C31.3765 26.9278 31.1627 27.2542 30.926 27.5636C30.5875 28.0093 29.9512 28.6797 29.572 28.5368C28.9763 28.3156 29.633 27.0123 30.0595 26.3794C30.2095 26.1437 30.3722 25.9165 30.5469 25.6988C30.5517 25.6988 30.5573 25.6967 30.5626 25.6947C30.5723 25.691 30.5808 25.6878 30.5808 25.6988C30.6886 25.8913 30.8295 26.0629 30.9971 26.2058ZM38.2882 28.04C38.1257 28.2986 37.9497 28.7954 38.4778 28.4857C39.1277 28.108 40.0517 26.6958 40.0517 26.6958H40.4681C40.0891 27.2866 39.6659 27.8474 39.2021 28.3734C38.5421 29.1051 37.7398 29.772 37.1712 29.7074C36.4942 29.6291 36.7176 28.758 36.7176 28.758C36.7176 28.758 35.7698 29.7788 35.1165 29.6971C34.2432 29.6087 34.5174 28.4993 34.5174 28.4993C34.5174 28.4993 33.5019 29.7346 32.8249 29.6937C31.7587 29.6325 32.0261 28.3326 32.324 27.4104C32.4831 26.917 32.6286 26.5325 32.6286 26.5325C32.6286 26.5325 32.5237 26.5597 32.2901 26.5938C32.1717 26.5938 31.9516 26.6244 31.9516 26.6244C31.9516 26.6244 31.5048 27.4104 31.1528 27.8834C30.8008 28.3564 29.3046 29.9898 28.4246 29.6665C27.602 29.3637 27.8728 28.0978 28.3535 27.094C29.0508 25.6308 31.0106 23.521 32.1446 23.7966C33.2785 24.0723 32.1717 26.2365 32.1717 26.2365C32.2452 26.2534 32.3215 26.2534 32.3951 26.2365C32.5417 26.207 32.6855 26.1648 32.8249 26.1106C33.5195 24.6627 34.3503 23.2851 35.3061 21.9965C36.6093 20.3734 39.2089 17.5728 40.2311 18.2534C40.4782 18.4201 40.3665 18.9918 40.0314 19.6894C39.8825 19.7336 39.7268 19.7779 39.5711 19.8085C39.7571 19.4982 39.8974 19.1623 39.9874 18.8115C40.1397 17.9744 38.19 19.7438 36.7955 21.6494C35.9571 22.7975 35.2122 24.0117 34.5682 25.2803C34.8211 25.1276 35.0621 24.9558 35.2892 24.7664C35.9096 24.2465 36.4995 23.6909 37.0561 23.1024C37.598 22.5504 38.1066 21.9664 38.5793 21.3534C38.7282 21.3534 38.8772 21.3296 39.0193 21.3057C38.5112 22.0014 37.9571 22.6619 37.3607 23.2828C36.8056 23.8477 36.2031 24.4534 35.6683 24.8991C35.2009 25.2973 34.7091 25.6655 34.1958 26.0017C34.1958 26.0017 32.9739 28.4687 33.6373 28.6287C34.0266 28.7239 34.795 27.5295 34.795 27.5295C34.795 27.5295 35.8104 25.9881 36.4062 25.2939C37.2321 24.3513 37.9429 23.8068 38.6538 23.7932C38.9306 23.8211 39.1761 23.9839 39.3104 24.2288L39.5034 23.9259H40.7084C40.7084 23.9259 38.4676 27.7473 38.2882 28.0366V28.04ZM39.5609 28.986H39.7437C39.792 28.9786 39.841 28.9786 39.8893 28.986C39.9439 29.008 39.9781 29.063 39.9739 29.1221C39.976 29.1635 39.9552 29.2028 39.9197 29.2242C39.8964 29.2402 39.8698 29.2506 39.8419 29.2548C39.8789 29.2555 39.9131 29.2746 39.9333 29.3058C39.9506 29.3298 39.9611 29.358 39.9637 29.3875V29.4624V29.493H39.8791V29.4317C39.8791 29.3705 39.8791 29.3296 39.8283 29.3126C39.7984 29.296 39.7642 29.2889 39.7302 29.2922H39.6557V29.4998H39.5609V28.986ZM39.8453 29.071C39.8791 29.0812 39.8791 29.1085 39.8791 29.1493V29.1595C39.8791 29.1952 39.8577 29.2274 39.8249 29.2412C39.7958 29.2461 39.7661 29.2461 39.7369 29.2412H39.6557V29.0506H39.7336C39.7719 29.0481 39.8103 29.0551 39.8453 29.071ZM40.2176 29.2616C40.2189 29.4809 40.0731 29.6735 39.8625 29.7308C39.6519 29.7881 39.4294 29.6956 39.3205 29.5056C39.2116 29.3156 39.2436 29.0757 39.3985 28.9213C39.5873 28.7381 39.8866 28.7381 40.0754 28.9213C40.1672 29.0101 40.2175 29.1336 40.2142 29.2616H40.2176ZM39.4425 28.9689C39.5187 28.8897 39.6239 28.8454 39.7336 28.8464L39.7539 28.8532C39.8645 28.852 39.9709 28.8963 40.0484 28.9757C40.127 29.0522 40.17 29.1584 40.1668 29.2684C40.168 29.3822 40.1219 29.4913 40.0397 29.5694C39.9574 29.6476 39.8465 29.6877 39.7336 29.6801C39.6244 29.6821 39.5192 29.6391 39.4425 29.561C39.3632 29.4819 39.3193 29.3739 39.3206 29.2616C39.3187 29.1512 39.3629 29.0451 39.4425 28.9689ZM24.7959 21.0267H23.6552L23.0087 22.0748H24.146L24.7959 21.0267ZM21.2045 21.6426C21.2045 21.6426 19.8675 23.9736 19.3801 24.6541L19.397 24.6439C19.3289 24.7299 19.2657 24.8165 19.2062 24.8981L19.2062 24.8981C19.1267 25.0071 19.0537 25.1071 18.984 25.185C18.8327 25.4036 18.6208 25.5728 18.3748 25.6716C18.2976 25.6911 18.2161 25.6826 18.1446 25.6478C17.9347 25.5151 18.104 25.0046 18.4831 24.3241C18.9024 23.6088 19.3826 22.9313 19.9183 22.2994C20.5343 21.5269 20.839 21.4725 21.0251 21.4725C21.1173 21.4796 21.1921 21.5505 21.2045 21.6426ZM13.2771 21.4793C12.9623 21.2411 12.16 21.7992 12.1567 22.3742C12.1533 22.9493 12.881 23.1433 12.9758 23.1433C13.0197 23.1576 13.0677 23.1392 13.0909 23.099C13.0946 23.0909 13.101 23.078 13.1096 23.0607L13.1096 23.0606L13.1096 23.0606C13.1478 22.9835 13.2299 22.8178 13.3211 22.5818C13.4328 22.2926 13.5716 21.7175 13.2771 21.4929V21.4793ZM12.7979 23.5125L12.8032 23.5142L12.793 23.5108L12.7979 23.5125ZM12.177 23.2249C12.3709 23.347 12.5796 23.4436 12.7979 23.5125C12.8159 23.5194 12.8289 23.5308 12.8133 23.5652C12.5933 23.9403 12.3526 24.3027 12.0924 24.6507C11.7539 25.0931 11.1175 25.7669 10.7384 25.6239C10.146 25.4062 10.7722 24.0961 11.1987 23.4665C11.3513 23.2413 11.4571 23.0836 11.5307 22.9739L11.5308 22.9738L11.5308 22.9737L11.5309 22.9737C11.6628 22.777 11.691 22.7349 11.6997 22.7349C11.7043 22.7349 11.7102 22.7325 11.7159 22.7302C11.7267 22.7257 11.7369 22.7215 11.7369 22.7349C11.8396 22.9334 11.9911 23.102 12.177 23.2249ZM22.132 23.8953H22.528C22.528 23.8953 20.4362 26.9374 19.2514 26.8013C18.5948 26.7231 18.7877 25.903 18.7877 25.903C18.7877 25.903 17.8602 26.9953 17.0106 26.7775C16.2389 26.5767 16.7365 25.2871 16.7365 25.2871C16.7231 25.2922 16.6732 25.3403 16.5941 25.4166L16.5941 25.4166C16.1521 25.8426 14.7979 27.1478 13.8017 26.7639C12.6272 26.3113 13.2094 24.7018 13.4632 24.2254C13.6528 23.8238 13.8694 23.4291 13.8694 23.4291C13.8694 23.4291 13.6799 23.4836 13.5614 23.5108L13.2669 23.572C13.2669 23.572 12.6847 24.5214 12.3293 24.9978C11.9739 25.4742 10.4845 27.1042 9.58074 26.7775C8.67697 26.4508 8.90376 25.202 9.4115 24.2084C10.2205 22.592 12.1431 20.6116 13.3008 20.911C14.4584 21.2105 13.5039 23.1161 13.5039 23.1161C13.5039 23.1161 13.734 23.1501 14.2925 22.7758C14.5227 22.6183 14.7735 22.3842 15.0411 22.1344C15.7106 21.5097 16.4854 20.7866 17.3051 20.9178C17.8433 20.9961 18.3443 21.5542 17.6605 22.6192C17.4371 22.9595 17.0716 23.2624 16.7872 22.9595C16.6112 22.7758 16.7635 22.4321 16.9497 22.2007C17.0963 22.0081 17.3283 21.901 17.5691 21.9149C17.5691 21.9149 17.7587 21.4793 17.278 21.4861C16.8854 21.4861 15.9004 22.4083 15.3419 23.3338C14.8274 24.1845 14.0522 25.6308 14.8341 25.9438C15.545 26.2331 16.9023 24.6133 17.5421 23.7626L17.585 23.7055C18.2436 22.8289 19.6296 20.9842 20.8051 20.9076C21.0674 20.9052 21.3141 21.0324 21.4652 21.2479L21.604 21.0267H22.8056C22.8056 21.0267 20.5411 24.8277 20.3651 25.1101C20.2263 25.3347 20.0266 25.8417 20.5546 25.5593C21.0827 25.2769 22.132 23.8953 22.132 23.8953Z" fill="white"/>
</svg>
