<svg width="48" height="48" viewBox="0 0 48 48" fill="none" xmlns="http://www.w3.org/2000/svg">
<circle cx="24" cy="24" r="24" fill="#0282F9"/>
<path fill-rule="evenodd" clip-rule="evenodd" d="M24 8C15.1634 8 8 15.1634 8 24C8 32.8366 15.1634 40 24 40C32.8366 40 40 32.8366 40 24C40.0017 19.756 38.3165 15.6854 35.3155 12.6845C32.3146 9.68352 28.244 7.99834 24 8ZM28.3733 19.7142H32.6779V22.082C32.6779 22.1441 32.7282 22.1945 32.7903 22.1945H36.3889C36.4526 22.1956 36.508 22.1508 36.5201 22.0882L37.2323 17.5838C37.2323 17.5527 37.2575 17.5275 37.2886 17.5275C37.3196 17.5275 37.3448 17.5527 37.3448 17.5838C39.4296 21.9134 39.2876 26.9848 36.9637 31.1909C36.9508 31.218 36.9204 31.2321 36.8914 31.2244C36.8624 31.2168 36.8429 31.1896 36.845 31.1597V27.0363C36.845 27.0065 36.8331 26.9779 36.812 26.9568C36.791 26.9357 36.7624 26.9239 36.7325 26.9239H32.7778C32.748 26.9239 32.7194 26.9357 32.6983 26.9568C32.6772 26.9779 32.6654 27.0065 32.6654 27.0363V29.223H30.9285C30.5398 29.223 30.1673 29.0669 29.8947 28.7896C29.6221 28.5124 29.4724 28.1373 29.4791 27.7485V20.6326C29.4772 20.5659 29.445 20.5038 29.3916 20.4639L28.3733 19.7142ZM11.5049 20.0703L10.1429 19.0894L10.1304 19.0644C10.12 19.0429 10.0981 19.0292 10.0742 19.0292C10.0502 19.0292 10.0284 19.0429 10.018 19.0644C8.52336 23.3398 9.06409 28.0637 11.4861 31.8907C11.4966 31.9122 11.5184 31.9259 11.5424 31.9259C11.5663 31.9259 11.5882 31.9122 11.5986 31.8907V20.2452C11.5962 20.1755 11.5615 20.1109 11.5049 20.0703ZM24 38.8005C19.5091 38.8047 15.2603 36.7653 12.4545 33.2589C12.4408 33.2408 12.438 33.2168 12.447 33.1961C12.4561 33.1753 12.4757 33.1611 12.4982 33.1589H20.4139C20.4876 33.1612 20.56 33.1392 20.6201 33.0964L23.6439 30.8723C23.6988 30.8337 23.7314 30.7707 23.7314 30.7036V18.1523C23.7325 18.0849 23.6996 18.0215 23.6439 17.9836L20.6201 15.7845C20.5606 15.7399 20.4882 15.7157 20.4139 15.7157H11.8485C11.8249 15.7194 11.8015 15.7078 11.7902 15.6866C11.7789 15.6655 11.7823 15.6396 11.7985 15.622C14.559 11.6014 19.123 9.19877 24 9.19877C28.877 9.19877 33.441 11.6014 36.2015 15.622C36.2177 15.6396 36.2211 15.6655 36.2098 15.6866C36.1985 15.7078 36.1751 15.7194 36.1515 15.7157H33.9961C33.9264 15.7182 33.8638 15.7591 33.8337 15.8219L33.3713 16.8341L31.9282 15.7845C31.8683 15.7406 31.7962 15.7166 31.722 15.7157H28.3358C28.2616 15.7166 28.1895 15.7406 28.1296 15.7845L25.1058 17.9836C25.0501 18.0215 25.0172 18.0849 25.0184 18.1523V30.7286C25.0183 30.7957 25.0509 30.8587 25.1058 30.8973L28.1296 33.0964C28.1901 33.1384 28.2622 33.1603 28.3358 33.1589H35.5018C35.5243 33.1611 35.5439 33.1753 35.553 33.1961C35.562 33.2168 35.5592 33.2408 35.5455 33.2589C32.7397 36.7653 28.4909 38.8047 24 38.8005ZM17.8212 19.7142H14.9535L15.9781 20.4639C16.0339 20.5018 16.0667 20.5652 16.0656 20.6326V29.198H17.8212C18.2067 29.1996 18.5769 29.0477 18.8501 28.7757C19.1233 28.5037 19.2768 28.134 19.2768 27.7485V21.1699C19.2768 20.3659 18.6251 19.7142 17.8212 19.7142Z" fill="white"/>
</svg>
