<svg width="48" height="48" viewBox="0 0 48 48" fill="none" xmlns="http://www.w3.org/2000/svg">
<circle cx="24" cy="24" r="24" fill="#4353FF"/>
<path d="M32.7357 20.4437C32.7357 20.4437 30.1411 28.5269 29.9297 29.1941C29.8529 28.5078 27.9501 14 27.9501 14C23.5297 14 21.1658 17.1265 19.9165 20.4246C19.9165 20.4246 16.7646 28.5269 16.4955 29.2132C16.4763 28.5841 16.015 20.5199 16.015 20.5199C15.7459 16.4783 12.0174 14.0191 9 14.0191L12.6517 36C17.2835 35.9809 19.782 32.8735 21.0889 29.5754C21.0889 29.5754 23.8757 22.4263 23.991 22.1023C24.0102 22.4073 25.9898 36 25.9898 36C30.6408 36 33.1393 33.0832 34.4847 29.8995L41 14.0191C36.4066 14.0191 33.985 17.1265 32.7357 20.4437Z" fill="white"/>
</svg>
