<svg width="48" height="48" viewBox="0 0 48 48" fill="none" xmlns="http://www.w3.org/2000/svg">
<circle cx="24" cy="24" r="24" fill="#1ED760"/>
<path d="M38.1973 21.2763C39.2609 21.9097 40.6403 21.5582 41.2728 20.4915C41.9054 19.4264 41.5555 18.0486 40.4884 17.4153C31.5823 12.1287 17.4893 11.6313 9.01189 14.205C7.82479 14.5658 7.1561 15.8189 7.51569 17.0056C7.87488 18.1915 9.12877 18.861 10.3147 18.501C17.7002 16.2596 30.4608 16.6821 38.1973 21.2763Z" fill="white"/>
<path d="M37.9435 28.0812C38.4849 27.2025 38.2076 26.0507 37.3277 25.5086C29.9204 20.9567 19.0839 19.6749 10.3673 22.3205C9.37902 22.6215 8.82139 23.6645 9.11924 24.6539C9.42018 25.6414 10.4648 26.199 11.4546 25.9C19.0851 23.5845 28.9201 24.7328 35.3698 28.6975C36.2497 29.238 37.4007 28.9619 37.9435 28.0812Z" fill="white"/>
<path d="M35.007 34.6166C35.438 33.911 35.2159 32.9896 34.5111 32.5589C28.1846 28.6936 20.3428 27.7943 11.2002 29.8838C10.3933 30.0679 9.89078 30.8701 10.0752 31.6755C10.2593 32.4797 11.0612 32.9845 11.8662 32.8001C20.2209 30.8915 27.314 31.6697 32.9501 35.1141C33.6549 35.5451 34.576 35.3237 35.007 34.6166Z" fill="white"/>
</svg>
