<svg width="48" height="48" viewBox="0 0 48 48" fill="none" xmlns="http://www.w3.org/2000/svg">
<circle cx="24" cy="24" r="24" fill="#76B83F"/>
<path d="M35.594 9.59324L42.0485 23.412C42.2762 23.8956 42.7084 24.6233 43.0726 25.1379L43.2663 25.4012L43.3408 25.4943L43.4509 25.6216L43.5957 25.7749C43.6227 25.8022 43.651 25.8302 43.6808 25.8587L43.8755 26.0353C44.4732 26.5469 45.4563 27.1208 46.7173 26.9062L46.8184 26.9026C46.5692 28.8811 46.0688 30.7813 45.35 32.5703C42.8761 33.1934 40.888 32.571 39.6464 31.96L39.3517 31.8082L39.089 31.6613L38.8592 31.5235L38.2056 31.0961L37.963 30.9203L37.7295 30.7382L37.3269 30.4157C37.1849 30.3056 37.0815 30.2364 37.0411 30.2476C36.6751 32.5134 34.6051 35.6596 29.8801 37.0869C27.2926 37.8706 24.5071 37.8886 22.5196 36.7749L23.3999 38.9761L24.0413 40.5395L24.6743 42.021L25.5278 43.9403L26.0433 45.0604L26.4791 45.9808L26.8885 46.8191C25.9422 46.9389 24.9781 47 23.9998 47C21.1519 47 18.4249 46.4824 15.9078 45.5362C15.4653 44.5668 15.0373 43.5549 14.666 42.5595L4.59502 15.4972C4.37377 14.9032 4.76152 14.316 5.44552 14.1877L12.527 12.8685C13.172 12.7507 13.8868 13.1167 14.1133 13.6815L18.9785 25.8232L19.5445 26.8971L19.6794 27.1384L19.8034 27.3455L19.9263 27.5333L20.0576 27.7163L20.3857 28.1434L20.5684 28.3645L20.7241 28.5429L20.9063 28.7418L21.1146 28.9575L21.3483 29.1864C21.3893 29.2255 21.4314 29.2649 21.4745 29.3047L21.7454 29.5464C23.2076 30.8091 25.6344 32.2314 28.6873 31.533C32.1403 30.744 33.7528 28.152 33.8623 26.3077C33.9755 25.716 33.7985 24.9712 33.491 24.276L27.6635 11.1015C27.4295 10.5705 27.707 10.0492 28.2755 9.94049L34.181 8.84024C34.7225 8.74349 35.3578 9.07949 35.594 9.59324Z" fill="white"/>
</svg>
