<svg width="48" height="48" viewBox="0 0 48 48" fill="none" xmlns="http://www.w3.org/2000/svg">
<circle cx="24" cy="24" r="24" fill="#7D69AC"/>
<path fill-rule="evenodd" clip-rule="evenodd" d="M19.2287 27.7164C19.437 23.6938 21.5539 20.3531 21.6268 18.9444C21.6562 18.3773 21.3638 17.931 20.7055 17.9611C19.5947 18.0119 17.6085 19.6495 16.6151 21.7102C16.0653 19.9763 14.7334 21.0006 14.1055 21.7629C14.223 18.5047 13.257 18.2257 12.6927 18.2514C10.9323 18.3319 9.01312 20.8471 8.09788 22.5508C7.24577 23.9882 4.81543 29.1513 6.6972 29.3659C7.89402 29.4703 8.07941 26.3342 8.95867 24.5077C9.21923 23.9213 10.2687 21.7615 11.2101 21.8599C12.7585 22.0897 10.7544 27.986 10.0654 30.1015C9.68108 31.2287 9.35148 33.0557 10.5993 32.9987C11.9924 32.9351 12.577 29.313 12.9091 27.3443C13.2851 25.188 13.8194 24.4897 14.3542 24.536C14.9811 24.6133 14.7181 25.9071 14.3043 27.1465C13.9319 28.4106 12.655 31.4994 14.1572 31.634C15.6721 31.6885 15.6057 28.8542 16.0222 27.068C16.656 24.3778 17.364 22.5599 18.1236 22.7109C19.0594 22.9156 16.873 26.4451 16.7281 29.2449C16.6157 31.4156 17.5659 32.9898 18.9447 32.3788C20.397 31.6672 19.1164 29.8871 19.2287 27.7164ZM38.2261 19.8078C37.4774 21.0043 37.7458 21.145 37.1977 22.0039C36.7571 22.6945 36.1455 22.8744 35.9175 22.516C35.6896 22.1574 35.92 21.3648 36.4322 20.7456C36.9444 20.1264 38.566 19.2647 38.2261 19.8078ZM30.7619 22.172C30.761 22.1721 30.7601 22.1721 30.7591 22.1721C30.7266 22.1723 30.6969 22.1566 30.6793 22.1296C30.661 22.1019 30.6576 22.0655 30.6701 22.0321C30.8382 21.582 31.1272 21.1615 31.4839 20.8479C31.7999 20.5699 32.1382 20.4031 32.3889 20.4015C32.6256 20.3999 32.7655 20.5508 32.7542 20.7952C32.7455 20.9882 32.6245 21.2132 32.4139 21.4287C32.0936 21.7564 31.4687 22.1476 30.7619 22.172ZM41.8039 20.7614C41.2888 20.743 40.5281 21.6187 39.9064 21.6211C39.4966 21.6225 39.4662 21.2992 39.7116 20.7575C40.622 18.7475 39.5164 18.8114 39.2793 19.0008C39.2793 19.0008 40.0696 17.563 38.6757 17.5682C36.9583 17.5747 35.4344 19.061 34.6367 21.2722C34.3455 22.0251 33.7036 23.6344 33.029 23.8343C32.3829 24.0152 32.3849 23.1413 31.972 22.9831C34.7172 21.0746 34.7486 19.5335 34.3178 19.0089C33.9274 18.5499 32.6304 18.4044 31.0201 20.1207C31.4141 18.5969 32.5308 17.66 32.7989 16.1273C32.9386 15.2247 32.2951 14.2902 31.0725 15.7924C30.2441 16.8066 29.8153 18.6614 29.0159 21.0303C28.5379 22.4698 27.5902 25.0602 26.7427 25.0634C26.373 25.0648 26.2689 24.7234 26.3843 23.7833C26.6033 21.9408 28.0399 19.8218 28.5423 18.2976C28.9164 17.2814 28.5455 16.6815 28.1194 16.5797C27.5492 16.4691 26.7395 17.0265 26.1376 18.551C25.6613 19.6052 25.2729 21.0537 24.9874 22.6993C24.7222 24.0722 23.6585 26.7962 22.6497 26.6309C22.3554 26.5679 22.5683 25.9908 22.7149 25.5155C22.858 25.0515 24.2814 22.7552 22.9949 22.7601C21.7022 22.7649 20.754 25.5073 20.6008 27.5564C20.5264 28.5527 20.4937 29.7055 21.2409 29.7026C22.1602 29.6992 23.355 28.705 24.4725 26.9718C24.5532 27.9378 25.7475 29.2212 28.0506 25.775C28.0848 26.3004 28.2002 27.0791 28.5851 27.1035C28.5851 27.1035 28.9482 27.2025 29.3045 26.3486C29.3045 26.3486 29.5863 25.6792 29.9106 24.8035C30.0076 24.552 30.0927 24.3328 30.1622 24.194C30.3897 23.7296 30.6874 23.6157 30.7452 24.455C30.803 25.2941 30.9973 25.9188 31.6602 25.9162C32.9618 25.9113 34.0899 24.6803 34.4139 24.2156C34.6006 24.9416 36.1984 25.1986 37.9392 23.0246C38.0167 23.6007 38.5012 24.4383 40.6931 22.676C42.0763 21.5807 42.1992 20.7755 41.8039 20.7614ZM22.6927 21.8626C22.9123 21.8831 23.1434 21.8904 23.3403 21.9606C23.6565 22.0735 23.8521 22.3134 23.9147 22.6497C23.9388 22.6341 23.9529 22.6287 23.9609 22.619C23.9923 22.581 24.0222 22.5421 24.0519 22.503C24.4756 21.9476 24.5931 21.382 24.2911 20.8433C24.0216 20.3626 23.5765 20.117 22.9442 20.1879C22.454 20.2429 22.0297 20.6392 21.9692 21.1027C21.9105 21.5517 22.1649 21.8137 22.6927 21.8626Z" fill="white"/>
</svg>
