<svg width="48" height="48" viewBox="0 0 48 48" fill="none" xmlns="http://www.w3.org/2000/svg">
<circle cx="24" cy="24" r="24" fill="#20232A"/>
<ellipse cx="24.0001" cy="24" rx="2.85217" ry="2.79859" fill="#61DAFB"/>
<path fill-rule="evenodd" clip-rule="evenodd" d="M19.0377 17.8829C20.6011 17.6876 22.2692 17.5837 24 17.5837C25.7308 17.5837 27.3989 17.6876 28.9623 17.8829L29.8044 17.9983L30.6242 18.1314L31.4202 18.2818C36.5133 19.3138 40 21.4072 40 24C40 25.795 38.3289 27.3507 35.6105 28.4805L34.9894 28.7245C32.1193 29.7902 28.2482 30.4163 24 30.4163C19.7518 30.4163 15.8807 29.7902 13.0106 28.7245L12.3895 28.4805C9.67114 27.3507 8 25.795 8 24C8 21.4072 11.4867 19.3138 16.5798 18.2818L17.3758 18.1314L18.1956 17.9983L19.0377 17.8829ZM26.6809 19.0394C25.8123 18.9802 24.9163 18.9489 24 18.9489C23.0837 18.9489 22.1877 18.9802 21.3191 19.0394L20.4598 19.1079C20.3183 19.1208 20.1775 19.1345 20.0376 19.1489L19.2087 19.244C19.0724 19.2613 18.937 19.2792 18.8025 19.2979L18.0076 19.4179C12.9191 20.2502 9.3913 22.0792 9.3913 24C9.3913 25.379 11.2097 26.7107 14.1186 27.6602L14.7583 27.8577C15.6329 28.1129 16.5922 28.335 17.6193 28.5161L18.4021 28.6441L19.2087 28.756C20.7084 28.946 22.3202 29.0511 24 29.0511C25.6798 29.0511 27.2916 28.946 28.7913 28.756L29.5979 28.6441L30.3807 28.5161C31.4078 28.335 32.3671 28.1129 33.2417 27.8577L33.8814 27.6602C36.7903 26.7107 38.6087 25.379 38.6087 24C38.6087 22.0792 35.0809 20.2502 29.9924 19.4179L29.1975 19.2979C29.063 19.2792 28.9276 19.2613 28.7913 19.244L27.9624 19.1489C27.8225 19.1345 27.6817 19.1208 27.5402 19.1079L26.6809 19.0394Z" fill="#61DAFB"/>
<path fill-rule="evenodd" clip-rule="evenodd" d="M26.9181 16.7247C27.8721 17.9556 28.7979 19.3211 29.6632 20.7919C30.5286 22.2626 31.271 23.7321 31.8804 25.1582L32.1995 25.9315L32.4919 26.6947L32.7572 27.4462C34.3929 32.2902 34.2886 36.2997 32.0002 37.5961C30.4159 38.4936 28.2073 37.8514 25.8509 36.1063L25.325 35.7006C22.9494 33.7945 20.4612 30.8181 18.3371 27.2081C16.213 23.5982 14.83 19.9957 14.3356 17.0239L14.2404 16.3742C13.8784 13.4993 14.4159 11.3014 16.0002 10.4039C18.2886 9.10751 21.8796 11.0237 25.337 14.8355L25.8677 15.4368L26.3951 16.0668L26.9181 16.7247ZM29.7189 23.7978C29.3369 23.0301 28.9165 22.253 28.4583 21.4744C28.0002 20.6959 27.5246 19.9501 27.0379 19.2416L26.5479 18.5457L26.3006 18.2074L25.8022 17.5506L25.5515 17.2324L25.0481 16.6169C21.7693 12.709 18.3911 10.6258 16.6958 11.5862C15.4787 12.2757 15.2125 14.4867 15.8289 17.4333L15.9745 18.0757C16.1865 18.9464 16.4702 19.8727 16.8239 20.836L17.1023 21.5652L17.4069 22.3066C17.989 23.6759 18.7021 25.0981 19.542 26.5256C20.3819 27.953 21.2806 29.27 22.1981 30.4494L22.7002 31.0789L23.2046 31.6801C23.878 32.4623 24.5536 33.1665 25.2162 33.782L25.7103 34.2269C28.0028 36.224 30.0874 37.1033 31.3045 36.4138C32.9998 35.4534 32.8502 31.5412 31.0405 26.801L30.749 26.0655L30.5935 25.6934L30.263 24.9416C30.2058 24.8155 30.1474 24.689 30.088 24.5622L29.7189 23.7978Z" fill="#61DAFB"/>
<path fill-rule="evenodd" clip-rule="evenodd" d="M31.8804 22.8418C31.271 24.2679 30.5286 25.7374 29.6632 27.2081C28.7979 28.6789 27.8721 30.0444 26.9181 31.2753L26.3951 31.9332L25.8677 32.5632L25.337 33.1645C21.8796 36.9763 18.2886 38.8925 16.0002 37.5961C14.4159 36.6986 13.8784 34.5007 14.2404 31.6258L14.3356 30.9761C14.83 28.0043 16.213 24.4018 18.3371 20.7919C20.4612 17.1819 22.9494 14.2055 25.325 12.2994L25.8509 11.8937C28.2073 10.1486 30.4159 9.50641 32.0002 10.4039C34.2886 11.7003 34.3929 15.7098 32.7572 20.5538L32.4919 21.3053L32.1995 22.0685L31.8804 22.8418ZM27.0379 28.7584C27.5246 28.0499 28.0002 27.3041 28.4583 26.5256C28.9165 25.747 29.3369 24.9699 29.7189 24.2022L30.088 23.4378L30.263 23.0584L30.5935 22.3066L30.749 21.9345L31.0405 21.199C32.8502 16.4588 32.9998 12.5466 31.3045 11.5862C30.0874 10.8967 28.0028 11.776 25.7103 13.7731L25.2162 14.218C24.5536 14.8335 23.878 15.5377 23.2046 16.3199L22.7002 16.9211L22.1981 17.5506C21.2806 18.73 20.3819 20.047 19.542 21.4744C18.7021 22.9019 17.989 24.3241 17.4069 25.6934L17.1023 26.4348L16.8239 27.164C16.4702 28.1273 16.1865 29.0536 15.9745 29.9243L15.8289 30.5667C15.2125 33.5133 15.4787 35.7243 16.6958 36.4138C18.3911 37.3742 21.7693 35.291 25.0481 31.3831L25.5515 30.7676L25.8022 30.4494L26.3006 29.7926L26.5479 29.4543L27.0379 28.7584Z" fill="#61DAFB"/>
</svg>
